<svg width="265" height="168" viewBox="0 0 265 168" fill="none" xmlns="http://www.w3.org/2000/svg">
<path d="M16.7798 127.498C14.9684 126.366 12.9231 125.663 10.7991 125.44C9.82309 125.339 8.75343 125.37 7.97265 125.96C7.88127 126.011 7.80572 126.087 7.75413 126.178C7.70254 126.27 7.67687 126.374 7.67986 126.479C7.72698 126.625 7.82539 126.75 7.95704 126.83C10.3892 128.684 14.0705 128.923 16.7798 127.498Z" fill="#E0E0E0"/>
<path d="M16.6237 127.329C15.2407 126.311 13.9488 125.175 12.7628 123.933C11.5741 122.681 10.7389 121.136 10.3424 119.455C10.2636 119.206 10.24 118.943 10.273 118.685C10.3061 118.426 10.395 118.177 10.5336 117.956C13.6099 120.361 16.0303 123.468 16.6237 127.325" fill="#E0E0E0"/>
<path d="M16.7408 127.466C16.4559 125.784 16.481 124.064 16.815 122.391C17.1579 120.707 18.1207 119.214 19.5126 118.206C20.0474 119.448 19.8171 120.88 19.4423 122.18C18.8616 124.192 17.957 126.096 16.7643 127.818" fill="#E0E0E0"/>
<path d="M19.7624 132.881C17.9315 133.103 16.3348 134.071 14.9685 135.309C13.5971 136.561 12.6433 138.205 12.2357 140.017C14.0315 139.908 15.554 138.639 16.6588 137.218C17.7636 135.797 18.5327 134.239 19.7468 132.924" fill="#E0E0E0"/>
<path d="M20.4182 133.747C19.6971 131.916 19.4444 129.934 19.683 127.98C19.9216 126.026 20.6439 124.163 21.7846 122.559C22.8269 126.271 22.4443 130.464 20.4182 133.747Z" fill="#E0E0E0"/>
<path d="M24.408 138.495C22.73 138.387 21.0575 138.776 19.5994 139.613C18.1413 140.451 16.9623 141.699 16.2099 143.203C16.1084 143.406 16.0186 143.66 16.1552 143.843C16.2263 143.911 16.3127 143.961 16.4071 143.989C16.5015 144.017 16.6012 144.022 16.6978 144.003C18.3101 143.898 19.7351 142.929 20.914 141.825C22.093 140.72 23.1197 139.443 24.4275 138.491" fill="#E0E0E0"/>
<path d="M24.2792 138.237C23.4211 135.474 23.3683 132.523 24.1269 129.731C24.4275 128.634 24.9311 127.482 25.9422 126.967C25.9828 126.94 26.0283 126.923 26.076 126.915C26.1236 126.907 26.1724 126.908 26.2194 126.92C26.3017 126.963 26.3646 127.035 26.3951 127.123C26.734 127.889 26.8814 128.727 26.8245 129.563C26.7609 130.396 26.6303 131.222 26.4341 132.034C26.114 133.545 25.9461 135.157 25.1185 136.469C24.9215 136.782 24.7454 137.108 24.5915 137.445C24.4353 137.773 24.4314 137.89 24.287 138.155" fill="#E0E0E0"/>
<path d="M34.8313 139.81C34.0506 136.836 34.8821 133.229 36.756 130.789C36.8926 130.609 37.0761 130.418 37.3025 130.441C37.646 130.472 37.7358 130.933 37.7202 131.277C37.5786 134.336 36.5774 137.294 34.8313 139.81Z" fill="#E0E0E0"/>
<path d="M35.7839 140.458C39.3989 141.399 43.5448 140.486 46.5508 138.268C44.7488 137.364 42.6894 137.112 40.7223 137.554C38.7704 137.999 36.998 138.873 35.7839 140.458Z" fill="#E0E0E0"/>
<path d="M36.5881 138.479C38.6103 135.18 42.4908 133.013 46.3478 132.83C45.9028 134.391 44.6106 135.625 43.1544 136.363C41.6983 137.101 40.0665 137.421 38.4698 137.733C37.8491 137.854 36.9902 137.987 36.5881 138.479Z" fill="#E0E0E0"/>
<path d="M35.0343 128.867C35.6452 127.009 36.0638 125.092 36.2836 123.148C36.4358 121.196 36.1548 119.162 35.1437 117.488C33.2542 121.145 33.0629 125.42 34.9758 129.066" fill="#E0E0E0"/>
<path d="M41.3976 125.65C43.6111 121.633 48.1201 118.424 52.6838 117.975C50.9231 122.359 46.1213 125.744 41.3976 125.65Z" fill="#E0E0E0"/>
<path d="M40.0079 126.439C43.3067 126.943 46.1136 129.047 49.1937 130.324C49.8401 130.633 50.5561 130.767 51.2706 130.714C51.6028 130.709 51.9256 130.603 52.1955 130.409C52.4654 130.215 52.6695 129.943 52.7805 129.63C52.8914 129.317 52.9038 128.977 52.816 128.656C52.7283 128.336 52.5445 128.05 52.2895 127.837C51.8534 127.435 51.341 127.124 50.7826 126.924C47.4253 125.526 43.8259 125.491 40.2929 126.338" fill="#E0E0E0"/>
<path d="M38.0989 128.75C38.8445 128.965 39.1022 129.351 39.6917 129.855C41.7077 131.569 44.0925 132.794 46.6601 133.435C46.9256 133.501 47.273 133.525 47.4057 133.287C47.5385 133.048 47.3745 132.822 47.2262 132.635C46.1061 131.322 44.6521 130.336 43.0178 129.781C41.4133 129.18 40.0196 128.457 38.0989 128.61" fill="#E0E0E0"/>
<path d="M35.9479 114.786C37.2997 116.032 38.8972 116.982 40.6378 117.574C42.3784 118.167 44.2236 118.389 46.055 118.226C46.224 118.229 46.3882 118.169 46.5157 118.058C46.7694 117.781 46.4649 117.355 46.1682 117.125C43.1974 114.806 39.598 113.845 35.9479 114.782" fill="#E0E0E0"/>
<path d="M38.501 113.849C40.2906 112.533 42.3661 111.658 44.5582 111.296C46.7502 110.935 48.9967 111.096 51.1144 111.768C49.4638 113.299 47.346 114.228 45.1024 114.407C42.8862 114.609 40.6519 114.42 38.501 113.849Z" fill="#E0E0E0"/>
<path d="M37.486 107.431C37.1932 104.468 37.3845 102.126 37.1776 99.143C37.1776 98.9088 37.1073 98.6199 36.8848 98.534C36.5764 98.4169 36.3187 98.7955 36.2172 99.1117C35.7843 100.493 35.6732 101.956 35.8924 103.387C36.1117 104.818 36.6554 106.18 37.4821 107.368" fill="#E0E0E0"/>
<path d="M37.2713 107.76C39.2091 106.509 40.8797 104.886 42.1863 102.985C43.1544 101.658 43.9742 100.069 43.7478 98.4373C43.065 98.4548 42.3942 98.6215 41.7825 98.9257C41.1709 99.2298 40.6332 99.664 40.207 100.198C39.3571 101.27 38.7414 102.508 38.3995 103.832C38.0091 105.136 37.7281 106.479 37.2674 107.76" fill="#E0E0E0"/>
<path d="M42.1159 106.42C46.5426 104.782 50.641 102.367 54.218 99.2875C52.7735 98.7058 51.1222 99.0572 49.6777 99.6388C46.379 100.97 43.6814 103.219 42.0652 106.389" fill="#E0E0E0"/>
<path d="M38.6298 109.383C40.8628 109.629 43.1271 109.774 45.3445 109.418C47.5619 109.063 49.5763 108.189 51.5907 107.334C51.7698 107.284 51.9234 107.168 52.0201 107.01C52.0512 106.915 52.0529 106.813 52.025 106.718C51.9972 106.623 51.941 106.538 51.8639 106.475C51.7081 106.35 51.5247 106.264 51.3291 106.225C49.1195 105.604 46.7342 105.893 44.5559 106.615C42.4839 107.326 40.4913 108.249 38.6103 109.371" fill="#E0E0E0"/>
<path d="M25.8837 114.888C24.3612 111.811 24.4587 108.224 25.7744 105.058C26.6996 106.467 26.8128 108.267 26.6449 109.945C26.4771 111.624 25.9617 113.353 25.9305 115.04" fill="#E0E0E0"/>
<path d="M19.7975 111.819C17.8923 111.792 16.0025 112.163 14.2487 112.908C12.4949 113.652 10.9158 114.755 9.61228 116.144C11.5096 116.445 13.4615 115.953 15.1909 115.114C16.8883 114.212 18.4894 113.139 19.9693 111.913" fill="#E0E0E0"/>
<path d="M15.7102 110.449C13.848 110.301 12.0601 110.059 10.2682 110.617C8.47629 111.175 6.85228 112.409 6.12616 114.13C7.88104 114.274 9.64216 113.942 11.2246 113.17C12.7983 112.395 14.2995 111.48 15.7102 110.437" fill="#E0E0E0"/>
<path d="M21.7651 110.511C20.0903 109.414 18.3726 108.298 16.4246 107.845C14.4765 107.392 12.2162 107.728 10.8576 109.196C12.4192 110.121 14.3516 110.23 16.1786 110.23C18.0056 110.23 20.2504 110.207 21.972 110.816" fill="#E0E0E0"/>
<path d="M21.7729 110.601C18.9153 107.79 17.83 102.747 18.9816 98.8896C21.244 102.351 22.2309 106.492 21.7729 110.601Z" fill="#E0E0E0"/>
<path d="M29.6431 102.641C30.1818 101.388 30.5605 100.072 31.0446 98.7919C31.4863 97.497 32.164 96.2952 33.0434 95.2472C33.9393 94.1947 35.2117 93.5347 36.5881 93.4084C36.1487 95.3445 35.3099 97.1674 34.1254 98.7606C32.9409 100.354 31.4368 101.682 29.7094 102.661" fill="#E0E0E0"/>
<path d="M28.2182 104.301C27.3242 103.071 26.2936 101.404 25.0951 100.487C23.8966 99.5691 22.3077 99.0147 20.8281 99.3661C21.5956 100.709 22.6656 101.854 23.9533 102.711C25.2409 103.567 26.7106 104.112 28.2455 104.301" fill="#E0E0E0"/>
<path d="M28.5031 102.743C27.8629 101.282 27.3888 99.7536 27.0899 98.1869C26.7984 96.6016 27.0516 94.9644 27.8082 93.5413C29.3698 96.5082 29.8812 99.6977 28.589 102.793" fill="#E0E0E0"/>
<path d="M29.6548 93.5256C30.5449 90.5821 33.2386 88.4155 36.1509 87.42C36.5106 87.2737 36.9002 87.2161 37.2869 87.2521C37.48 87.2731 37.6626 87.3506 37.8119 87.4749C37.9612 87.5992 38.0705 87.7648 38.1262 87.9509C38.2316 88.4506 37.8178 88.8996 37.4313 89.2353C35.1555 91.1769 32.5102 92.6376 29.6548 93.5295" fill="#E0E0E0"/>
<path d="M29.686 91.1209C29.7993 89.2197 29.9203 87.2951 30.5371 85.4994C31.1539 83.7036 32.3446 82.0132 34.074 81.2285C34.3668 83.1453 33.5236 85.0504 32.5125 86.6939C31.5013 88.3375 30.2638 89.899 29.6548 91.7377" fill="#E0E0E0"/>
<path d="M29.6431 92.4246C28.9053 90.2814 28.8311 87.5565 27.5467 85.6865C26.6488 84.3826 25.2044 83.4926 24.4236 82.1106C23.9582 83.4369 24.0239 84.8918 24.6071 86.1706C25.1893 87.4376 25.9931 88.5904 26.9807 89.5748C27.9332 90.5898 28.7452 91.3511 29.6314 92.4246" fill="#E0E0E0"/>
<path d="M29.6548 155.574C29.6001 155.574 29.5494 141.266 29.5455 123.62C29.5416 105.975 29.5845 91.6672 29.6431 91.6672C29.7016 91.6672 29.7485 105.971 29.7524 123.62C29.7563 141.27 29.7133 155.574 29.6548 155.574Z" fill="#E0E0E0"/>
<path d="M42.1589 112.729C41.9851 112.81 41.805 112.876 41.6202 112.928L40.1406 113.412C38.8914 113.837 37.1776 114.454 35.3154 115.215C33.4533 115.977 31.7356 116.648 30.744 117.507C30.3501 117.837 30.0364 118.252 29.8266 118.721C29.686 119.057 29.6587 119.264 29.6431 119.26C29.6275 119.256 29.6431 119.209 29.6431 119.107C29.6656 118.967 29.7009 118.828 29.7485 118.694C29.9359 118.194 30.2445 117.749 30.6464 117.398C31.2433 116.891 31.9115 116.475 32.6296 116.164C33.4103 115.797 34.3004 115.41 35.2335 115.024C37.0995 114.243 38.8289 113.665 40.0899 113.275C40.7223 113.076 41.2376 112.932 41.5929 112.838C41.7774 112.782 41.9671 112.746 42.1589 112.729Z" fill="#E0E0E0"/>
<path d="M46.258 102.661C46.2142 102.72 46.163 102.774 46.1058 102.821L45.6295 103.262L43.9157 104.824L38.2121 109.899C35.9869 111.882 34.0623 113.775 32.7467 115.2C32.0791 115.911 31.5521 116.5 31.1852 116.914L30.7948 117.379C30.7011 117.488 30.6464 117.542 30.6425 117.535C30.6386 117.527 30.6777 117.468 30.7635 117.351C30.8494 117.234 30.9783 117.066 31.1539 116.855C31.4936 116.426 32.005 115.821 32.6608 115.095C34.3857 113.212 36.2101 111.423 38.1263 109.735C40.3593 107.759 42.3932 105.983 43.8728 104.703L45.6295 103.192L46.1136 102.801C46.1561 102.749 46.2046 102.702 46.258 102.661Z" fill="#E0E0E0"/>
<path d="M35.823 111.905C35.7644 111.878 36.2329 110.804 36.6935 109.446C37.1542 108.087 37.3845 106.943 37.4431 106.951C37.3949 107.829 37.2078 108.693 36.8887 109.512C36.6917 110.099 36.461 110.674 36.1977 111.234C36.1076 111.475 35.9812 111.702 35.823 111.905Z" fill="#E0E0E0"/>
<path d="M29.6705 120.564C29.5418 120.447 29.4266 120.316 29.3269 120.174L28.4524 119.038C27.7146 118.085 26.6957 116.769 25.5519 115.325C24.408 113.881 23.354 112.592 22.5927 111.655L21.6948 110.543C21.5774 110.411 21.4728 110.269 21.3825 110.117C21.526 110.233 21.6568 110.364 21.7729 110.508C21.9993 110.754 22.3234 111.12 22.7216 111.577C23.5023 112.487 24.5837 113.767 25.7275 115.212C26.8714 116.656 27.8786 117.991 28.5852 118.967C28.9404 119.455 29.2254 119.853 29.4128 120.138C29.5097 120.273 29.5958 120.416 29.6705 120.564Z" fill="#E0E0E0"/>
<path d="M26.926 117.046C26.3743 116.433 25.9804 115.695 25.7783 114.895C25.5652 114.194 25.4767 113.461 25.5167 112.729H25.6104C25.5675 112.893 25.5401 112.979 25.5245 112.979C25.5089 112.979 25.5245 112.881 25.5245 112.713H25.6143C25.6615 113.427 25.7845 114.134 25.9813 114.821C26.2427 115.585 26.5584 116.328 26.926 117.046Z" fill="#E0E0E0"/>
<path d="M23.3774 112.593C23.1359 112.408 22.8739 112.252 22.5966 112.128C21.8756 111.913 21.1172 111.853 20.3714 111.952C19.6158 112.01 18.8663 112.13 18.1305 112.311C17.8285 112.405 17.5208 112.48 17.2092 112.534C17.4838 112.37 17.7811 112.248 18.0915 112.171C18.828 111.945 19.5875 111.802 20.3558 111.745C21.1296 111.642 21.9169 111.726 22.6512 111.991C22.954 112.104 23.2098 112.316 23.3774 112.593Z" fill="#E0E0E0"/>
<path d="M22.5497 111.514C22.5497 111.546 22.0813 111.327 21.32 111.065C20.3286 110.729 19.2992 110.518 18.2555 110.437C17.212 110.36 16.163 110.413 15.1324 110.593C14.3516 110.738 13.8636 110.886 13.8519 110.851C13.9531 110.79 14.0621 110.742 14.1759 110.71C14.4802 110.606 14.7905 110.52 15.105 110.453C17.1965 109.994 19.3765 110.159 21.3747 110.929C21.6751 111.041 21.9685 111.171 22.253 111.319C22.361 111.369 22.4609 111.435 22.5497 111.514Z" fill="#E0E0E0"/>
<path d="M29.6431 106.952C29.2757 105.931 28.9757 104.888 28.7452 103.828C28.4462 102.79 28.2141 101.734 28.0503 100.666C28.4153 101.687 28.714 102.73 28.9443 103.789C29.2433 104.828 29.4767 105.884 29.6431 106.952Z" fill="#E0E0E0"/>
<path d="M29.6977 106.951C29.4103 106.309 29.0789 105.686 28.7062 105.089C28.2868 104.525 27.7945 104.018 27.2422 103.582C27.4514 103.632 27.6456 103.731 27.8083 103.871C28.2238 104.175 28.5843 104.547 28.874 104.972C29.319 105.547 29.6032 106.23 29.6977 106.951Z" fill="#E0E0E0"/>
<path d="M29.6548 147.958C29.6314 147.958 29.5924 147.614 29.4284 147.005C29.1938 146.15 28.8747 145.321 28.4759 144.53C27.4843 142.508 25.6885 139.947 23.4008 137.382C22.2687 136.09 21.1717 134.868 20.2387 133.701C19.4011 132.673 18.6441 131.581 17.9744 130.437C17.5252 129.665 17.1438 128.855 16.8345 128.017C16.7291 127.716 16.651 127.486 16.6081 127.322C16.5807 127.242 16.5611 127.159 16.5495 127.076C16.5495 127.076 16.6744 127.404 16.9087 127.985C17.2447 128.808 17.6441 129.602 18.1033 130.363C18.7854 131.489 19.5486 132.564 20.387 133.58C21.324 134.751 22.4209 135.949 23.557 137.245C25.8486 139.818 27.6443 142.414 28.6047 144.464C28.9953 145.269 29.2976 146.115 29.5065 146.985C29.5614 147.223 29.6044 147.462 29.6353 147.704C29.6514 147.787 29.658 147.872 29.6548 147.958Z" fill="#E0E0E0"/>
<path d="M40.9448 135.196C40.7565 135.32 40.5595 135.431 40.3553 135.528C39.8191 135.829 39.3051 136.168 38.8172 136.543C38.0998 137.107 37.4276 137.727 36.8067 138.397C36.1001 139.143 35.3701 140.013 34.6284 140.942C33.141 142.808 31.7473 144.456 30.9158 145.779C30.4902 146.435 30.1818 146.986 29.9827 147.372C29.8881 147.579 29.7785 147.778 29.6548 147.969C29.6649 147.911 29.6833 147.854 29.7095 147.801C29.7563 147.696 29.8149 147.536 29.9086 147.337C30.1696 146.774 30.4642 146.228 30.7908 145.701C31.5989 144.35 32.9809 142.676 34.4644 140.813C35.21 139.88 35.9479 139.01 36.6701 138.264C37.3074 137.598 37.9995 136.987 38.7391 136.437C39.2393 136.071 39.7695 135.747 40.3241 135.469C40.5193 135.371 40.6794 135.309 40.7848 135.266C40.8356 135.237 40.8892 135.214 40.9448 135.196Z" fill="#E0E0E0"/>
<path d="M41.1752 139.338C40.7619 139.425 40.3433 139.485 39.922 139.517C38.9174 139.623 37.9244 139.819 36.9551 140.103C35.997 140.415 35.0982 140.886 34.2965 141.496C33.6836 141.969 33.3947 142.363 33.3674 142.34C33.3401 142.316 33.4182 142.226 33.5509 142.051C33.7473 141.807 33.967 141.584 34.2067 141.383C34.9982 140.722 35.9104 140.221 36.8926 139.908C37.8744 139.613 38.8871 139.433 39.9103 139.373C40.3298 139.32 40.7534 139.308 41.1752 139.338Z" fill="#E0E0E0"/>
<path d="M33.7344 141.883C33.668 141.848 34.2302 140.985 34.6674 139.825C35.1046 138.666 35.1749 137.631 35.2491 137.643C35.2883 137.865 35.2883 138.093 35.2491 138.315C35.1864 138.855 35.0633 139.387 34.8821 139.9C34.6929 140.407 34.4495 140.893 34.156 141.348C34.0469 141.549 33.9043 141.73 33.7344 141.883Z" fill="#E0E0E0"/>
<path d="M44.6106 124.081C44.549 124.126 44.4821 124.162 44.4115 124.19L43.8259 124.456C43.5682 124.565 43.252 124.706 42.9007 124.893C42.5493 125.08 42.1199 125.264 41.7061 125.522L41.0229 125.912C40.7848 126.049 40.5505 126.209 40.3046 126.365C39.801 126.673 39.2935 127.048 38.7431 127.431C37.5982 128.296 36.5191 129.244 35.5145 130.269C34.5238 131.308 33.6105 132.418 32.7818 133.591C32.4149 134.141 32.0557 134.661 31.7668 135.172C31.6224 135.43 31.4662 135.668 31.3413 135.91L30.9743 136.605C30.7323 137.042 30.5566 137.46 30.3888 137.823C30.2209 138.186 30.0843 138.498 29.9984 138.76C29.9125 139.021 29.8188 139.197 29.7524 139.353C29.7272 139.426 29.6931 139.495 29.6509 139.56C29.6646 139.485 29.6855 139.412 29.7134 139.341C29.768 139.177 29.8383 138.978 29.9242 138.728C30.0101 138.479 30.135 138.139 30.3146 137.776C30.4942 137.413 30.6386 136.995 30.8767 136.538L31.232 135.832C31.3569 135.59 31.5053 135.344 31.6536 135.086C31.9347 134.567 32.2899 134.044 32.653 133.486C34.2852 131.091 36.313 128.992 38.6494 127.278C39.1959 126.888 39.7073 126.521 40.2109 126.22C40.4647 126.068 40.7028 125.908 40.9409 125.775L41.6358 125.385C42.0731 125.135 42.4908 124.952 42.8499 124.78C43.2091 124.608 43.5292 124.475 43.7908 124.389L44.3959 124.159C44.4654 124.128 44.5372 124.102 44.6106 124.081Z" fill="#E0E0E0"/>
<path d="M35.6707 130.074C35.7533 129.784 35.9254 129.527 36.1626 129.34C36.7139 128.865 37.414 128.597 38.1419 128.583C38.8557 128.574 39.5643 128.707 40.2265 128.973C40.5047 129.064 40.7679 129.196 41.0073 129.364C40.7224 129.305 40.443 129.223 40.1719 129.118C39.5184 128.894 38.8324 128.781 38.1419 128.782C37.4562 128.796 36.7928 129.029 36.2485 129.446C36.0417 129.642 35.8487 129.852 35.6707 130.074Z" fill="#E0E0E0"/>
<path d="M34.3356 131.452C34.9344 130.301 35.09 128.97 34.7728 127.712C34.8892 127.869 34.968 128.051 35.0031 128.243C35.2405 129.162 35.1264 130.136 34.683 130.976C34.5073 131.303 34.3551 131.467 34.3356 131.452Z" fill="#E0E0E0"/>
<path d="M19.7741 150.007C20.0825 155.472 21.726 161.035 24.2636 166.657H35.2842C37.7007 161.09 39.2349 155.539 39.5082 150.007H19.7741Z" fill="#E0E0E0"/>
<path d="M37.7203 158.853C37.7203 158.912 34.0936 158.958 29.6197 158.958C25.1459 158.958 21.5153 158.912 21.5153 158.853C21.5153 158.794 25.142 158.751 29.6197 158.751C34.0975 158.751 37.7203 158.798 37.7203 158.853Z" fill="#FAFAFA"/>
<path d="M37.4743 160.836C37.4743 160.891 34.074 160.938 29.8773 160.938C25.6807 160.938 22.2804 160.891 22.2804 160.836C22.2804 160.782 25.6807 160.731 29.8773 160.731C34.074 160.731 37.4743 160.778 37.4743 160.836Z" fill="#FAFAFA"/>
<path d="M24.4431 153.598C24.5785 155.287 24.5785 156.984 24.4431 158.673C24.3026 156.984 24.3026 155.287 24.4431 153.598Z" fill="#FAFAFA"/>
<path d="M30.3458 153.598C30.4864 155.347 30.4864 157.104 30.3458 158.853C30.2105 157.104 30.2105 155.347 30.3458 153.598Z" fill="#FAFAFA"/>
<path d="M35.8893 153.552C36.0298 155.337 36.0298 157.13 35.8893 158.915C35.7539 157.13 35.7539 155.337 35.8893 153.552Z" fill="#FAFAFA"/>
<path d="M39.1569 153.598C39.1569 153.653 34.9017 153.7 29.6548 153.7C24.408 153.7 20.1489 153.653 20.1489 153.598C20.1489 153.543 24.4041 153.493 29.6548 153.493C34.9056 153.493 39.1569 153.54 39.1569 153.598Z" fill="#FAFAFA"/>
<path d="M256.642 93.9824L240.316 88.7004C239.775 88.5251 239.325 88.1421 239.066 87.6356C238.807 87.1291 238.759 86.5404 238.934 85.9989L246.246 63.4033C246.332 63.135 246.471 62.8864 246.653 62.6716C246.836 62.4569 247.059 62.2803 247.31 62.1519C247.561 62.0235 247.835 61.9459 248.116 61.9235C248.397 61.9011 248.679 61.9344 248.947 62.0213L259.3 65.3709L264.637 76.2236L259.339 92.6004C259.164 93.1408 258.782 93.5896 258.276 93.8486C257.77 94.1077 257.183 94.1557 256.642 93.9824Z" fill="#F5F5F5"/>
<path d="M259.3 65.3711L257.243 71.7305C257.081 72.2342 257.125 72.7818 257.365 73.2531C257.606 73.7244 258.024 74.081 258.527 74.2446L264.637 76.2239L259.3 65.3711Z" fill="#EBEBEB"/>
<path d="M255.959 71.0275C255.931 71.1095 254.221 70.6371 252.137 69.954C250.052 69.2708 248.381 68.6657 248.405 68.5837C248.428 68.5017 250.146 68.9741 252.23 69.6573C254.315 70.3404 255.986 70.9455 255.959 71.0275Z" fill="white"/>
<path d="M259.675 76.2001C259.648 76.2821 256.841 75.4467 253.429 74.338C250.017 73.2293 247.237 72.2611 247.265 72.1791C247.292 72.0972 250.091 72.9326 253.511 74.0413C256.931 75.15 259.699 76.1181 259.675 76.2001Z" fill="white"/>
<path d="M259.82 79.5656C259.796 79.6476 256.739 78.7302 252.999 77.52C249.26 76.3098 246.246 75.2636 246.273 75.1777C246.3 75.0918 249.353 76.0092 253.093 77.2233C256.833 78.4374 259.847 79.4837 259.82 79.5656Z" fill="white"/>
<path d="M258.906 82.396C258.879 82.478 255.822 81.5644 252.082 80.3542C248.342 79.144 245.328 78.0978 245.356 78.0119C245.383 77.926 248.436 78.8434 252.18 80.0536C255.923 81.2638 258.933 82.314 258.906 82.396Z" fill="white"/>
<path d="M258 85.2297C257.973 85.3117 254.92 84.3982 251.18 83.188C247.44 81.9778 244.427 80.9277 244.45 80.8457C244.473 80.7637 247.53 81.6811 251.274 82.8913C255.018 84.1015 258 85.1477 258 85.2297Z" fill="white"/>
<path d="M257.071 88.0642C257.048 88.1423 253.991 87.2288 250.251 86.0186C246.511 84.8083 243.497 83.7621 243.525 83.6762C243.552 83.5903 246.605 84.5077 250.345 85.718C254.085 86.9282 257.099 87.9822 257.071 88.0642Z" fill="white"/>
<path d="M211.205 153.899V167.032H230.408H251.586V153.899H211.205Z" fill="#F5F5F5"/>
<path d="M209.51 150.23V153.899H252.996V150.23H230.408H209.51Z" fill="#E0E0E0"/>
<path d="M231.255 167.032H251.586V153.899H252.996V150.23H230.408V153.56L231.255 167.032Z" fill="#E0E0E0"/>
<path d="M225.044 156.015H216.853V157.99H225.044V156.015Z" fill="#E0E0E0"/>
<path d="M226.316 160.465H215.799V164.638H226.316V160.465Z" fill="white"/>
<path d="M217.416 137.116V150.245H236.619H257.797V137.116H217.416Z" fill="#F5F5F5"/>
<path d="M215.721 133.443V137.116H259.21V133.443H236.619H215.721Z" fill="#E0E0E0"/>
<path d="M237.466 150.245H257.797V137.116H259.211V133.443H236.619V136.777L237.466 150.245Z" fill="#E0E0E0"/>
<path d="M231.255 139.232H223.065V141.208H231.255V139.232Z" fill="#E0E0E0"/>
<path d="M232.528 143.679H222.01V147.852H232.528V143.679Z" fill="white"/>
<path d="M258.137 166.641C258.137 166.7 203.014 166.743 135.036 166.743C67.0579 166.743 11.9195 166.7 11.9195 166.641C11.9195 166.582 67.0306 166.54 135.036 166.54C203.042 166.54 258.137 166.586 258.137 166.641Z" fill="#2489B0"/>
<path d="M255.451 126.01L243.993 120.861C243.918 120.827 243.835 120.815 243.754 120.827C243.673 120.839 243.596 120.874 243.534 120.928C243.472 120.981 243.427 121.052 243.404 121.131C243.381 121.21 243.381 121.293 243.404 121.372L246.843 133.404C246.862 133.474 246.899 133.538 246.949 133.59C247 133.642 247.063 133.68 247.132 133.701C247.202 133.722 247.275 133.725 247.346 133.71C247.417 133.695 247.483 133.662 247.538 133.615L249.548 131.889C249.635 131.815 249.748 131.778 249.862 131.787C249.977 131.796 250.083 131.849 250.157 131.936L254.99 137.569C255.066 137.655 255.171 137.708 255.285 137.717C255.399 137.726 255.512 137.689 255.599 137.616L258.191 135.391C258.277 135.316 258.33 135.21 258.339 135.096C258.348 134.982 258.312 134.87 258.238 134.782L253.401 129.149C253.364 129.106 253.336 129.056 253.318 129.002C253.3 128.948 253.293 128.891 253.298 128.834C253.302 128.778 253.318 128.723 253.343 128.672C253.369 128.621 253.405 128.576 253.448 128.54L255.556 126.732C255.611 126.685 255.653 126.624 255.679 126.556C255.704 126.488 255.712 126.414 255.701 126.342C255.691 126.27 255.662 126.202 255.619 126.144C255.575 126.086 255.517 126.04 255.451 126.01Z" fill="#2489B0"/>
<path d="M240.921 118.651C240.878 118.686 239.359 117.089 237.563 115.048C235.768 113.006 234.319 111.343 234.358 111.304C234.397 111.265 235.92 112.865 237.716 114.911C239.511 116.957 240.96 118.612 240.921 118.651Z" fill="#2489B0"/>
<path d="M241.604 110.769C241.73 111.072 241.828 111.386 241.897 111.706C242.076 112.362 242.287 113.131 242.517 113.986C242.748 114.841 242.97 115.606 243.15 116.258C243.258 116.567 243.334 116.886 243.376 117.211C243.224 116.921 243.102 116.616 243.013 116.301C242.818 115.727 242.568 114.931 242.322 114.037C242.076 113.143 241.881 112.335 241.76 111.741C241.672 111.424 241.62 111.098 241.604 110.769Z" fill="#2489B0"/>
<path d="M239.293 121.099C238.359 121.106 237.427 121.048 236.502 120.923C235.569 120.863 234.643 120.732 233.73 120.532C235.595 120.582 237.454 120.767 239.293 121.087V121.099Z" fill="#2489B0"/>
<path d="M240.269 123.386C239.325 124.503 238.279 125.53 237.146 126.455C238.087 125.336 239.133 124.308 240.269 123.386Z" fill="#2489B0"/>
<path d="M248.194 114.45C247.531 115.785 246.697 117.027 245.711 118.144C246.476 116.871 247.304 115.639 248.194 114.45Z" fill="#2489B0"/>
<path d="M25.3918 54.5452L6.69222 48.4942C6.07523 48.2899 5.56439 47.8493 5.27169 47.269C4.97898 46.6887 4.92827 46.0161 5.13067 45.3984L13.5045 19.5158C13.6037 19.2085 13.7625 18.9238 13.9718 18.678C14.1811 18.4321 14.4369 18.23 14.7245 18.0831C15.012 17.9363 15.3257 17.8476 15.6476 17.8221C15.9694 17.7966 16.2932 17.8349 16.6003 17.9347L28.4524 21.7722L34.5737 34.2021L28.5032 52.9603C28.4041 53.2694 28.2447 53.5558 28.0344 53.803C27.824 54.0502 27.5668 54.2534 27.2776 54.4007C26.9883 54.5481 26.6728 54.6367 26.3491 54.6615C26.0255 54.6863 25.7001 54.6468 25.3918 54.5452Z" fill="#2489B0"/>
<path d="M28.4525 21.772L26.1101 29.0527C26.0171 29.3385 25.9813 29.6398 26.005 29.9395C26.0286 30.2391 26.1112 30.5311 26.2479 30.7988C26.3846 31.0664 26.5728 31.3045 26.8018 31.4992C27.0307 31.694 27.2958 31.8417 27.5819 31.9338L34.5854 34.2019L28.4525 21.772Z" fill="#2489B0"/>
<g opacity="0.2">
<path d="M25.9695 29.7244C25.9695 29.7244 25.3059 31.4616 27.1407 32.6913C27.211 32.7382 27.2851 32.7811 27.3554 32.8201C28.2182 33.2808 33.8905 36.2985 33.9373 36.158L34.5698 34.206L27.5545 31.934C27.5545 31.934 25.8251 31.3093 25.9695 29.7244Z" fill="#4CCCC5"/>
</g>
<g opacity="0.3">
<path d="M28.4525 21.772L26.1101 29.0527C26.0171 29.3385 25.9813 29.6398 26.005 29.9395C26.0286 30.2391 26.1112 30.5311 26.2479 30.7988C26.3846 31.0664 26.5728 31.3045 26.8018 31.4992C27.0307 31.694 27.2958 31.8417 27.5819 31.9338L34.5854 34.2019L28.4525 21.772Z" fill="white"/>
</g>
<path d="M24.611 28.2484C24.5797 28.3421 22.62 27.7917 20.2308 27.0187C17.8416 26.2457 15.9366 25.547 15.96 25.4572C15.9834 25.3674 17.951 25.9139 20.3401 26.6869C22.7293 27.4599 24.6422 28.1547 24.611 28.2484Z" fill="#FAFAFA"/>
<path d="M28.8662 34.163C28.835 34.2567 25.6221 33.3041 21.6909 32.0315C17.7597 30.7588 14.5976 29.654 14.6288 29.5603C14.66 29.4666 17.869 30.4192 21.8002 31.6918C25.7314 32.9645 28.8975 34.081 28.8662 34.163Z" fill="#FAFAFA"/>
<path d="M29.0341 38.0315C29.0067 38.1252 25.5206 37.0751 21.2263 35.6892C16.932 34.3033 13.4849 33.1009 13.5161 32.9916C13.5474 32.8823 17.0296 33.9481 21.3239 35.3339C25.6182 36.7198 29.0653 37.9378 29.0341 38.0315Z" fill="#FAFAFA"/>
<path d="M27.984 41.2757C27.9566 41.3694 24.4705 40.3193 20.1762 38.9334C15.8819 37.5475 12.4465 36.349 12.466 36.2553C12.4856 36.1617 15.9795 37.2079 20.2738 38.5977C24.5681 39.9874 28.0152 41.1898 27.984 41.2757Z" fill="#FAFAFA"/>
<path d="M26.9377 44.5199C26.9065 44.6136 23.4047 43.5634 19.13 42.1775C14.8552 40.7917 11.3925 39.5932 11.4237 39.4995C11.4549 39.4058 14.9372 40.452 19.2315 41.8418C23.5257 43.2316 26.965 44.4262 26.9377 44.5199Z" fill="#FAFAFA"/>
<path d="M25.8876 47.7636C25.8564 47.8573 22.3741 46.8111 18.0798 45.4213C13.7856 44.0315 10.3345 42.8369 10.3658 42.7511C10.397 42.6652 13.8793 43.7036 18.1735 45.0934C22.4678 46.4832 25.9149 47.6699 25.8876 47.7636Z" fill="#FAFAFA"/>
<path d="M252.258 30.8056L231.844 34.9906C231.368 35.0873 230.873 34.9913 230.468 34.7234C230.062 34.4555 229.779 34.0378 229.682 33.5617L224.06 6.07454C224.012 5.83897 224.01 5.59614 224.055 5.35994C224.101 5.12374 224.192 4.8988 224.324 4.69795C224.457 4.49711 224.627 4.3243 224.827 4.18941C225.026 4.05452 225.249 3.96018 225.485 3.91179L239.75 0.97998L249.264 7.07393L253.683 28.635C253.733 28.8712 253.736 29.115 253.691 29.3523C253.647 29.5896 253.555 29.8157 253.423 30.0175C253.29 30.2193 253.119 30.3929 252.919 30.5282C252.719 30.6634 252.494 30.7577 252.258 30.8056Z" fill="#2489B0"/>
<path d="M239.738 0.921143L240.858 6.38657C240.923 6.70819 241.051 7.01387 241.234 7.28612C241.417 7.55837 241.652 7.79184 241.925 7.97315C242.199 8.15446 242.505 8.28006 242.827 8.34276C243.149 8.40545 243.48 8.404 243.802 8.33851L249.267 7.09317L239.738 0.921143Z" fill="#2489B0"/>
<path d="M248.084 26.0035C248.056 25.9194 248.034 25.8333 248.018 25.7458C247.979 25.5663 247.924 25.3281 247.858 25.0236C247.717 24.3756 247.518 23.4621 247.269 22.2909L245.227 12.6288L245.36 12.7186L231.454 15.5997C231.431 15.6309 231.645 15.303 231.555 15.4435V15.4669V15.4943V15.5528L231.579 15.666L231.626 15.8964L231.719 16.3492C231.782 16.6537 231.84 16.9582 231.903 17.2588C232.028 17.86 232.149 18.4534 232.27 19.0429L233.015 22.5056C233.472 24.7543 233.902 26.878 234.3 28.8338L234.163 28.744L244.204 26.7452L247.054 26.1909L247.811 26.0503C247.901 26.0306 247.993 26.0163 248.084 26.0074C248.005 26.0334 247.924 26.0542 247.842 26.0699L247.108 26.2338L244.298 26.8389L234.187 28.9704L234.073 28.9939L234.05 28.8807C233.66 26.9287 233.207 24.805 232.742 22.5564C232.508 21.436 232.27 20.2804 232.028 19.1014C231.907 18.512 231.786 17.9303 231.661 17.3135L231.473 16.4078L231.38 15.951L231.333 15.7246L231.309 15.6075V15.5528V15.5021C231.216 15.6387 231.431 15.3108 231.411 15.342L245.332 12.5078L245.442 12.4844L245.465 12.5976L247.417 22.3573C247.643 23.5284 247.807 24.4224 247.944 25.0666C247.999 25.3633 248.042 25.5975 248.077 25.7732C248.084 25.8497 248.086 25.9266 248.084 26.0035Z" fill="white"/>
<path d="M241.026 27.6163C240.952 27.6163 240.281 24.6454 239.523 20.9484C238.766 17.2515 238.208 14.2533 238.282 14.2299C238.356 14.2064 239.024 17.1968 239.781 20.8977C240.538 24.5986 241.097 27.6006 241.026 27.6163Z" fill="white"/>
<path d="M247.358 22.7325C247.358 22.8027 244.235 23.5132 240.398 24.294C236.56 25.0748 233.406 25.6682 233.406 25.5979C233.406 25.5276 236.51 24.8171 240.367 24.0364C244.224 23.2556 247.343 22.6622 247.358 22.7325Z" fill="white"/>
<path d="M246.816 19.2847C246.816 19.3589 243.716 20.0655 239.859 20.8463C236.002 21.627 232.863 22.2243 232.832 22.1502C232.801 22.076 235.932 21.3694 239.789 20.5886C243.646 19.8078 246.8 19.2144 246.816 19.2847Z" fill="white"/>
<path d="M246.011 15.8967C246.011 15.967 242.935 16.6775 239.106 17.4583C235.276 18.2391 232.161 18.8207 232.149 18.7505C232.137 18.6802 235.225 17.9697 239.051 17.1889C242.877 16.4081 245.996 15.8148 246.011 15.8967Z" fill="white"/>
<g opacity="0.3">
<path d="M239.738 0.921143L240.858 6.38657C240.923 6.70819 241.051 7.01387 241.234 7.28612C241.417 7.55837 241.652 7.79184 241.925 7.97315C242.199 8.15446 242.505 8.28006 242.827 8.34276C243.149 8.40545 243.48 8.404 243.802 8.33851L249.267 7.09317L239.738 0.921143Z" fill="white"/>
</g>
<path d="M220.238 16.1077H49.8183C49.1197 16.1072 48.4279 16.2443 47.7824 16.5113C47.1368 16.7783 46.5502 17.1698 46.0561 17.6636C45.5619 18.1574 45.1699 18.7437 44.9025 19.3891C44.635 20.0344 44.4973 20.7262 44.4973 21.4247V141.801C44.4973 142.499 44.635 143.191 44.9025 143.836C45.1699 144.482 45.5619 145.068 46.0561 145.562C46.5502 146.056 47.1368 146.447 47.7824 146.714C48.4279 146.981 49.1197 147.118 49.8183 147.118H115.224C115.224 147.118 119.385 160.001 106.487 166.637H167.649C167.649 166.637 153.084 161.648 156.827 147.118H220.238C220.937 147.118 221.629 146.981 222.274 146.714C222.92 146.447 223.506 146.056 224 145.562C224.495 145.068 224.887 144.482 225.154 143.836C225.421 143.191 225.559 142.499 225.559 141.801V21.4286C225.559 20.0174 224.998 18.664 224.001 17.6661C223.003 16.6683 221.649 16.1077 220.238 16.1077Z" fill="#005D81"/>
<path d="M137.304 134.461C139.623 137.772 135.993 141.402 132.678 139.083C132.568 139.005 132.472 138.908 132.393 138.798C130.082 135.484 133.705 131.861 137.019 134.176C137.13 134.254 137.226 134.35 137.304 134.461Z" fill="#2489B0"/>
<path d="M51.2159 18.3135H218.841C219.845 18.3135 220.808 18.7124 221.518 19.4226C222.228 20.1327 222.627 21.0959 222.627 22.1002V125.1H47.4331V22.0963C47.4341 21.0934 47.833 20.1318 48.5422 19.4226C49.2514 18.7134 50.213 18.3145 51.2159 18.3135Z" fill="white"/>
<path d="M51.0051 18.3135H219.692C220.47 18.3135 221.217 18.6228 221.767 19.1733C222.318 19.7239 222.627 20.4706 222.627 21.2492V27.187H47.4331V21.8855C47.4331 20.9382 47.8094 20.0296 48.4793 19.3597C49.1492 18.6898 50.0578 18.3135 51.0051 18.3135Z" fill="#EBEBEB"/>
<path d="M53.0117 24.1655C53.6909 24.1655 54.2415 23.6149 54.2415 22.9358C54.2415 22.2566 53.6909 21.7061 53.0117 21.7061C52.3326 21.7061 51.782 22.2566 51.782 22.9358C51.782 23.6149 52.3326 24.1655 53.0117 24.1655Z" fill="#E0E0E0"/>
<path d="M56.6813 24.1655C57.3605 24.1655 57.9111 23.6149 57.9111 22.9358C57.9111 22.2566 57.3605 21.7061 56.6813 21.7061C56.0022 21.7061 55.4516 22.2566 55.4516 22.9358C55.4516 23.6149 56.0022 24.1655 56.6813 24.1655Z" fill="#E0E0E0"/>
<path d="M60.1675 24.1655C60.8467 24.1655 61.3972 23.6149 61.3972 22.9358C61.3972 22.2566 60.8467 21.7061 60.1675 21.7061C59.4884 21.7061 58.9378 22.2566 58.9378 22.9358C58.9378 23.6149 59.4884 24.1655 60.1675 24.1655Z" fill="#E0E0E0"/>
<path d="M189.772 147.137C189.772 147.192 165.517 147.239 135.61 147.239C105.702 147.239 81.4475 147.192 81.4475 147.137C81.4475 147.083 105.691 147.036 135.61 147.036C165.529 147.036 189.772 147.079 189.772 147.137Z" fill="#2489B0"/>
<path d="M238.664 44.3643H193.399C190.848 44.3643 188.781 46.4319 188.781 48.9825V97.6326C188.781 100.183 190.848 102.251 193.399 102.251H238.664C241.215 102.251 243.283 100.183 243.283 97.6326V48.9825C243.283 46.4319 241.215 44.3643 238.664 44.3643Z" fill="#F5F5F5"/>
<path d="M240.823 101.836V49.5791H243.283V98.116C243.287 100.025 241.339 101.989 240.823 101.836Z" fill="white"/>
<path d="M193.438 44.3643H238.629C239.864 44.3643 241.049 44.8549 241.922 45.7284C242.796 46.6018 243.287 47.7864 243.287 49.0216V49.5798H188.781V49.0216C188.781 47.7864 189.271 46.6018 190.145 45.7284C191.018 44.8549 192.203 44.3643 193.438 44.3643Z" fill="#E0E0E0"/>
<path d="M243.287 56.4582C243.287 55.7791 242.736 55.2285 242.057 55.2285C241.378 55.2285 240.827 55.7791 240.827 56.4582V63.3525C240.827 64.0316 241.378 64.5822 242.057 64.5822C242.736 64.5822 243.287 64.0316 243.287 63.3525V56.4582Z" fill="#E0E0E0"/>
<path d="M238.481 102.251C238.528 102.248 238.575 102.248 238.621 102.251C238.715 102.251 238.856 102.251 239.039 102.216C240.039 102.093 240.975 101.66 241.715 100.977C242.456 100.294 242.963 99.396 243.166 98.4093C243.259 97.7711 243.291 97.1252 243.259 96.4808C243.259 91.0154 243.24 83.0749 243.228 73.2801C243.228 68.3846 243.228 63.0168 243.228 57.2742V52.8667C243.228 52.1211 243.228 51.3715 243.228 50.6181C243.256 49.8625 243.231 49.1059 243.154 48.3538C243.02 47.5991 242.705 46.8882 242.235 46.2828C241.765 45.6774 241.154 45.1957 240.456 44.8794C239.739 44.5613 238.956 44.4169 238.173 44.4578H235.748H193.614C193.155 44.4632 192.7 44.5302 192.259 44.6569C191.383 44.9191 190.602 45.4321 190.014 46.1325C189.423 46.8244 189.051 47.6764 188.945 48.5803C188.905 49.0332 188.89 49.4881 188.902 49.9427V63.4423C188.902 70.4888 188.902 77.2894 188.902 83.7659C188.902 87.0035 188.902 90.1578 188.902 93.2289C188.902 94.7592 188.902 96.2817 188.902 97.7574C188.95 98.4774 189.161 99.177 189.52 99.8028C189.88 100.429 190.377 100.964 190.975 101.368C191.563 101.757 192.229 102.011 192.927 102.114C193.621 102.171 194.318 102.19 195.015 102.169H199.106H206.793L229.994 102.2L236.303 102.22L229.994 102.239L206.793 102.27H199.106H194.996C194.291 102.291 193.586 102.273 192.884 102.216C192.162 102.106 191.473 101.84 190.865 101.435C190.245 101.017 189.728 100.463 189.355 99.8145C188.981 99.1663 188.761 98.4413 188.71 97.6949C188.679 96.1958 188.71 94.6928 188.71 93.1547C188.71 90.0863 188.71 86.9319 188.71 83.6917C188.71 77.2152 188.71 70.4185 188.71 63.3681V52.691C188.71 51.7775 188.71 50.8679 188.71 49.9583C188.7 49.4946 188.714 49.0307 188.753 48.5686C188.818 48.1007 188.95 47.6445 189.144 47.2139C189.335 46.7816 189.586 46.3782 189.889 46.0154C190.198 45.6558 190.554 45.3393 190.947 45.0746C191.347 44.8171 191.781 44.6161 192.236 44.4773C192.694 44.3458 193.168 44.2762 193.645 44.2704H235.779H238.192C238.996 44.2342 239.798 44.3852 240.534 44.7115C241.259 45.0405 241.893 45.5412 242.381 46.1705C242.869 46.7997 243.196 47.5385 243.333 48.3226C243.395 48.7098 243.421 49.1018 243.412 49.4938V50.6337C243.412 51.3872 243.412 52.1367 243.412 52.8823V57.2742C243.412 63.0324 243.412 68.4002 243.412 73.2801C243.412 83.0749 243.388 90.9998 243.38 96.4808C243.412 97.1332 243.378 97.7872 243.279 98.4328C243.157 98.987 242.939 99.5156 242.635 99.9943C242.25 100.608 241.732 101.127 241.119 101.512C240.506 101.897 239.813 102.139 239.094 102.22C238.672 102.255 238.481 102.251 238.481 102.251Z" fill="#2489B0"/>
<path d="M238.262 52.1406H192.228V96.676H238.262V52.1406Z" fill="#005D81"/>
<g opacity="0.3">
<path d="M223.385 65.4882C223.385 66.1439 223.192 66.7851 222.828 67.3307C222.464 67.8762 221.947 68.3016 221.341 68.5531C220.736 68.8046 220.069 68.8708 219.426 68.7433C218.783 68.6159 218.192 68.3005 217.728 67.8371C217.264 67.3738 216.948 66.7832 216.82 66.1402C216.692 65.4971 216.757 64.8305 217.008 64.2247C217.259 63.6188 217.683 63.1009 218.229 62.7366C218.774 62.3722 219.415 62.1777 220.07 62.1777C220.949 62.1777 221.791 62.5264 222.413 63.1471C223.034 63.7678 223.384 64.6099 223.385 65.4882Z" fill="#4CCCC5"/>
</g>
<g opacity="0.3">
<path d="M234.706 55.6347L195.812 55.6034C195.854 55.5566 195.394 56.0212 195.589 55.8299V60.8698C195.589 62.5406 195.589 64.1933 195.589 65.8277C195.589 69.1017 195.589 72.3016 195.589 75.4273C195.589 81.6735 195.589 87.5606 195.612 92.9948V93.19H195.804L224.048 93.0924L231.934 93.0416L234.003 93.0182H234.526H234.698L225.27 76.8561L218.962 84.5936L208.542 69.9463L196.015 92.7761C196.015 87.4083 196.015 81.5798 196.015 75.4195C196.015 72.2964 196.015 69.0965 196.015 65.8199C196.015 64.1855 196.015 62.5328 196.015 60.862V56.0251L234.503 55.9938C234.542 67.0301 234.573 76.2276 234.597 82.6963C234.62 85.9405 234.636 88.4936 234.647 90.2582C234.647 91.1209 234.647 91.7885 234.647 92.2647C234.647 92.4795 234.647 92.6551 234.647 92.784C234.643 92.845 234.643 92.9064 234.647 92.9674C234.654 92.913 234.654 92.858 234.647 92.8035C234.647 92.6747 234.647 92.5146 234.647 92.3038C234.647 91.8392 234.647 91.1834 234.671 90.3518C234.671 88.5951 234.698 86.0576 234.718 82.833C234.741 76.2979 234.776 66.991 234.815 55.8221V55.6347H234.706Z" fill="#4CCCC5"/>
</g>
<path d="M193.727 48.0999C194.262 48.0999 194.695 47.6857 194.695 47.1747C194.695 46.6637 194.262 46.2495 193.727 46.2495C193.192 46.2495 192.759 46.6637 192.759 47.1747C192.759 47.6857 193.192 48.0999 193.727 48.0999Z" fill="white"/>
<path d="M196.635 48.0999C197.17 48.0999 197.603 47.6857 197.603 47.1747C197.603 46.6637 197.17 46.2495 196.635 46.2495C196.101 46.2495 195.667 46.6637 195.667 47.1747C195.667 47.6857 196.101 48.0999 196.635 48.0999Z" fill="white"/>
<path d="M199.571 48.0999C200.106 48.0999 200.539 47.6857 200.539 47.1747C200.539 46.6637 200.106 46.2495 199.571 46.2495C199.036 46.2495 198.603 46.6637 198.603 47.1747C198.603 47.6857 199.036 48.0999 199.571 48.0999Z" fill="white"/>
<path d="M76.1305 44.3835H37.9662C36.5367 44.3835 35.3779 45.5424 35.3779 46.9718V101.65C35.3779 103.079 36.5367 104.238 37.9662 104.238H76.1305C77.5599 104.238 78.7187 103.079 78.7187 101.65V46.9718C78.7187 45.5424 77.5599 44.3835 76.1305 44.3835Z" fill="#F5F5F5"/>
<path d="M38.3683 44.3835H75.7323C76.5254 44.3835 77.286 44.6986 77.8468 45.2594C78.4076 45.8202 78.7227 46.5808 78.7227 47.3739V49.7787H35.3896V47.3739C35.3896 46.5828 35.7031 45.824 36.2613 45.2635C36.8196 44.7031 37.5772 44.3866 38.3683 44.3835Z" fill="#E0E0E0"/>
<path d="M38.1184 47.9438C38.5949 47.9438 38.9812 47.5575 38.9812 47.081C38.9812 46.6045 38.5949 46.2183 38.1184 46.2183C37.6419 46.2183 37.2556 46.6045 37.2556 47.081C37.2556 47.5575 37.6419 47.9438 38.1184 47.9438Z" fill="white"/>
<path d="M41.5656 47.081C41.5656 47.2517 41.515 47.4185 41.4202 47.5603C41.3254 47.7022 41.1906 47.8128 41.033 47.8781C40.8753 47.9434 40.7019 47.9605 40.5345 47.9272C40.3671 47.8939 40.2134 47.8117 40.0927 47.6911C39.9721 47.5704 39.8899 47.4167 39.8566 47.2493C39.8233 47.082 39.8404 46.9085 39.9057 46.7509C39.971 46.5932 40.0816 46.4585 40.2235 46.3637C40.3654 46.2689 40.5322 46.2183 40.7028 46.2183C40.8163 46.2178 40.9287 46.2397 41.0336 46.2829C41.1385 46.3261 41.2338 46.3896 41.314 46.4698C41.3942 46.55 41.4578 46.6453 41.5009 46.7503C41.5441 46.8552 41.5661 46.9676 41.5656 47.081Z" fill="white"/>
<path d="M43.3145 47.9438C43.791 47.9438 44.1772 47.5575 44.1772 47.081C44.1772 46.6045 43.791 46.2183 43.3145 46.2183C42.838 46.2183 42.4517 46.6045 42.4517 47.081C42.4517 47.5575 42.838 47.9438 43.3145 47.9438Z" fill="white"/>
<path d="M76.7668 49.7788H37.3338V103.051H76.7668V49.7788Z" fill="white"/>
<path d="M77.7427 65.289C77.4839 65.289 77.2356 65.1862 77.0526 65.0032C76.8696 64.8202 76.7668 64.5719 76.7668 64.3131V56.599C76.7662 56.4705 76.7911 56.3432 76.8399 56.2243C76.8887 56.1055 76.9606 55.9974 77.0512 55.9064C77.1419 55.8153 77.2497 55.7431 77.3683 55.6938C77.487 55.6445 77.6142 55.6191 77.7427 55.6191C78.0026 55.6191 78.2518 55.7224 78.4356 55.9061C78.6194 56.0899 78.7226 56.3391 78.7226 56.599V64.3131C78.7226 64.4416 78.6972 64.5688 78.6479 64.6875C78.5987 64.8061 78.5264 64.9139 78.4354 65.0046C78.3443 65.0952 78.2363 65.1671 78.1174 65.2159C77.9986 65.2647 77.8712 65.2896 77.7427 65.289Z" fill="#E0E0E0"/>
<path d="M73.9169 104.237C74.5908 104.221 75.2546 104.07 75.8689 103.792C76.6161 103.454 77.263 102.928 77.7466 102.266C78.0578 101.846 78.2966 101.378 78.4532 100.88C78.6215 100.312 78.6966 99.7196 78.6758 99.1271C78.6758 94.0521 78.6758 86.7518 78.6406 77.7144C78.6406 73.1937 78.6406 68.2436 78.6406 62.9265C78.6406 60.2718 78.6406 57.5196 78.6406 54.6893C78.6406 53.2761 78.6406 51.8395 78.6406 50.395C78.6775 49.6686 78.6435 48.9404 78.5391 48.2206C78.3804 47.5083 78.0628 46.841 77.61 46.2686C77.1437 45.6879 76.5475 45.2249 75.8694 44.9171C75.1912 44.6092 74.4502 44.4651 73.7061 44.4963H39.352C38.9226 44.4963 38.4854 44.4963 38.0637 44.4963C37.4397 44.5181 36.843 44.7582 36.3779 45.1749C35.9127 45.5915 35.6086 46.1582 35.5184 46.7761C35.4863 47.1956 35.4759 47.6165 35.4872 48.0371V61.7592C35.4872 68.2631 35.4872 74.5366 35.4872 80.4978C35.4872 86.459 35.4872 92.1548 35.4872 97.4719V101.376C35.4991 101.993 35.7135 102.589 36.0972 103.072C36.4809 103.555 37.0127 103.899 37.6109 104.05C37.903 104.123 38.2041 104.153 38.5049 104.14H44.6535L66.0662 104.171L71.8869 104.19L66.0662 104.21L44.6535 104.245H38.4815C38.1676 104.258 37.8534 104.227 37.5484 104.151C36.9167 103.991 36.3549 103.629 35.9488 103.119C35.5427 102.609 35.3148 101.98 35.2998 101.329C35.2998 100.045 35.2998 98.7367 35.2998 97.425C35.2998 92.1079 35.2998 86.4278 35.2998 80.451C35.2998 74.4741 35.2998 68.2006 35.2998 61.7124C35.2998 58.4565 35.2998 55.1487 35.2998 51.7887V47.9902C35.2884 47.5605 35.3001 47.1305 35.3349 46.702C35.3996 46.2624 35.565 45.8437 35.8183 45.4787C36.0716 45.1137 36.4059 44.8122 36.795 44.5978C37.188 44.3845 37.6247 44.2643 38.0716 44.2464C38.5088 44.2464 38.9343 44.2464 39.3676 44.2464H73.7217C74.4945 44.2163 75.2635 44.3676 75.9672 44.6883C76.6709 45.009 77.2897 45.49 77.774 46.093C78.2441 46.6909 78.5724 47.3876 78.7343 48.1308C78.7656 48.3143 78.7968 48.4978 78.8163 48.6851C78.8358 48.8725 78.8397 49.0755 78.8397 49.2434V54.6464C78.8397 57.4767 78.8397 60.2289 78.8397 62.8835C78.8397 68.2006 78.8397 73.1507 78.8397 77.6714C78.8397 86.7089 78.8163 94.0247 78.8085 99.0842C78.8272 99.685 78.7481 100.285 78.5743 100.86C78.3628 101.504 78.0197 102.097 77.5667 102.601C77.1137 103.105 76.5608 103.51 75.943 103.788C75.4781 103.993 74.9843 104.125 74.4791 104.179C74.0926 104.237 73.9169 104.237 73.9169 104.237Z" fill="#2489B0"/>
<path d="M51.2159 71.1835C51.2159 71.2382 49.0453 71.285 46.3712 71.285C43.697 71.285 41.5265 71.2382 41.5265 71.1835C41.5265 71.1289 43.6931 71.082 46.3712 71.082C49.0492 71.082 51.2159 71.1289 51.2159 71.1835Z" fill="#2489B0"/>
<path d="M49.1039 73.9826C47.8443 74.0832 46.5803 74.1171 45.3171 74.0841C44.0527 74.1171 42.7874 74.0832 41.5265 73.9826C42.7874 73.882 44.0527 73.8481 45.3171 73.8811C46.5803 73.8482 47.8443 73.882 49.1039 73.9826Z" fill="#2489B0"/>
<path d="M49.9706 77.1567C49.9706 77.2152 48.0811 77.2582 45.7505 77.2582C43.4199 77.2582 41.5265 77.2152 41.5265 77.1567C41.5265 77.0981 43.4159 77.0552 45.7505 77.0552C48.085 77.0552 49.9706 77.1059 49.9706 77.1567Z" fill="#2489B0"/>
<path d="M51.2159 79.9633C51.2159 80.0219 49.0453 80.0648 46.3712 80.0648C43.697 80.0648 41.5265 80.0219 41.5265 79.9633C41.5265 79.9048 43.6931 79.8618 46.3712 79.8618C49.0492 79.8618 51.2159 79.9087 51.2159 79.9633Z" fill="#2489B0"/>
<path d="M49.1039 83.1338C47.8443 83.2344 46.5803 83.2683 45.3171 83.2353C44.0527 83.2683 42.7874 83.2345 41.5265 83.1338C42.7872 83.0309 44.0527 82.997 45.3171 83.0323C46.5803 82.997 47.8444 83.0309 49.1039 83.1338Z" fill="#2489B0"/>
<path d="M47.9718 85.9399C46.8988 86.0405 45.8205 86.0744 44.7433 86.0414C43.6661 86.0744 42.5878 86.0405 41.5148 85.9399C42.5875 85.8345 43.666 85.7993 44.7433 85.8345C45.8206 85.7993 46.8991 85.8345 47.9718 85.9399Z" fill="#2489B0"/>
<path d="M70.6143 67.5493C70.6143 67.6039 63.8566 67.6508 55.5219 67.6508C47.1871 67.6508 40.4295 67.6039 40.4295 67.5493C40.4295 67.4946 47.1832 67.4478 55.5219 67.4478C63.8606 67.4478 70.6143 67.4907 70.6143 67.5493Z" fill="#2489B0"/>
<path d="M57.5089 91.4718C57.4543 91.4718 57.4074 84.8743 57.4074 76.7347C57.4074 68.5951 57.4543 61.9937 57.5089 61.9937C57.5636 61.9937 57.6104 68.5912 57.6104 76.7347C57.6104 84.8782 57.5675 91.4718 57.5089 91.4718Z" fill="#2489B0"/>
<path d="M64.0675 91.4718C64.0128 91.4718 63.966 84.8743 63.966 76.7347C63.966 68.5951 64.0128 61.9937 64.0675 61.9937C64.1221 61.9937 64.169 68.5912 64.169 76.7347C64.169 84.8782 64.126 91.4718 64.0675 91.4718Z" fill="#2489B0"/>
<path d="M70.6143 91.4718C70.5557 91.4718 70.5128 84.8743 70.5128 76.7347C70.5128 68.5951 70.5557 61.9937 70.6143 61.9937C70.6729 61.9937 70.7158 68.5912 70.7158 76.7347C70.7158 84.8782 70.665 91.4718 70.6143 91.4718Z" fill="#2489B0"/>
<path d="M53.16 64.5666C53.16 64.6252 50.5913 64.6681 47.4213 64.6681C44.2514 64.6681 41.6826 64.6252 41.6826 64.5666C41.6826 64.508 44.2514 64.4651 47.4213 64.4651C50.5913 64.4651 53.16 64.5119 53.16 64.5666Z" fill="#2489B0"/>
<path d="M62.4161 64.5669C61.8826 64.6692 61.3382 64.7033 60.796 64.6684C60.2552 64.7034 59.712 64.6693 59.1798 64.5669C59.7123 64.4668 60.2552 64.4327 60.796 64.4654C61.3382 64.4328 61.8823 64.4669 62.4161 64.5669Z" fill="#2489B0"/>
<path d="M69.1894 64.5666C68.6571 64.669 68.114 64.7031 67.5732 64.6681C67.0323 64.7031 66.4892 64.669 65.957 64.5666C67.0302 64.4313 68.1161 64.4313 69.1894 64.5666Z" fill="#2489B0"/>
<path d="M70.4113 89.0869C70.4113 89.1415 64.0714 89.1884 56.2558 89.1884C48.4403 89.1884 42.1043 89.1415 42.1043 89.0869C42.1043 89.0322 48.4403 88.9854 56.2558 88.9854C64.0714 88.9854 70.4113 89.0322 70.4113 89.0869Z" fill="#2489B0"/>
<path d="M68.272 90.3049C67.4329 90.4402 66.5775 90.4402 65.7384 90.3049C66.5775 90.1695 67.4329 90.1695 68.272 90.3049Z" fill="#2489B0"/>
<path d="M70.9734 92.4594C70.9734 92.518 67.0696 92.5609 62.2092 92.5609C57.3489 92.5609 53.445 92.518 53.445 92.4594C53.445 92.4009 57.3489 92.3579 62.2092 92.3579C67.0696 92.3579 70.9734 92.4048 70.9734 92.4594Z" fill="#2489B0"/>
<path d="M73.226 97.0978L72.9956 97.1212L72.332 97.1681L69.7984 97.3242L60.6711 97.8434H60.3471L60.6203 97.6717C61.7021 96.9985 62.939 96.6153 64.2119 96.5591C64.8914 96.5269 65.5721 96.59 66.2341 96.7465C66.5802 96.8191 66.9159 96.9345 67.2335 97.09C67.4046 97.1727 67.5553 97.2923 67.6748 97.4401C67.7942 97.5879 67.8795 97.7603 67.9245 97.9449C67.9863 98.3245 67.9201 98.7139 67.7363 99.0517C67.5526 99.3895 67.2617 99.6566 66.9095 99.811C66.2092 100.114 65.4446 100.239 64.6843 100.174C63.8984 100.158 63.1343 99.9126 62.4864 99.4675C62.1574 99.2298 61.8854 98.9219 61.6902 98.566C61.4951 98.2102 61.3816 97.8153 61.3582 97.4101C61.3616 97.0381 61.4559 96.6726 61.6328 96.3454C61.8097 96.0181 62.0639 95.739 62.3732 95.5324C62.9692 95.1308 63.669 94.9111 64.3876 94.8999C65.7465 94.8734 67.0972 95.1162 68.3617 95.6143C68.9652 95.8499 69.5466 96.1386 70.099 96.4771C70.392 96.6253 70.6502 96.8343 70.8563 97.09C70.9141 97.1618 70.9541 97.2463 70.9731 97.3365C70.9921 97.4267 70.9896 97.5202 70.9656 97.6092C70.9329 97.6978 70.8754 97.7751 70.7999 97.8318C70.7245 97.8886 70.6343 97.9224 70.5401 97.9293C70.2184 97.9275 69.9031 97.8399 69.6266 97.6756C69.3572 97.5467 69.0964 97.4007 68.8458 97.2383C68.3544 96.9266 67.9022 96.557 67.499 96.1374L67.6434 96.0516C67.6768 96.1535 67.6889 96.2612 67.6788 96.368C67.6687 96.4748 67.6367 96.5784 67.5849 96.6723C67.4868 96.8502 67.3442 96.9995 67.171 97.1056C67.0077 97.2118 66.8225 97.28 66.6292 97.305C66.436 97.33 66.2396 97.3112 66.0545 97.2501C65.713 97.1203 65.4086 96.9085 65.1684 96.6332C64.941 96.3775 64.7335 96.1047 64.5476 95.8173L64.6804 95.7549C64.7313 95.9561 64.7167 96.1683 64.6388 96.3606C64.5608 96.553 64.4236 96.7155 64.247 96.8245C64.0936 96.9389 63.9156 97.0158 63.7271 97.049C63.5387 97.0822 63.345 97.0709 63.1618 97.0158C62.8282 96.9056 62.5329 96.7024 62.3107 96.4302C62.1046 96.1853 61.9374 95.9101 61.8149 95.6143H61.9203C61.5495 96.5083 61.2333 97.2657 60.96 97.9137L60.917 98.0152L60.878 97.9137C60.5423 97.0236 60.2768 96.3522 60.0972 95.8642L59.902 95.3372C59.8773 95.2791 59.8577 95.219 59.8435 95.1576C59.8762 95.2116 59.9024 95.2692 59.9216 95.3293C59.9762 95.4543 60.0465 95.626 60.1402 95.8486L60.96 97.8825H60.878C61.1435 97.2305 61.4519 96.4654 61.8149 95.5675L61.8657 95.4426L61.9203 95.5675C62.029 95.8651 62.1992 96.1365 62.4198 96.3638C62.6405 96.5912 62.9066 96.7695 63.2008 96.887C63.3636 96.9338 63.535 96.9424 63.7016 96.9119C63.8682 96.8814 64.0255 96.8128 64.1612 96.7113C64.3138 96.6202 64.4338 96.4832 64.5039 96.3198C64.574 96.1565 64.5907 95.9751 64.5515 95.8017L64.3915 95.3137L64.6843 95.7353C65.0512 96.2624 65.4651 96.8675 66.117 97.0978C66.2793 97.1498 66.4512 97.1648 66.62 97.1419C66.7889 97.1189 66.9505 97.0585 67.093 96.9651C67.2428 96.8841 67.3621 96.7563 67.4326 96.6013C67.503 96.4462 67.5209 96.2724 67.4834 96.1062L67.3584 95.7432L67.6278 96.0203C68.0243 96.4261 68.4672 96.7838 68.9473 97.0861C69.1973 97.246 69.4582 97.3882 69.7281 97.5116C69.9733 97.6569 70.2513 97.7375 70.5362 97.7458C70.5963 97.7434 70.6544 97.7231 70.703 97.6877C70.7516 97.6523 70.7887 97.6032 70.8095 97.5467C70.8222 97.4852 70.8207 97.4216 70.8051 97.3607C70.7895 97.2998 70.7603 97.2433 70.7197 97.1954C70.5275 96.9644 70.2896 96.7757 70.0209 96.641C69.4771 96.3097 68.9049 96.0275 68.311 95.7978C67.0682 95.3109 65.7416 95.0735 64.4071 95.099C63.7274 95.1077 63.065 95.3153 62.502 95.6963C62.2188 95.8836 61.9857 96.1373 61.8231 96.4353C61.6604 96.7334 61.5732 97.0667 61.569 97.4062C61.5906 97.7805 61.6958 98.1452 61.8769 98.4735C62.0579 98.8019 62.3102 99.0854 62.6152 99.3035C63.232 99.7241 63.9574 99.9573 64.7038 99.975C65.4288 100.037 66.1579 99.9201 66.8275 99.6353C67.1352 99.4909 67.3933 99.2586 67.5692 98.9678C67.7406 98.6775 67.8003 98.3346 67.7371 98.0035C67.6976 97.8453 67.6236 97.6978 67.5203 97.5715C67.417 97.4453 67.2871 97.3435 67.1398 97.2735C66.837 97.1254 66.5171 97.0153 66.1873 96.9456C65.5486 96.7922 64.8915 96.7291 64.2353 96.7582C62.9917 96.807 61.7817 97.1754 60.7218 97.8278L60.6711 97.6756L69.8062 97.2305L72.3437 97.1173L73.0073 97.0939C73.0802 97.0913 73.1532 97.0926 73.226 97.0978Z" fill="#2489B0"/>
<path d="M71.6995 56.6342C71.6995 56.6889 64.9419 56.7357 56.6111 56.7357C48.2802 56.7357 41.5187 56.6889 41.5187 56.6342C41.5187 56.5796 48.2763 56.5327 56.6111 56.5327C64.9458 56.5327 71.6995 56.5757 71.6995 56.6342Z" fill="#2489B0"/>
<path d="M66.4176 54.5222C66.5662 54.5004 66.7164 54.4912 66.8665 54.4949V54.5495C65.6134 54.5924 61.3269 54.6237 56.2402 54.6237L48.4129 54.5924L46.0394 54.5612L45.3952 54.5417C45.3215 54.5528 45.2465 54.5528 45.1727 54.5417C45.2459 54.5267 45.3205 54.5201 45.3952 54.5222H46.0394L48.4129 54.4909L56.2402 54.4597C61.3152 54.4597 65.6095 54.4909 66.8665 54.5339V54.5885C66.7153 54.5793 66.5651 54.5571 66.4176 54.5222Z" fill="#2489B0"/>
<path d="M134.525 22.1465H77.5124C74.9618 22.1465 72.8941 24.2142 72.8941 26.7648V109.012C72.8941 111.562 74.9618 113.63 77.5124 113.63H134.525C137.075 113.63 139.143 111.562 139.143 109.012V26.7648C139.143 24.2142 137.075 22.1465 134.525 22.1465Z" fill="#F5F5F5"/>
<path d="M77.5514 22.1465H134.486C135.097 22.1465 135.703 22.267 136.268 22.501C136.833 22.7351 137.346 23.0781 137.779 23.5106C138.211 23.9431 138.554 24.4565 138.788 25.0215C139.022 25.5866 139.143 26.1922 139.143 26.8038V30.3876H72.8941V26.8038C72.8941 26.1922 73.0146 25.5866 73.2486 25.0215C73.4827 24.4565 73.8257 23.9431 74.2582 23.5106C74.6907 23.0781 75.2041 22.7351 75.7691 22.501C76.3342 22.267 76.9398 22.1465 77.5514 22.1465Z" fill="#E0E0E0"/>
<path d="M77.083 27.5814C77.8096 27.5814 78.3986 26.9924 78.3986 26.2658C78.3986 25.5392 77.8096 24.9502 77.083 24.9502C76.3564 24.9502 75.7674 25.5392 75.7674 26.2658C75.7674 26.9924 76.3564 27.5814 77.083 27.5814Z" fill="white"/>
<path d="M81.0337 27.5814C81.7603 27.5814 82.3493 26.9924 82.3493 26.2658C82.3493 25.5392 81.7603 24.9502 81.0337 24.9502C80.3071 24.9502 79.7181 25.5392 79.7181 26.2658C79.7181 26.9924 80.3071 27.5814 81.0337 27.5814Z" fill="white"/>
<path d="M85.0235 27.5814C85.7501 27.5814 86.3391 26.9924 86.3391 26.2658C86.3391 25.5392 85.7501 24.9502 85.0235 24.9502C84.2969 24.9502 83.7079 25.5392 83.7079 26.2658C83.7079 26.9924 84.2969 27.5814 85.0235 27.5814Z" fill="white"/>
<path d="M136.153 30.3879H75.8806V111.811H136.153V30.3879Z" fill="white"/>
<path d="M137.648 54.1004C137.451 54.1009 137.257 54.0626 137.075 53.9876C136.893 53.9127 136.728 53.8025 136.589 53.6636C136.45 53.5247 136.34 53.3596 136.265 53.178C136.19 52.9963 136.152 52.8017 136.153 52.6052V40.7999C136.153 40.4033 136.31 40.023 136.59 39.7426C136.871 39.4622 137.251 39.3047 137.648 39.3047C138.044 39.3057 138.424 39.4636 138.704 39.7438C138.984 40.0239 139.142 40.4036 139.143 40.7999V52.5935C139.144 52.7908 139.107 52.9865 139.032 53.1693C138.958 53.352 138.848 53.5182 138.709 53.6583C138.57 53.7984 138.405 53.9096 138.223 53.9855C138.04 54.0613 137.845 54.1004 137.648 54.1004Z" fill="#E0E0E0"/>
<path d="M134.337 113.631H134.536C134.734 113.626 134.932 113.603 135.126 113.565C135.891 113.437 136.613 113.122 137.226 112.647C137.727 112.265 138.147 111.788 138.462 111.244C138.778 110.699 138.982 110.097 139.065 109.473C139.108 109.085 139.122 108.693 139.108 108.302V107.049C139.108 106.19 139.108 105.273 139.108 104.316C139.108 96.5398 139.108 85.2927 139.077 71.3949C139.077 64.446 139.077 56.8335 139.077 48.6627C139.077 44.5792 139.077 40.3578 139.077 35.9985C139.077 33.8253 139.077 31.6131 139.077 29.3619V27.6754C139.1 27.1167 139.069 26.5571 138.983 26.0046C138.804 25.1744 138.407 24.4072 137.831 23.7825C137.256 23.1578 136.524 22.6984 135.711 22.452C135.163 22.2921 134.592 22.2235 134.021 22.249H77.7037C76.7282 22.2497 75.7769 22.5531 74.9811 23.1174C74.1854 23.6817 73.5844 24.4791 73.2611 25.3995C73.0574 26.0131 72.9675 26.6587 72.9956 27.3046V35.1123C72.9956 40.2784 72.9956 45.3639 72.9956 50.3687C72.9956 60.3665 72.9956 70.013 72.9956 79.2027C72.9956 88.3924 72.9956 97.1254 72.9956 105.296V108.337C72.9779 108.831 73.0119 109.326 73.0971 109.813C73.1998 110.29 73.3749 110.748 73.6163 111.172C73.8517 111.593 74.1536 111.974 74.5103 112.3C75.2135 112.949 76.0967 113.371 77.044 113.51C77.5144 113.562 77.988 113.58 78.4611 113.565H89.3685L122.286 113.596L131.238 113.615L122.286 113.635L89.3685 113.666H78.4611C77.9815 113.685 77.5012 113.666 77.0244 113.611C76.5377 113.547 76.0645 113.405 75.6229 113.19C75.1747 112.981 74.7623 112.703 74.401 112.366C74.0323 112.026 73.7188 111.631 73.4719 111.195C73.2252 110.755 73.045 110.282 72.9371 109.79C72.8476 109.291 72.8123 108.785 72.8317 108.279C72.8317 107.274 72.8317 106.262 72.8317 105.242C72.8317 97.0707 72.8317 88.3378 72.8317 79.148C72.8317 69.9583 72.8317 60.3118 72.8317 50.314V27.3046C72.8033 26.636 72.8972 25.9679 73.1088 25.3331C73.4463 24.3821 74.0682 23.5579 74.8903 22.9726C75.7123 22.3874 76.6946 22.0693 77.7037 22.0616H134.021C134.61 22.0391 135.2 22.1116 135.766 22.2764C136.606 22.5347 137.361 23.0131 137.953 23.6618C138.546 24.3105 138.954 25.1059 139.135 25.9655C139.226 26.5294 139.258 27.101 139.233 27.6715V29.3619C139.233 31.6001 139.233 33.8123 139.233 35.9985C139.233 40.3526 139.233 44.574 139.233 48.6627C139.233 56.8335 139.233 64.446 139.233 71.3949C139.233 85.2927 139.209 96.5398 139.201 104.316C139.201 105.287 139.201 106.198 139.201 107.049C139.201 107.482 139.201 107.896 139.201 108.302C139.213 108.693 139.196 109.085 139.151 109.473C139.066 110.103 138.857 110.71 138.536 111.259C138.215 111.808 137.788 112.288 137.281 112.671C136.659 113.147 135.927 113.46 135.153 113.58C134.958 113.612 134.761 113.631 134.564 113.635L134.337 113.631Z" fill="#2489B0"/>
<path d="M120.713 36.24C120.765 36.233 120.817 36.233 120.869 36.24H121.357V36.2946C119.553 36.3376 113.389 36.3688 106.065 36.3688L94.8183 36.3102L91.4063 36.279H90.4772C90.3688 36.2808 90.2605 36.2743 90.1532 36.2595C90.2609 36.2487 90.3694 36.2487 90.4772 36.2595H91.4063L94.8183 36.2243L106.085 36.197C113.409 36.197 119.573 36.2283 121.376 36.2712V36.3259H120.888C120.826 36.3047 120.767 36.2758 120.713 36.24Z" fill="#2489B0"/>
<path d="M131.019 43.1418C131.019 43.1964 119.827 43.2433 106.034 43.2433C92.2417 43.2433 81.0298 43.1964 81.0298 43.1418C81.0298 43.0871 92.2222 43.0403 106.034 43.0403C119.846 43.0403 131.019 43.0637 131.019 43.1418Z" fill="#2489B0"/>
<path d="M131.019 46.7099C131.019 46.7646 119.827 46.8114 106.034 46.8114C92.2417 46.8114 81.0298 46.7646 81.0298 46.7099C81.0298 46.6552 92.2222 46.6084 106.034 46.6084C119.846 46.6084 131.019 46.6552 131.019 46.7099Z" fill="#2489B0"/>
<path d="M131.019 50.2975C131.019 50.3522 119.827 50.399 106.034 50.399C92.2417 50.399 81.0298 50.3522 81.0298 50.2975C81.0298 50.2429 92.2222 50.196 106.034 50.196C119.846 50.196 131.019 50.239 131.019 50.2975Z" fill="#2489B0"/>
<path d="M131.019 53.8818C131.019 53.9403 119.827 53.9833 106.034 53.9833C92.2417 53.9833 81.0298 53.9403 81.0298 53.8818C81.0298 53.8232 92.2222 53.7803 106.034 53.7803C119.846 53.7803 131.019 53.8271 131.019 53.8818Z" fill="#2489B0"/>
<path d="M131.019 57.4692C131.019 57.5277 119.827 57.5707 106.034 57.5707C92.2417 57.5707 81.0298 57.5277 81.0298 57.4692C81.0298 57.4106 92.2222 57.3677 106.034 57.3677C119.846 57.3677 131.019 57.4145 131.019 57.4692Z" fill="#2489B0"/>
<path d="M131.019 61.0571C131.019 61.1117 119.827 61.1586 106.034 61.1586C92.2417 61.1586 81.0298 61.1117 81.0298 61.0571C81.0298 61.0024 92.2222 60.9556 106.034 60.9556C119.846 60.9556 131.019 61.0024 131.019 61.0571Z" fill="#2489B0"/>
<path d="M131.019 95.77C131.019 95.8246 119.827 95.8715 106.034 95.8715C92.2417 95.8715 81.0298 95.8246 81.0298 95.77C81.0298 95.7153 92.2222 95.6685 106.034 95.6685C119.846 95.6685 131.019 95.7114 131.019 95.77Z" fill="#2489B0"/>
<path d="M131.019 99.3576C131.019 99.4123 119.827 99.4591 106.034 99.4591C92.2417 99.4591 81.0298 99.4123 81.0298 99.3576C81.0298 99.303 92.2222 99.2561 106.034 99.2561C119.846 99.2561 131.019 99.299 131.019 99.3576Z" fill="#2489B0"/>
<path d="M131.019 102.945C131.019 103 119.827 103.047 106.034 103.047C92.2417 103.047 81.0298 103 81.0298 102.945C81.0298 102.891 92.2222 102.844 106.034 102.844C119.846 102.844 131.019 102.871 131.019 102.945Z" fill="#2489B0"/>
<path d="M131.019 106.529C131.019 106.588 119.827 106.631 106.034 106.631C92.2417 106.631 81.0298 106.588 81.0298 106.529C81.0298 106.471 92.2222 106.428 106.034 106.428C119.846 106.428 131.019 106.475 131.019 106.529Z" fill="#2489B0"/>
<path d="M85.2811 67.155H83.5127V86.893H85.2811V67.155Z" fill="#2489B0"/>
<path d="M88.6931 73.8579H86.9247V86.893H88.6931V73.8579Z" fill="#2489B0"/>
<path d="M92.1051 69.6104H90.3366V86.9943H92.1051V69.6104Z" fill="#2489B0"/>
<path d="M95.5171 67.916H93.7486V86.8928H95.5171V67.916Z" fill="#2489B0"/>
<path d="M98.9291 74.2595H97.1606V86.8925H98.9291V74.2595Z" fill="#2489B0"/>
<path d="M102.341 76.7388H100.573V86.8928H102.341V76.7388Z" fill="#2489B0"/>
<path d="M105.753 69.1807H103.985V86.8926H105.753V69.1807Z" fill="#2489B0"/>
<path d="M109.165 72.3743H107.397V86.8928H109.165V72.3743Z" fill="#2489B0"/>
<path d="M112.577 69.8247H110.809V86.8964H112.577V69.8247Z" fill="#2489B0"/>
<path d="M115.993 75.2634H114.225V86.8931H115.993V75.2634Z" fill="#2489B0"/>
<path d="M122.797 69.1807H121.029V86.8926H122.797V69.1807Z" fill="#2489B0"/>
<path d="M130.043 80.5762H128.275V86.635H130.043V80.5762Z" fill="#2489B0"/>
<path d="M126.51 75.2634H124.742V86.8931H126.51V75.2634Z" fill="#2489B0"/>
<path d="M119.405 73.0496H117.636V86.8927H119.405V73.0496Z" fill="#2489B0"/>
<path d="M130.539 69.6885L130.383 69.6612L129.934 69.5714C129.691 69.519 129.446 69.4799 129.2 69.4543C128.865 69.4065 128.527 69.3778 128.189 69.3684C127.26 69.3373 126.331 69.4172 125.421 69.6066C124.218 69.8636 123.061 70.3019 121.989 70.9066C120.69 71.6384 119.516 72.5727 118.511 73.6744C117.401 74.9778 116.421 76.3859 115.583 77.8789C114.638 79.4209 113.682 81.0957 112.292 82.5323C111.598 83.2748 110.777 83.8882 109.868 84.3437C109.396 84.5735 108.892 84.7277 108.373 84.8005C107.845 84.8714 107.309 84.8543 106.788 84.7497C105.763 84.497 104.815 84.0001 104.024 83.3014C103.257 82.6403 102.572 81.8908 101.982 81.0683C100.811 79.4717 99.9519 77.7501 99.0501 76.1807C98.2555 74.6648 97.2717 73.256 96.1222 71.9879C95.5899 71.4285 94.9799 70.9486 94.3108 70.563C93.9956 70.3829 93.6682 70.225 93.3309 70.0906C93.0058 69.9703 92.6733 69.8712 92.3354 69.794C91.1364 69.5178 89.8866 69.5527 88.7048 69.8955C87.8127 70.1511 86.9706 70.5564 86.2141 71.0939C85.7416 71.4414 85.3036 71.8336 84.9063 72.2651L84.6018 72.6086C84.5316 72.6867 84.4964 72.7258 84.4925 72.7219C84.5199 72.6774 84.5512 72.6356 84.5862 72.5969L84.8751 72.2378C85.2637 71.7928 85.6967 71.3886 86.1673 71.0315C86.9259 70.4778 87.7735 70.058 88.6736 69.79C89.8716 69.4301 91.142 69.3844 92.3627 69.6573C93.8476 69.992 95.198 70.7645 96.2393 71.8747C97.4053 73.1469 98.4024 74.5639 99.2062 76.0909C100.116 77.6525 100.963 79.378 102.138 80.9551C102.72 81.7637 103.396 82.5002 104.152 83.1491C104.916 83.8279 105.834 84.3103 106.827 84.5545C107.327 84.6552 107.84 84.6723 108.345 84.6053C108.843 84.533 109.328 84.3855 109.782 84.168C110.67 83.7213 111.472 83.1213 112.151 82.3957C113.522 80.9864 114.494 79.3233 115.427 77.7852C116.275 76.284 117.267 74.8693 118.39 73.5612C119.406 72.4554 120.592 71.5184 121.903 70.7855C122.99 70.1812 124.163 69.7467 125.382 69.4973C126.301 69.317 127.238 69.2475 128.173 69.2904C128.514 69.3071 128.854 69.3423 129.192 69.3958C129.439 69.4248 129.685 69.4704 129.926 69.5324L130.375 69.6417C130.431 69.652 130.486 69.6677 130.539 69.6885Z" fill="#2489B0"/>
<path d="M81.5686 88.2711C81.5256 88.2711 81.4944 82.6417 81.4944 75.7006C81.4944 68.7595 81.5256 63.1262 81.5686 63.1262C81.6115 63.1262 81.6388 68.7556 81.6388 75.7006C81.6388 82.6456 81.6076 88.2711 81.5686 88.2711Z" fill="#2489B0"/>
<path d="M130.043 88.271C130.043 88.31 119.44 88.3412 106.362 88.3412C93.2841 88.3412 82.6773 88.31 82.6773 88.271C82.6773 88.2319 93.2763 88.1968 106.362 88.1968C119.448 88.1968 130.043 88.228 130.043 88.271Z" fill="#2489B0"/>
<path d="M86.0346 89.8247C85.1626 89.9184 84.2832 89.9184 83.4112 89.8247C84.2829 89.7258 85.1629 89.7258 86.0346 89.8247Z" fill="#2489B0"/>
<path d="M90.3835 89.9027C89.3446 89.9957 88.2994 89.9957 87.2604 89.9027C88.2991 89.8046 89.3448 89.8046 90.3835 89.9027Z" fill="#2489B0"/>
<path d="M94.0961 89.9027C93.0571 89.9957 92.0119 89.9957 90.973 89.9027C92.0117 89.8046 93.0574 89.8046 94.0961 89.9027Z" fill="#2489B0"/>
<path d="M97.8047 89.9027C96.7658 89.9957 95.7206 89.9957 94.6816 89.9027C95.7203 89.8046 96.766 89.8046 97.8047 89.9027Z" fill="#2489B0"/>
<path d="M101.517 89.9027C100.478 89.9957 99.4332 89.9957 98.3942 89.9027C99.4329 89.8046 100.479 89.8046 101.517 89.9027Z" fill="#2489B0"/>
<path d="M105.23 89.9027C104.191 89.9957 103.146 89.9957 102.107 89.9027C103.146 89.8046 104.191 89.8046 105.23 89.9027Z" fill="#2489B0"/>
<path d="M108.939 89.9027C107.9 89.9957 106.855 89.9957 105.816 89.9027C106.854 89.8046 107.9 89.8046 108.939 89.9027Z" fill="#2489B0"/>
<path d="M112.651 89.9027C111.612 89.9957 110.567 89.9957 109.528 89.9027C110.567 89.8046 111.612 89.8046 112.651 89.9027Z" fill="#2489B0"/>
<path d="M116.36 89.9027C115.321 89.9957 114.276 89.9957 113.237 89.9027C114.276 89.8046 115.321 89.8046 116.36 89.9027Z" fill="#2489B0"/>
<path d="M120.073 89.9027C119.034 89.9957 117.988 89.9957 116.949 89.9027C117.988 89.8046 119.034 89.8046 120.073 89.9027Z" fill="#2489B0"/>
<path d="M123.523 89.9027C122.485 90.0009 121.439 90.0009 120.4 89.9027C121.439 89.8046 122.485 89.8046 123.523 89.9027Z" fill="#2489B0"/>
<path d="M126.975 89.9023C125.936 90.0004 124.89 90.0004 123.851 89.9023C124.89 89.8093 125.936 89.8093 126.975 89.9023Z" fill="#2489B0"/>
<path d="M130.426 89.9061C129.387 89.9991 128.341 89.9991 127.302 89.9061C128.341 89.808 129.387 89.808 130.426 89.9061Z" fill="#2489B0"/>
<path d="M99.6084 76.3447C99.6084 76.3135 99.8231 76.3915 99.8933 76.6882C99.9371 76.8584 99.9177 77.0388 99.8387 77.1957C99.8128 77.2477 99.7766 77.2939 99.7323 77.3315C99.688 77.369 99.6365 77.3972 99.581 77.4144C99.5214 77.4318 99.4588 77.437 99.3971 77.4296C99.3353 77.4222 99.2758 77.4024 99.2219 77.3714C99.1233 77.3157 99.0422 77.2335 98.9877 77.1342C98.9332 77.0349 98.9075 76.9224 98.9135 76.8093C98.9206 76.7202 98.9461 76.6337 98.9884 76.555C99.0308 76.4764 99.089 76.4074 99.1594 76.3525C99.2058 76.3134 99.2606 76.2856 99.3195 76.2714C99.3785 76.2572 99.44 76.2569 99.4991 76.2705C99.581 76.2939 99.6084 76.333 99.6045 76.3447C99.6006 76.3564 99.4249 76.29 99.2492 76.4618C99.1546 76.5562 99.1001 76.6835 99.097 76.8171C99.0953 76.8957 99.1147 76.9734 99.1531 77.042C99.1915 77.1107 99.2476 77.1678 99.3156 77.2074C99.3456 77.2262 99.3791 77.2388 99.4141 77.2442C99.4491 77.2497 99.4848 77.248 99.5191 77.2392C99.5534 77.2305 99.5856 77.2148 99.6137 77.1933C99.6418 77.1717 99.6652 77.1446 99.6825 77.1138C99.7468 76.9943 99.7727 76.858 99.7567 76.7234C99.7371 76.5874 99.6864 76.4578 99.6084 76.3447Z" fill="#2489B0"/>
<path d="M122.868 69.8561C122.868 69.8561 122.926 69.8288 123.024 69.8561C123.158 69.906 123.269 70.0032 123.336 70.1294C123.391 70.2219 123.427 70.3248 123.44 70.4316C123.453 70.5384 123.445 70.6468 123.414 70.7501C123.381 70.8875 123.304 71.0104 123.195 71.1004C123.086 71.1905 122.95 71.2429 122.809 71.2498C122.733 71.2461 122.659 71.226 122.592 71.191C122.524 71.1559 122.465 71.1068 122.419 71.0468C122.339 70.9463 122.283 70.8288 122.255 70.7033C122.229 70.5996 122.224 70.4917 122.242 70.3863C122.259 70.2808 122.298 70.1801 122.356 70.0903C122.571 69.7819 122.84 69.7976 122.833 69.821C122.825 69.8444 122.618 69.8913 122.477 70.1606C122.437 70.2369 122.413 70.3203 122.405 70.4061C122.398 70.4919 122.408 70.5783 122.434 70.6603C122.477 70.8399 122.618 71.0507 122.825 71.0507C122.922 71.043 123.015 71.0061 123.091 70.9448C123.167 70.8835 123.222 70.8006 123.25 70.7072C123.303 70.5443 123.294 70.3674 123.223 70.2114C123.152 70.0534 123.026 69.927 122.868 69.8561Z" fill="#2489B0"/>
<path d="M200.473 11.9739H123.531C120.981 11.9739 118.913 14.0416 118.913 16.5922V126.361C118.913 128.912 120.981 130.98 123.531 130.98H200.473C203.023 130.98 205.091 128.912 205.091 126.361V16.5922C205.091 14.0416 203.023 11.9739 200.473 11.9739Z" fill="#F5F5F5"/>
<path d="M123.57 11.9739H200.43C201.665 11.9739 202.85 12.4646 203.723 13.338C204.596 14.2114 205.087 15.396 205.087 16.6312V22.6978H118.913V16.6312C118.913 15.396 119.404 14.2114 120.277 13.338C121.151 12.4646 122.335 11.9739 123.57 11.9739Z" fill="#E0E0E0"/>
<path d="M124.363 19.0477C125.309 19.0477 126.077 18.2804 126.077 17.3339C126.077 16.3874 125.309 15.6201 124.363 15.6201C123.416 15.6201 122.649 16.3874 122.649 17.3339C122.649 18.2804 123.416 19.0477 124.363 19.0477Z" fill="white"/>
<path d="M131.21 17.3334C131.211 17.6727 131.111 18.0046 130.923 18.287C130.735 18.5695 130.467 18.7897 130.154 18.9199C129.841 19.0501 129.496 19.0844 129.163 19.0184C128.83 18.9524 128.524 18.7891 128.285 18.5492C128.045 18.3093 127.881 18.0035 127.815 17.6707C127.749 17.3379 127.784 16.993 127.914 16.6797C128.044 16.3664 128.264 16.0988 128.547 15.9107C128.829 15.7227 129.161 15.6228 129.5 15.6235C129.725 15.6235 129.947 15.6678 130.155 15.7537C130.362 15.8396 130.551 15.9656 130.709 16.1244C130.868 16.2831 130.994 16.4716 131.08 16.6791C131.166 16.8865 131.21 17.1089 131.21 17.3334Z" fill="white"/>
<path d="M134.689 19.0477C135.635 19.0477 136.402 18.2804 136.402 17.3339C136.402 16.3874 135.635 15.6201 134.689 15.6201C133.742 15.6201 132.975 16.3874 132.975 17.3339C132.975 18.2804 133.742 19.0477 134.689 19.0477Z" fill="white"/>
<path d="M201.203 22.6978H122.801V128.614H201.203V22.6978Z" fill="white"/>
<path d="M203.19 34.3115H203.096C202.048 34.3115 201.199 35.161 201.199 36.2088V51.6408C201.199 52.6887 202.048 53.5381 203.096 53.5381H203.19C204.238 53.5381 205.087 52.6887 205.087 51.6408V36.2088C205.087 35.161 204.238 34.3115 203.19 34.3115Z" fill="#E0E0E0"/>
<path d="M200.285 130.979H200.547C200.81 130.965 201.071 130.93 201.328 130.874C202.323 130.649 203.222 130.113 203.893 129.344C204.389 128.786 204.742 128.116 204.923 127.392C205.15 126.611 205.056 125.678 205.076 124.702C205.076 122.75 205.076 120.482 205.076 117.94C205.076 107.763 205.076 93.0415 205.044 74.8494C205.044 65.7534 205.044 55.7907 205.044 45.098C205.044 39.7497 205.044 34.2231 205.044 28.5182C205.044 25.6736 205.044 22.7847 205.044 19.8516V17.6264C205.09 16.8959 205.024 16.1627 204.849 15.452C204.642 14.7467 204.272 14.0997 203.77 13.5628C203.267 13.0259 202.646 12.6141 201.956 12.3601C201.61 12.2313 201.25 12.1448 200.883 12.1024C200.51 12.0691 200.136 12.0574 199.762 12.0673H123.727C122.875 12.0694 122.041 12.3008 121.31 12.737C120.579 13.1732 119.979 13.7981 119.573 14.5463C119.182 15.2984 118.992 16.139 119.022 16.9862V29.7831C119.022 36.5498 119.022 43.2059 119.022 49.7514C119.022 62.8411 119.022 75.4663 119.022 87.4941C119.022 99.5219 119.022 110.952 119.022 121.649V125.623C118.983 126.27 119.052 126.919 119.225 127.544C119.407 128.156 119.714 128.724 120.127 129.211C120.533 129.694 121.031 130.09 121.592 130.377C122.153 130.664 122.766 130.836 123.395 130.882C124.648 130.921 125.909 130.882 127.15 130.901H141.427L184.514 130.933L196.225 130.952H184.514L141.427 130.987H127.123C125.878 130.987 124.632 131.007 123.356 130.987C122.376 130.922 121.438 130.564 120.665 129.958C119.892 129.352 119.319 128.527 119.022 127.591C118.847 126.956 118.776 126.297 118.812 125.639V121.649C118.812 110.952 118.812 99.5219 118.812 87.4941C118.812 75.4663 118.812 62.8411 118.812 49.7514V16.9862C118.78 16.1041 118.981 15.2292 119.393 14.4487C119.815 13.6666 120.44 13.0131 121.203 12.5575C121.966 12.1018 122.838 11.861 123.727 11.8604H199.716C200.097 11.8508 200.479 11.8626 200.859 11.8955C201.812 12.0114 202.709 12.4031 203.442 13.0225C204.174 13.6419 204.709 14.4619 204.982 15.3817C205.162 16.1088 205.229 16.8594 205.181 17.6069V19.8126C205.181 22.7405 205.181 25.6294 205.181 28.4792C205.181 34.1789 205.181 39.7055 205.181 45.059C205.181 55.7517 205.181 65.7144 205.181 74.8104C205.181 93.0025 205.158 107.724 205.15 117.901C205.15 120.443 205.15 122.703 205.15 124.663C205.15 125.635 205.22 126.556 204.986 127.364C204.798 128.089 204.439 128.759 203.94 129.316C203.261 130.088 202.352 130.622 201.347 130.839C201.09 130.892 200.829 130.924 200.567 130.933L200.285 130.979Z" fill="#2489B0"/>
<path d="M130.476 38.707H142.399L142.512 42.2908H142.008C141.762 41.1626 141.446 40.4325 141.068 40.0929C140.689 39.7533 139.896 39.5815 138.663 39.5815H137.492V50.3718C137.492 51.1877 137.617 51.6913 137.882 51.8826C138.147 52.0739 138.69 52.2066 139.549 52.273V52.6634H133.389V52.273C134.283 52.2027 134.837 52.0583 135.056 51.8319C135.274 51.6054 135.387 51.0511 135.387 50.1298V39.5893H134.216C133.048 39.5893 132.254 39.7572 131.835 40.0929C131.413 40.4286 131.093 41.1665 130.882 42.2986H130.344L130.476 38.707Z" fill="#2489B0"/>
<path d="M184.377 30.3066C184.45 30.3013 184.523 30.3013 184.596 30.3066H185.283V30.3573C182.749 30.4003 174.067 30.4354 163.765 30.4354L147.911 30.3808L143.105 30.3495L147.911 30.2363L163.769 30.2051C174.071 30.2051 182.753 30.2402 185.287 30.2832V30.3339H184.6C184.525 30.3349 184.45 30.3257 184.377 30.3066Z" fill="#2489B0"/>
<path d="M160.72 38.8481C160.72 38.9027 157.44 38.9496 153.396 38.9496C149.352 38.9496 146.068 38.9027 146.068 38.8481C146.068 38.7934 149.348 38.7466 153.396 38.7466C157.444 38.7466 160.72 38.7778 160.72 38.8481Z" fill="#2489B0"/>
<path d="M160.72 42.2914C160.72 42.3461 157.44 42.3929 153.396 42.3929C149.352 42.3929 146.068 42.3461 146.068 42.2914C146.068 42.2368 149.348 42.1899 153.396 42.1899C157.444 42.1899 160.72 42.2368 160.72 42.2914Z" fill="#2489B0"/>
<path d="M160.72 45.7463C160.72 45.8048 157.44 45.8478 153.396 45.8478C149.352 45.8478 146.068 45.8048 146.068 45.7463C146.068 45.6877 149.348 45.6448 153.396 45.6448C157.444 45.6448 160.72 45.6916 160.72 45.7463Z" fill="#2489B0"/>
<path d="M160.72 49.205C160.72 49.2597 157.44 49.3065 153.396 49.3065C149.352 49.3065 146.068 49.2597 146.068 49.205C146.068 49.1504 149.348 49.1035 153.396 49.1035C157.444 49.1035 160.72 49.1465 160.72 49.205Z" fill="#2489B0"/>
<path d="M160.72 52.6599C160.72 52.7145 157.44 52.7614 153.396 52.7614C149.352 52.7614 146.068 52.7145 146.068 52.6599C146.068 52.6052 149.348 52.5583 153.396 52.5583C157.444 52.5583 160.72 52.6052 160.72 52.6599Z" fill="#2489B0"/>
<path d="M160.72 56.1147C160.72 56.1732 153.79 56.2162 145.249 56.2162C136.707 56.2162 129.777 56.1732 129.777 56.1147C129.777 56.0561 136.703 56.0132 145.249 56.0132C153.794 56.0132 160.72 56.06 160.72 56.1147Z" fill="#2489B0"/>
<path d="M160.72 59.4096C160.72 59.4643 153.79 59.5111 145.249 59.5111C136.707 59.5111 129.777 59.4643 129.777 59.4096C129.777 59.3549 136.703 59.3081 145.249 59.3081C153.794 59.3081 160.72 59.351 160.72 59.4096Z" fill="#2489B0"/>
<path d="M160.72 62.7004C160.72 62.755 153.79 62.8019 145.249 62.8019C136.707 62.8019 129.777 62.755 129.777 62.7004C129.777 62.6457 136.703 62.5989 145.249 62.5989C153.794 62.5989 160.72 62.6613 160.72 62.7004Z" fill="#2489B0"/>
<path d="M160.72 65.9914C160.72 66.046 153.79 66.0929 145.249 66.0929C136.707 66.0929 129.777 66.046 129.777 65.9914C129.777 65.9367 136.703 65.8899 145.249 65.8899C153.794 65.8899 160.72 65.9367 160.72 65.9914Z" fill="#2489B0"/>
<path d="M160.72 69.298C160.72 69.3566 153.79 69.3995 145.249 69.3995C136.707 69.3995 129.777 69.3566 129.777 69.298C129.777 69.2395 136.703 69.1965 145.249 69.1965C153.794 69.1965 160.72 69.2278 160.72 69.298Z" fill="#2489B0"/>
<path d="M160.72 72.5732C160.72 72.6317 153.79 72.6747 145.249 72.6747C136.707 72.6747 129.777 72.6317 129.777 72.5732C129.777 72.5146 136.703 72.4717 145.249 72.4717C153.794 72.4717 160.72 72.5185 160.72 72.5732Z" fill="#2489B0"/>
<path d="M160.72 75.8683C160.72 75.923 153.79 75.9698 145.249 75.9698C136.707 75.9698 129.777 75.923 129.777 75.8683C129.777 75.8137 136.703 75.7668 145.249 75.7668C153.794 75.7668 160.72 75.8098 160.72 75.8683Z" fill="#2489B0"/>
<path d="M160.72 79.1594C160.72 79.214 153.79 79.2609 145.249 79.2609C136.707 79.2609 129.777 79.214 129.777 79.1594C129.777 79.1047 136.703 79.0579 145.249 79.0579C153.794 79.0579 160.72 79.1008 160.72 79.1594Z" fill="#2489B0"/>
<path d="M193.504 38.8481C193.504 38.9027 187.012 38.9496 179.005 38.9496C170.999 38.9496 164.502 38.9027 164.502 38.8481C164.502 38.7934 170.995 38.7466 179.005 38.7466C187.016 38.7466 193.504 38.7778 193.504 38.8481Z" fill="#2489B0"/>
<path d="M193.504 42.1274C193.504 42.182 187.012 42.2289 179.005 42.2289C170.999 42.2289 164.502 42.182 164.502 42.1274C164.502 42.0727 170.995 42.0259 179.005 42.0259C187.016 42.0259 193.504 42.0688 193.504 42.1274Z" fill="#2489B0"/>
<path d="M193.504 45.4179C193.504 45.4726 187.012 45.5194 179.005 45.5194C170.999 45.5194 164.502 45.4726 164.502 45.4179C164.502 45.3633 170.995 45.3164 179.005 45.3164C187.016 45.3164 193.504 45.3633 193.504 45.4179Z" fill="#2489B0"/>
<path d="M193.504 48.7087C193.504 48.7672 187.012 48.8102 179.005 48.8102C170.999 48.8102 164.502 48.7672 164.502 48.7087C164.502 48.6501 170.995 48.6072 179.005 48.6072C187.016 48.6072 193.504 48.654 193.504 48.7087Z" fill="#2489B0"/>
<path d="M193.504 51.9997C193.504 52.0583 187.012 52.1012 179.005 52.1012C170.999 52.1012 164.502 52.0583 164.502 51.9997C164.502 51.9411 170.995 51.8982 179.005 51.8982C187.016 51.8982 193.504 51.945 193.504 51.9997Z" fill="#2489B0"/>
<path d="M193.504 55.2949C193.504 55.3495 187.012 55.3964 179.005 55.3964C170.999 55.3964 164.502 55.3495 164.502 55.2949C164.502 55.2402 170.995 55.1934 179.005 55.1934C187.016 55.1934 193.504 55.2441 193.504 55.2949Z" fill="#2489B0"/>
<path d="M193.504 58.5859C193.504 58.6405 187.012 58.6874 179.005 58.6874C170.999 58.6874 164.502 58.6405 164.502 58.5859C164.502 58.5312 170.995 58.4844 179.005 58.4844C187.016 58.4844 193.504 58.5273 193.504 58.5859Z" fill="#2489B0"/>
<path d="M193.504 61.8801C193.504 61.9347 187.012 61.9816 179.005 61.9816C170.999 61.9816 164.502 61.9347 164.502 61.8801C164.502 61.8254 170.995 61.7786 179.005 61.7786C187.016 61.7786 193.504 61.8215 193.504 61.8801Z" fill="#2489B0"/>
<path d="M160.72 87.3456C160.72 87.4042 153.857 87.4471 145.389 87.4471C136.922 87.4471 130.062 87.4042 130.062 87.3456C130.062 87.2871 136.926 87.2441 145.389 87.2441C153.853 87.2441 160.72 87.291 160.72 87.3456Z" fill="#2489B0"/>
<path d="M160.72 90.6367C160.72 90.6952 153.857 90.7382 145.389 90.7382C136.922 90.7382 130.062 90.6952 130.062 90.6367C130.062 90.5781 136.926 90.5352 145.389 90.5352C153.853 90.5352 160.72 90.582 160.72 90.6367Z" fill="#2489B0"/>
<path d="M160.72 93.9313C160.72 93.986 153.857 94.0328 145.389 94.0328C136.922 94.0328 130.062 93.986 130.062 93.9313C130.062 93.8767 136.926 93.8298 145.389 93.8298C153.853 93.8298 160.72 93.8923 160.72 93.9313Z" fill="#2489B0"/>
<path d="M160.72 97.2224C160.72 97.277 153.857 97.3239 145.389 97.3239C136.922 97.3239 130.062 97.277 130.062 97.2224C130.062 97.1677 136.926 97.1208 145.389 97.1208C153.853 97.1208 160.72 97.1638 160.72 97.2224Z" fill="#2489B0"/>
<path d="M160.72 100.529C160.72 100.584 153.857 100.63 145.389 100.63C136.922 100.63 130.062 100.584 130.062 100.529C130.062 100.474 136.926 100.427 145.389 100.427C153.853 100.427 160.72 100.459 160.72 100.529Z" fill="#2489B0"/>
<path d="M160.72 103.804C160.72 103.863 153.857 103.906 145.389 103.906C136.922 103.906 130.062 103.863 130.062 103.804C130.062 103.746 136.926 103.703 145.389 103.703C153.853 103.703 160.72 103.749 160.72 103.804Z" fill="#2489B0"/>
<path d="M160.72 107.095C160.72 107.154 153.857 107.197 145.389 107.197C136.922 107.197 130.062 107.154 130.062 107.095C130.062 107.037 136.926 106.994 145.389 106.994C153.853 106.994 160.72 107.041 160.72 107.095Z" fill="#2489B0"/>
<path d="M160.72 110.39C160.72 110.445 153.857 110.492 145.389 110.492C136.922 110.492 130.062 110.445 130.062 110.39C130.062 110.336 136.926 110.285 145.389 110.285C153.853 110.285 160.72 110.332 160.72 110.39Z" fill="#2489B0"/>
<path d="M160.72 113.861C160.72 113.919 153.857 113.962 145.389 113.962C136.922 113.962 130.062 113.919 130.062 113.861C130.062 113.802 136.926 113.759 145.389 113.759C153.853 113.759 160.72 113.802 160.72 113.861Z" fill="#2489B0"/>
<path d="M160.72 117.335C160.72 117.389 153.857 117.436 145.389 117.436C136.922 117.436 130.062 117.389 130.062 117.335C130.062 117.28 136.926 117.233 145.389 117.233C153.853 117.233 160.72 117.276 160.72 117.335Z" fill="#2489B0"/>
<path d="M160.72 120.83C160.72 120.884 153.857 120.931 145.389 120.931C136.922 120.931 130.062 120.884 130.062 120.83C130.062 120.775 136.926 120.728 145.389 120.728C153.853 120.728 160.72 120.751 160.72 120.83Z" fill="#2489B0"/>
<path d="M193.317 65.2458H164.502V93.1234H193.317V65.2458Z" fill="#2489B0"/>
<g opacity="0.3">
<path d="M166.739 90.7342L174.707 76.3914L181.227 85.5577L185.189 80.6895L191.084 90.7342H166.739Z" fill="#4CCCC5"/>
</g>
<g opacity="0.3">
<path d="M184.006 73.5925C184.007 74.0036 183.886 74.4057 183.658 74.7478C183.43 75.0899 183.106 75.3567 182.726 75.5144C182.346 75.6721 181.928 75.7135 181.525 75.6335C181.122 75.5535 180.751 75.3556 180.461 75.065C180.17 74.7743 179.972 74.4038 179.892 74.0006C179.812 73.5974 179.854 73.1795 180.011 72.7998C180.169 72.4202 180.436 72.0958 180.778 71.8679C181.12 71.64 181.522 71.5188 181.933 71.5195C182.483 71.5195 183.01 71.7379 183.399 72.1267C183.788 72.5154 184.006 73.0427 184.006 73.5925Z" fill="#4CCCC5"/>
</g>
<g opacity="0.3">
<path d="M191.084 90.8125C191.081 90.7749 191.081 90.737 191.084 90.6993C191.084 90.6173 191.084 90.508 191.084 90.3753C191.084 90.0786 191.084 89.657 191.084 89.1183C191.084 88.0135 191.084 86.4168 191.053 84.3868C191.053 80.315 191.018 74.5139 190.994 67.5532L191.111 67.6704H166.767C166.736 67.7016 167.024 67.4127 166.903 67.5376V70.692C166.903 71.7382 166.903 72.7727 166.903 73.7955C166.903 75.8451 166.903 77.8517 166.903 79.8036C166.903 83.7075 166.903 87.3966 166.903 90.793L166.786 90.6759L184.385 90.7345L189.292 90.7696H190.612H190.951H191.072H190.967H190.635H189.343L184.405 90.8008L166.728 90.8633H166.607V90.7423C166.607 87.3459 166.607 83.6567 166.607 79.7529C166.607 77.8009 166.607 75.7943 166.607 73.7448C166.607 72.722 166.607 71.6875 166.607 70.6412V67.4869C166.486 67.6079 166.775 67.3151 166.747 67.3463H191.092H191.209V67.4635C191.186 74.4553 191.162 80.2799 191.15 84.3711C191.15 86.3895 191.127 87.9783 191.119 89.0792C191.119 89.6062 191.119 90.0201 191.119 90.3089C191.119 90.4417 191.119 90.5432 191.119 90.6212C191.115 90.6861 191.103 90.7503 191.084 90.8125Z" fill="#4CCCC5"/>
</g>
<path d="M194.332 96.9924C194.332 97.0509 187.469 97.0939 179.005 97.0939C170.542 97.0939 163.675 97.0509 163.675 96.9924C163.675 96.9338 170.538 96.8909 179.005 96.8909C187.473 96.8909 194.332 96.9377 194.332 96.9924Z" fill="#2489B0"/>
<path d="M194.332 100.283C194.332 100.342 187.469 100.385 179.005 100.385C170.542 100.385 163.675 100.342 163.675 100.283C163.675 100.225 170.538 100.182 179.005 100.182C187.473 100.182 194.332 100.228 194.332 100.283Z" fill="#2489B0"/>
<path d="M194.332 103.578C194.332 103.632 187.469 103.679 179.005 103.679C170.542 103.679 163.675 103.632 163.675 103.578C163.675 103.523 170.538 103.476 179.005 103.476C187.473 103.476 194.332 103.519 194.332 103.578Z" fill="#2489B0"/>
<path d="M194.332 106.869C194.332 106.924 187.469 106.971 179.005 106.971C170.542 106.971 163.675 106.924 163.675 106.869C163.675 106.814 170.554 106.775 179.005 106.775C187.457 106.775 194.332 106.811 194.332 106.869Z" fill="#2489B0"/>
<path d="M194.332 110.34C194.332 110.398 187.469 110.445 179.005 110.445C170.542 110.445 163.675 110.398 163.675 110.34C163.675 110.281 170.538 110.238 179.005 110.238C187.473 110.238 194.332 110.289 194.332 110.34Z" fill="#2489B0"/>
<path d="M194.332 113.802C194.332 113.861 187.469 113.904 179.005 113.904C170.542 113.904 163.675 113.861 163.675 113.802C163.675 113.744 170.538 113.701 179.005 113.701C187.473 113.701 194.332 113.759 194.332 113.802Z" fill="#2489B0"/>
<path d="M194.332 117.289C194.332 117.343 187.469 117.39 179.005 117.39C170.542 117.39 163.675 117.343 163.675 117.289C163.675 117.234 170.538 117.187 179.005 117.187C187.473 117.187 194.332 117.23 194.332 117.289Z" fill="#2489B0"/>
</svg>
