<svg version="1.1" id="Layer_1" xmlns="http://www.w3.org/2000/svg" xmlns:xlink="http://www.w3.org/1999/xlink" x="0px" y="0px"
	 width="100%" viewBox="0 0 1440 343" enable-background="new 0 0 1440 343" xml:space="preserve">
<path fill="#FFFFFF" opacity="1.000000" stroke="none" 
	d="
M1441.000000,102.000000 
	C1441.000000,182.597366 1441.000000,263.194733 1441.000000,344.000000 
	C1354.976807,344.000000 1268.953369,344.000000 1182.482178,343.639160 
	C1184.432495,340.961029 1187.367310,338.965912 1189.024780,336.204163 
	C1190.000000,334.579163 1188.947144,331.736938 1188.806396,329.442200 
	C1187.164185,330.166412 1185.373657,330.669708 1183.906860,331.655029 
	C1178.965088,334.974304 1174.004150,337.517151 1167.936157,334.466370 
	C1162.448975,331.707550 1161.025879,326.866760 1161.010986,321.303894 
	C1160.976562,308.471741 1161.000000,295.639404 1161.000000,282.807159 
	C1161.000000,278.023621 1161.000000,273.240082 1161.000000,268.000000 
	C1168.172119,268.000000 1174.797119,268.002869 1181.422119,267.999207 
	C1188.374146,267.995361 1188.536987,267.794647 1187.483521,259.958099 
	C1178.845703,259.958099 1170.116699,259.958099 1160.417236,259.958099 
	C1160.417236,253.049164 1160.417236,246.712616 1160.417236,240.195068 
	C1157.153687,240.195068 1154.876465,240.195068 1151.643921,240.195068 
	C1151.301270,246.786774 1150.964478,253.264252 1150.608521,260.111938 
	C1146.335571,260.111938 1142.393677,260.111938 1138.525757,260.111938 
	C1137.432373,267.748077 1137.628662,267.990540 1144.540283,267.999573 
	C1146.620117,268.002289 1148.700073,268.000000 1151.000000,268.000000 
	C1151.000000,273.956329 1150.911865,279.114075 1151.016968,284.267883 
	C1151.301270,298.206360 1151.323486,312.165405 1152.221191,326.066437 
	C1152.474609,329.989868 1154.891479,334.084534 1157.234985,337.463348 
	C1159.096191,340.146576 1162.359375,341.857422 1165.000000,344.000000 
	C1118.643311,344.000000 1072.286621,344.000000 1025.668213,343.645447 
	C1036.887695,343.034332 1046.100220,338.018768 1053.418457,328.926208 
	C1054.033691,333.023254 1054.008179,336.450989 1055.204102,339.380066 
	C1055.852661,340.968475 1058.581543,341.707489 1060.372070,342.829651 
	C1061.247925,341.313385 1062.870850,339.804474 1062.885864,338.279755 
	C1063.062988,320.302704 1063.419922,302.309052 1062.810059,284.350983 
	C1062.532715,276.187134 1058.739868,269.056488 1051.736328,263.854218 
	C1042.584717,257.056244 1032.097900,257.005371 1021.858948,258.389893 
	C1012.385010,259.670898 1003.433289,263.393860 998.069031,272.424011 
	C995.161682,277.318085 996.751587,280.798584 1002.301147,281.725739 
	C1009.738708,269.591217 1020.566650,265.236511 1034.432861,266.942200 
	C1048.121216,268.625946 1056.462646,280.202209 1053.317627,293.558807 
	C1045.544312,294.040741 1037.691650,293.856659 1030.100220,295.175812 
	C1021.489868,296.672058 1012.765808,298.677795 1004.735718,302.013580 
	C997.134033,305.171448 992.929688,312.310822 993.237793,320.642242 
	C993.545837,328.972504 996.715515,336.423645 1005.197327,339.998169 
	C1009.015564,341.607330 1013.058838,342.682556 1017.000000,344.000000 
	C990.643372,344.000000 964.286682,344.000000 937.661682,343.649170 
	C938.213501,343.198914 939.037903,343.125946 939.853271,342.996094 
	C950.276001,341.335510 959.535461,337.693329 965.017883,327.863556 
	C966.731567,324.790924 966.598877,321.893860 963.371033,319.753540 
	C959.816101,317.396423 959.018372,320.869781 957.923279,322.679352 
	C949.415405,336.738159 926.445374,338.438599 914.735718,331.134888 
	C904.212646,324.571289 898.978455,314.759460 898.441833,301.898254 
	C921.456543,301.898254 944.532471,301.898254 968.000000,301.898254 
	C968.000000,298.583252 968.211670,295.761963 967.962708,292.981903 
	C966.975342,281.957489 963.150391,272.473816 954.029846,265.350525 
	C946.245789,259.271057 937.560974,257.468201 928.080994,258.008179 
	C913.403015,258.844177 902.004028,265.111176 894.925964,278.331818 
	C889.809021,287.889313 887.916382,297.854462 889.870667,308.765350 
	C892.557495,323.766693 899.805908,334.847748 914.249512,340.691193 
	C916.566650,341.628632 918.753113,342.888947 921.000000,344.000000 
	C614.453125,344.000000 307.906189,344.000000 1.000000,344.000000 
	C1.000000,283.643829 1.000000,223.286926 1.356954,162.618317 
	C2.141280,163.327286 2.742584,164.311081 2.968237,165.374573 
	C4.628635,173.199799 6.213972,181.040970 7.794187,188.737045 
	C19.770454,183.923828 30.910084,179.039490 42.333065,174.945831 
	C62.440701,167.739822 82.756607,161.116913 102.909157,154.033188 
	C109.284760,151.792114 115.417542,148.860306 121.661453,146.244598 
	C121.540657,145.815811 121.419861,145.387024 121.299065,144.958221 
	C115.251137,144.638824 109.206596,144.210358 103.154587,144.022415 
	C90.051453,143.615524 76.943031,143.379013 63.839809,142.974518 
	C58.530334,142.810608 54.539616,139.731079 53.436264,134.797256 
	C52.338318,129.887589 54.758823,126.498558 59.034122,124.456795 
	C64.506744,121.843239 69.939941,119.025711 75.652412,117.057167 
	C98.308136,109.249878 120.886917,101.140366 143.832932,94.274925 
	C170.706696,86.234299 197.912354,79.294731 225.015991,72.034126 
	C237.612488,68.659737 250.308090,65.655212 263.449341,62.360012 
	C262.581635,60.517036 262.248444,58.949833 261.309998,57.951706 
	C253.627853,49.781033 246.567169,40.811836 237.926956,33.798573 
	C216.695389,16.564953 192.525360,5.515234 164.915970,2.940865 
	C160.587952,2.537309 156.304214,1.658861 152.000000,1.000000 
	C581.666687,1.000000 1011.333313,1.000000 1441.000000,1.000000 
	C1441.000000,30.755186 1441.000000,60.412582 1440.665283,90.434052 
	C1438.786377,89.174812 1437.346802,87.433571 1435.677368,85.951172 
	C1431.364136,82.121140 1426.342407,83.569809 1421.315063,83.922600 
	C1405.100098,85.060440 1391.803223,92.294083 1380.935181,103.767517 
	C1369.712158,115.615746 1364.616821,130.442276 1364.118042,146.548355 
	C1363.602539,163.196609 1363.623169,179.885498 1364.160400,196.532364 
	C1364.437256,205.106964 1368.843994,211.019699 1379.060913,210.046707 
	C1384.416748,209.536636 1390.412964,205.430298 1390.129883,195.901810 
	C1389.655029,179.918274 1389.711182,163.903778 1390.075317,147.914413 
	C1390.502930,129.134735 1402.810547,112.850311 1422.355347,110.044296 
	C1429.385376,109.035019 1436.332764,108.283791 1441.000000,102.000000 
M434.664551,197.826736 
	C436.148163,195.565002 437.631805,193.303268 439.788483,190.596970 
	C439.207214,187.360703 438.625977,184.124420 437.759430,180.260544 
	C432.610535,173.863068 426.539246,173.642349 421.564240,175.804138 
	C414.779175,178.752426 407.860718,181.393723 400.075806,184.026855 
	C393.909180,183.352737 387.485596,183.548691 381.630646,181.819321 
	C370.221039,178.449219 362.907623,170.273422 358.217285,158.999985 
	C387.611267,158.999985 416.258301,159.014175 444.905365,158.990143 
	C452.196869,158.984024 457.038879,154.277359 456.949371,147.065994 
	C456.898499,142.969055 456.501312,138.857407 455.977844,134.788681 
	C453.874512,118.439857 445.679230,105.599930 432.576538,95.973450 
	C418.265198,85.459023 402.273926,81.457085 384.474274,83.880402 
	C372.566986,85.501518 361.943451,89.976936 353.113403,97.614105 
	C335.415192,112.921425 327.485474,132.337433 330.954498,155.981323 
	C334.074127,177.243805 345.409363,192.689377 363.941559,202.931427 
	C378.715790,211.096573 394.778778,211.631943 410.890015,208.783249 
	C419.320618,207.292618 427.385834,203.969101 434.664551,197.826736 
M180.013596,222.489273 
	C175.159225,225.277603 170.255112,227.983337 165.460129,230.870316 
	C152.841934,238.467575 143.045700,247.936020 144.006195,264.264832 
	C144.587921,274.154327 151.581512,287.498260 164.320877,287.904877 
	C171.434036,288.131958 178.783844,287.997589 185.687439,286.480682 
	C211.619568,280.782593 232.877777,266.368469 251.166153,247.900909 
	C259.740204,239.242828 266.583954,228.661697 273.174225,218.292603 
	C286.578156,197.203064 291.999512,173.484634 292.777924,148.845398 
	C293.107941,138.398453 291.589325,127.775772 289.860107,117.408226 
	C287.164459,101.246292 281.327606,86.115730 272.727600,72.065201 
	C270.826447,68.959152 269.108063,68.596939 265.901672,69.956474 
	C251.375961,76.115532 236.756210,82.053085 222.161911,88.049957 
	C199.465195,97.376152 176.648575,106.443733 155.407425,118.911087 
	C154.122406,119.665329 153.058228,120.795807 150.970413,122.505165 
	C153.059906,122.789711 153.820160,123.026634 154.559692,122.973755 
	C164.107925,122.291008 173.657822,121.622292 183.197189,120.828812 
	C187.613525,120.461472 191.995987,119.648514 196.414871,119.357925 
	C204.997345,118.793541 213.600327,118.124039 222.181671,118.270172 
	C224.180450,118.304214 226.863708,121.061806 227.938522,123.212646 
	C229.973938,127.285767 226.554947,132.011261 220.745819,134.668076 
	C202.918396,142.821426 185.140717,151.083435 167.336914,159.288513 
	C155.520828,164.734070 143.667496,170.099686 131.883804,175.614212 
	C127.446396,177.690842 123.158279,180.086456 118.802101,182.336639 
	C119.021034,182.968231 119.239960,183.599823 119.458893,184.231415 
	C124.466331,183.820969 129.476624,183.442245 134.480545,182.992691 
	C142.030746,182.314392 149.659927,182.070068 157.107712,180.784744 
	C175.700974,177.575989 194.331467,175.341339 213.243591,175.965439 
	C218.170547,176.128021 221.905930,177.832764 223.793121,182.596008 
	C225.625916,187.222015 223.828796,190.936432 220.477493,193.986588 
	C208.371155,205.005035 195.066086,214.348663 180.013596,222.489273 
M631.437744,230.919891 
	C630.683899,229.467651 629.966431,227.995102 629.170105,226.566574 
	C624.921814,218.945816 618.381958,217.231079 610.773804,220.208160 
	C604.983276,222.474030 602.172058,231.174454 605.413330,237.669281 
	C609.668396,246.195404 615.276917,253.694427 623.034485,259.698059 
	C637.373108,270.794769 653.665039,274.898834 671.139343,272.671448 
	C687.676331,270.563446 701.631226,262.675446 712.226013,249.331253 
	C720.624634,238.752975 725.647095,226.800049 725.884277,213.383408 
	C726.299255,189.902710 726.098572,166.408768 725.951050,142.921661 
	C725.892761,133.635712 723.477112,124.666824 718.815247,116.753418 
	C707.948303,98.307236 692.472473,86.653252 670.464966,83.767975 
	C654.457764,81.669373 639.761658,84.829712 627.143005,93.762695 
	C605.994080,108.734398 596.204163,129.521729 599.936218,155.949707 
	C602.589294,174.737061 611.808899,189.304474 627.430420,199.687668 
	C641.375122,208.956360 656.909973,212.568115 673.339600,208.850876 
	C682.510986,206.775848 691.266479,202.862518 699.859131,199.898407 
	C701.441528,214.572372 698.657959,228.880646 685.224182,239.240860 
	C675.879700,246.447418 665.387878,248.797272 653.821045,246.040741 
	C644.717773,243.871277 637.670044,238.664734 631.437744,230.919891 
M1033.967529,89.851555 
	C1025.490845,79.853874 1014.964844,81.264305 1009.959229,93.568527 
	C1003.960571,108.313614 998.663757,123.343552 993.015015,138.231934 
	C990.495667,144.872345 987.859253,151.468292 985.275879,158.084412 
	C984.821472,158.058228 984.367126,158.032059 983.912720,158.005875 
	C982.273438,153.815521 980.573608,149.647675 979.005371,145.430923 
	C972.546387,128.063980 966.295959,110.616959 959.608643,93.338783 
	C957.029785,86.675629 953.416992,83.355301 945.777161,83.924454 
	C939.486755,84.393082 936.676880,86.507050 933.959290,93.735260 
	C926.352112,113.968300 918.681213,134.177460 910.964539,154.368927 
	C910.471252,155.659592 909.373291,156.719177 908.248779,158.326202 
	C899.637939,135.749741 891.312561,114.079636 883.119385,92.359657 
	C880.002319,84.096306 870.767090,80.958282 863.579773,85.946266 
	C857.918274,89.875313 856.494507,94.942787 859.408569,102.803482 
	C871.610840,135.720062 883.915466,168.598770 896.218994,201.477707 
	C898.097229,206.496994 903.209717,209.986893 908.349976,210.000000 
	C914.255737,210.015030 919.805908,206.683151 921.701599,201.620224 
	C927.515137,186.094238 933.214050,170.525284 938.950989,154.970596 
	C941.374268,148.400040 943.781128,141.823395 946.461975,134.523956 
	C947.593079,136.480804 948.416260,137.530304 948.856018,138.721375 
	C956.284790,158.842361 963.565002,179.019180 971.159790,199.076965 
	C972.383484,202.308640 974.329163,205.945374 977.033752,207.809647 
	C984.897766,213.230103 994.507812,209.359024 997.951538,200.027390 
	C1001.327698,190.878799 1004.692688,181.726074 1008.098328,172.588486 
	C1016.839111,149.136078 1025.590332,125.687584 1034.361328,102.246536 
	C1035.831421,98.317665 1036.315186,94.452438 1033.967529,89.851555 
M580.018555,183.473969 
	C588.695374,171.155151 592.269043,157.523682 592.116821,142.416397 
	C591.754333,106.443977 592.001038,70.465431 591.999268,34.489365 
	C591.998840,25.757338 587.596191,21.030579 579.447449,21.000004 
	C571.342712,20.969597 566.012878,26.303490 566.005188,34.522018 
	C565.988464,52.510040 566.014465,70.498116 565.976685,88.486076 
	C565.973083,90.200752 565.643005,91.914742 565.405701,94.193390 
	C552.917419,85.416298 539.678711,82.495392 525.331848,82.913757 
	C509.694458,83.369743 496.308746,89.162949 485.118042,99.570084 
	C474.166504,109.754807 467.808411,122.388268 465.760773,137.624680 
	C463.181580,156.816010 468.185425,173.589478 480.496582,187.717117 
	C497.155609,206.834091 518.729431,213.364777 543.485168,207.887054 
	C558.391357,204.588776 570.463867,196.428482 580.018555,183.473969 
M1313.220947,86.069969 
	C1302.505249,83.015266 1291.617920,81.720184 1280.661987,84.222794 
	C1260.038696,88.933693 1244.429443,100.225342 1235.586914,119.889832 
	C1227.139526,138.675308 1227.354492,157.717773 1236.630859,175.815323 
	C1246.189575,194.463577 1261.857300,205.783508 1282.984863,209.121063 
	C1301.067627,211.977646 1317.911987,209.349075 1333.211182,198.932129 
	C1337.714233,195.865967 1339.673340,191.283905 1339.415039,185.985977 
	C1338.997559,177.421631 1328.672363,170.744461 1319.753052,176.644638 
	C1310.675903,182.649277 1300.570557,184.603622 1289.797852,184.030945 
	C1276.923950,183.346542 1261.258789,172.187424 1258.332642,159.000000 
	C1260.209717,159.000000 1262.024536,159.000000 1263.839355,159.000000 
	C1290.658325,159.000000 1317.477173,159.003326 1344.296143,158.997437 
	C1350.327637,158.996109 1354.750854,156.370148 1355.799438,150.416550 
	C1356.739990,145.075470 1356.873047,139.240051 1355.774536,133.952591 
	C1350.867798,110.334335 1337.008179,94.250160 1313.220947,86.069969 
M828.960999,203.537582 
	C832.024902,201.680435 835.198303,199.980011 838.129028,197.932205 
	C843.550049,194.144363 844.715271,185.219070 840.728027,179.371643 
	C837.654175,174.863754 829.341919,172.942490 824.643127,175.946533 
	C815.056335,182.075623 804.687744,184.975693 793.327698,183.985107 
	C779.872986,182.811829 765.777039,172.913940 762.308655,159.000000 
	C764.194031,159.000000 766.003357,159.000000 767.812622,159.000000 
	C794.802368,158.999985 821.792053,159.007156 848.781799,158.994141 
	C854.394531,158.991425 859.644653,154.895599 859.961487,149.959564 
	C861.450989,126.753616 853.588135,107.702950 833.960754,94.563293 
	C820.227661,85.369614 805.150940,81.401382 788.314392,83.822853 
	C775.021057,85.734726 763.419189,90.690788 753.836365,99.800735 
	C740.245178,112.721107 733.440369,128.486786 733.816833,147.666168 
	C734.117126,162.964676 738.735535,176.257233 748.377319,187.812607 
	C768.281189,211.666855 802.312622,215.791595 828.960999,203.537582 
M1045.923340,186.613449 
	C1046.460693,187.423309 1046.897827,188.326187 1047.550415,189.029129 
	C1058.334106,200.645966 1071.552490,207.058746 1087.359497,209.156876 
	C1104.033325,211.370041 1119.109497,208.459793 1132.716675,198.471161 
	C1134.848755,208.092987 1143.283203,212.026245 1151.263428,208.856339 
	C1157.918335,206.212906 1158.809814,200.180222 1158.915405,194.265137 
	C1159.174194,179.777176 1159.191284,165.277740 1158.908447,150.790680 
	C1158.790771,144.758850 1158.082397,138.663818 1156.912231,132.741821 
	C1153.866333,117.326683 1145.775513,105.019165 1133.174438,95.568909 
	C1118.120605,84.279243 1101.155029,81.599106 1083.240967,85.097015 
	C1060.139282,89.607872 1044.351807,103.502243 1036.140625,125.437119 
	C1032.526123,135.092606 1031.218628,145.180588 1032.798706,155.793304 
	C1034.487793,167.137909 1038.383545,177.155624 1045.923340,186.613449 
M1207.138794,82.199501 
	C1207.092529,66.040230 1207.046387,49.880962 1206.999878,33.721691 
	C1206.981323,27.274706 1202.459961,21.879324 1196.354736,21.018034 
	C1189.395142,20.036194 1184.010132,23.318090 1181.984253,30.049431 
	C1181.337036,32.200233 1181.053223,34.536484 1181.041504,36.790154 
	C1180.962036,52.062218 1181.000000,67.334900 1181.000000,83.000000 
	C1177.163330,83.000000 1173.860962,82.871643 1170.572876,83.035362 
	C1167.146240,83.205978 1163.679321,83.384056 1160.326050,84.045692 
	C1153.760376,85.341202 1150.172241,90.955841 1151.006470,98.081284 
	C1151.706055,104.056976 1157.034180,108.956673 1162.948120,108.992157 
	C1168.878662,109.027740 1174.809326,108.999969 1181.000000,108.999969 
	C1181.000000,114.637970 1181.000000,119.615944 1181.000000,124.593910 
	C1181.000000,148.420151 1181.051270,172.246567 1180.967651,196.072510 
	C1180.943481,202.956650 1186.227905,210.791992 1194.595337,210.235062 
	C1200.992188,209.809280 1207.282593,204.929581 1207.153320,196.383423 
	C1206.740112,169.064484 1207.000000,141.735352 1207.000000,114.410164 
	C1207.000000,112.663040 1207.000000,110.915916 1207.000000,108.999672 
	C1213.756714,108.999672 1219.783325,109.410828 1225.729492,108.895882 
	C1233.211060,108.247971 1236.496948,105.100044 1237.754883,96.563759 
	C1238.504395,91.476768 1233.596680,84.826271 1228.051880,84.113159 
	C1221.364990,83.253197 1214.569092,83.242813 1207.138794,82.199501 
M69.900269,200.117630 
	C59.795307,201.411713 49.706009,202.849289 39.580452,203.954758 
	C31.387251,204.849258 23.148321,205.319946 14.934115,206.030014 
	C12.312259,206.256653 11.390602,207.628769 12.591379,210.109756 
	C13.238074,211.445908 13.896199,212.780380 14.628167,214.070801 
	C21.462580,226.119400 30.396317,236.456238 40.407993,245.953903 
	C45.879246,251.144272 45.760849,251.249298 52.534756,247.193893 
	C54.651672,245.926559 56.916714,244.886658 58.948284,243.499969 
	C73.875931,233.310776 88.814323,223.135315 103.616737,212.766281 
	C106.645508,210.644623 108.970604,207.647064 107.686905,203.399841 
	C106.361084,199.013245 102.287476,199.872940 99.134140,199.033173 
	C98.356102,198.825974 97.475220,198.972122 96.643494,199.004410 
	C88.035553,199.338455 79.428001,199.682480 69.900269,200.117630 
M1227.000000,294.635956 
	C1226.498657,275.590332 1242.481934,263.608521 1261.398315,267.361023 
	C1272.622314,269.587585 1278.649658,279.592987 1278.916748,291.279114 
	C1279.259277,306.269653 1278.978394,321.273987 1279.012817,336.272247 
	C1279.023560,340.954956 1281.398071,343.671631 1284.837158,342.901642 
	C1288.448364,342.093109 1289.099243,339.345856 1289.021851,336.078766 
	C1288.640869,319.976166 1288.758789,303.849182 1287.899658,287.773560 
	C1286.676880,264.890533 1268.979614,255.046249 1248.194336,258.426239 
	C1239.875488,259.779022 1233.029541,264.045441 1227.349243,271.918243 
	C1227.186157,269.163574 1227.015869,267.591095 1227.012451,266.018219 
	C1226.988770,255.186142 1227.054077,244.353455 1226.952881,233.522278 
	C1226.933228,231.426056 1226.979858,228.744400 1225.791016,227.392136 
	C1224.307983,225.705185 1221.634888,224.896027 1219.322998,224.284744 
	C1218.968262,224.190948 1217.106934,227.191269 1217.101074,228.764847 
	C1216.969971,264.593750 1217.016235,300.423309 1216.974731,336.252625 
	C1216.970703,339.787781 1217.811279,342.800171 1221.828857,342.882935 
	C1226.165161,342.972229 1227.044800,339.833374 1227.026367,336.098755 
	C1226.959229,322.600586 1227.000000,309.101837 1227.000000,294.635956 
M846.581970,280.101868 
	C847.721313,285.680664 849.668030,291.234192 849.843445,296.843109 
	C850.306152,311.636841 850.000000,326.454620 850.000000,341.159241 
	C857.071106,344.074921 858.994385,342.909546 858.997742,335.928772 
	C859.005005,321.108673 859.514404,306.262451 858.762512,291.480591 
	C858.433167,285.005585 856.634094,278.061005 853.570007,272.370026 
	C843.800903,254.225311 817.780579,254.621597 805.524719,264.052002 
	C802.801819,266.147156 800.409729,268.672333 797.000000,271.790955 
	C797.000000,269.018829 797.000000,267.413574 797.000000,265.808319 
	C797.000000,254.651611 797.020020,243.494843 796.975586,232.338303 
	C796.969727,230.880432 796.857117,229.349243 796.402344,227.982315 
	C795.474731,225.194489 793.462708,223.046204 790.493958,224.247025 
	C789.202515,224.769440 788.109131,227.496887 788.102539,229.227341 
	C787.966492,265.028168 788.049622,300.829803 787.923218,336.630707 
	C787.910583,340.213898 788.877136,342.807922 792.481567,342.822662 
	C796.086975,342.837433 797.130798,340.273071 797.080078,336.667999 
	C796.883301,322.683289 796.816467,308.690918 797.061646,294.707703 
	C797.238647,284.615814 800.960632,276.044342 809.958923,270.631348 
	C820.559937,264.254242 839.912720,264.651520 846.581970,280.101868 
M1109.000000,333.369934 
	C1109.000000,299.217133 1108.976929,265.064301 1109.031860,230.911560 
	C1109.038086,227.030457 1107.662476,224.322021 1103.626953,224.073074 
	C1098.456177,223.754074 1100.062500,227.907898 1100.056274,230.508881 
	C1099.972046,265.161285 1099.999023,299.813934 1100.001587,334.466522 
	C1100.001831,338.019073 1099.002441,342.670349 1104.324219,342.781311 
	C1110.093018,342.901581 1108.948364,338.016907 1109.000000,333.369934 
z"/>
<path fill="#6BB2E2" opacity="1.000000" stroke="none" 
	d="
M151.532059,1.000000 
	C156.304214,1.658861 160.587952,2.537309 164.915970,2.940865 
	C192.525360,5.515234 216.695389,16.564953 237.926956,33.798573 
	C246.567169,40.811836 253.627853,49.781033 261.309998,57.951706 
	C262.248444,58.949833 262.581635,60.517036 263.449341,62.360012 
	C250.308090,65.655212 237.612488,68.659737 225.015991,72.034126 
	C197.912354,79.294731 170.706696,86.234299 143.832932,94.274925 
	C120.886917,101.140366 98.308136,109.249878 75.652412,117.057167 
	C69.939941,119.025711 64.506744,121.843239 59.034122,124.456795 
	C54.758823,126.498558 52.338318,129.887589 53.436264,134.797256 
	C54.539616,139.731079 58.530334,142.810608 63.839809,142.974518 
	C76.943031,143.379013 90.051453,143.615524 103.154587,144.022415 
	C109.206596,144.210358 115.251137,144.638824 121.299065,144.958221 
	C121.419861,145.387024 121.540657,145.815811 121.661453,146.244598 
	C115.417542,148.860306 109.284760,151.792114 102.909157,154.033188 
	C82.756607,161.116913 62.440701,167.739822 42.333065,174.945831 
	C30.910084,179.039490 19.770454,183.923828 7.794187,188.737045 
	C6.213972,181.040970 4.628635,173.199799 2.968237,165.374573 
	C2.742584,164.311081 2.141280,163.327286 1.356954,162.153290 
	C1.000000,161.555557 1.000000,161.111099 1.327361,160.140289 
	C1.436482,157.742630 1.218240,155.871307 1.000000,154.000000 
	C1.000000,147.645599 1.000000,141.291214 1.319931,134.290039 
	C1.426575,132.095505 1.213287,130.547760 1.000000,129.000000 
	C1.000000,128.555557 1.000000,128.111115 1.356884,127.180084 
	C2.137484,125.839569 2.830297,125.019997 2.944437,124.126503 
	C4.583726,111.294159 8.333717,99.065430 13.902526,87.450150 
	C24.158129,66.059280 38.058025,47.453926 56.316795,32.100101 
	C74.926468,16.451208 96.121742,6.750819 120.092789,3.006709 
	C124.720116,2.283952 129.363846,1.666196 134.000000,1.000000 
	C139.688034,1.000000 145.376083,1.000000 151.532059,1.000000 
z"/>
<path fill="#FFFFFF" opacity="1.000000" stroke="none" 
	d="
M133.531342,1.000000 
	C129.363846,1.666196 124.720116,2.283952 120.092789,3.006709 
	C96.121742,6.750819 74.926468,16.451208 56.316795,32.100101 
	C38.058025,47.453926 24.158129,66.059280 13.902526,87.450150 
	C8.333717,99.065430 4.583726,111.294159 2.944437,124.126503 
	C2.830297,125.019997 2.137484,125.839569 1.356884,126.846756 
	C1.000000,85.071045 1.000000,43.142086 1.000000,1.000000 
	C45.020664,1.000000 89.041672,1.000000 133.531342,1.000000 
z"/>
<path fill="#42758F" opacity="1.000000" stroke="none" 
	d="
M1441.000000,101.541931 
	C1436.332764,108.283791 1429.385376,109.035019 1422.355347,110.044296 
	C1402.810547,112.850311 1390.502930,129.134735 1390.075317,147.914413 
	C1389.711182,163.903778 1389.655029,179.918274 1390.129883,195.901810 
	C1390.412964,205.430298 1384.416748,209.536636 1379.060913,210.046707 
	C1368.843994,211.019699 1364.437256,205.106964 1364.160400,196.532364 
	C1363.623169,179.885498 1363.602539,163.196609 1364.118042,146.548355 
	C1364.616821,130.442276 1369.712158,115.615746 1380.935181,103.767517 
	C1391.803223,92.294083 1405.100098,85.060440 1421.315063,83.922600 
	C1426.342407,83.569809 1431.364136,82.121140 1435.677368,85.951172 
	C1437.346802,87.433571 1438.786377,89.174812 1440.665283,90.899063 
	C1441.000000,94.361290 1441.000000,97.722572 1441.000000,101.541931 
z"/>
<path fill="#48C1BB" opacity="1.000000" stroke="none" 
	d="
M921.466858,344.000000 
	C918.753113,342.888947 916.566650,341.628632 914.249512,340.691193 
	C899.805908,334.847748 892.557495,323.766693 889.870667,308.765350 
	C887.916382,297.854462 889.809021,287.889313 894.925964,278.331818 
	C902.004028,265.111176 913.403015,258.844177 928.080994,258.008179 
	C937.560974,257.468201 946.245789,259.271057 954.029846,265.350525 
	C963.150391,272.473816 966.975342,281.957489 967.962708,292.981903 
	C968.211670,295.761963 968.000000,298.583252 968.000000,301.898254 
	C944.532471,301.898254 921.456543,301.898254 898.441833,301.898254 
	C898.978455,314.759460 904.212646,324.571289 914.735718,331.134888 
	C926.445374,338.438599 949.415405,336.738159 957.923279,322.679352 
	C959.018372,320.869781 959.816101,317.396423 963.371033,319.753540 
	C966.598877,321.893860 966.731567,324.790924 965.017883,327.863556 
	C959.535461,337.693329 950.276001,341.335510 939.853271,342.996094 
	C939.037903,343.125946 938.213501,343.198914 937.196655,343.649170 
	C931.977905,344.000000 926.955811,344.000000 921.466858,344.000000 
M951.918030,275.684692 
	C943.240967,266.648407 932.873718,263.815063 920.919861,267.583801 
	C908.175781,271.601624 902.117249,281.257874 899.078552,293.834412 
	C919.182922,293.834412 938.813110,293.834412 960.086914,293.834412 
	C957.189575,287.505280 954.647400,281.951904 951.918030,275.684692 
z"/>
<path fill="#48C1BB" opacity="1.000000" stroke="none" 
	d="
M1017.444153,344.000000 
	C1013.058838,342.682556 1009.015564,341.607330 1005.197327,339.998169 
	C996.715515,336.423645 993.545837,328.972504 993.237793,320.642242 
	C992.929688,312.310822 997.134033,305.171448 1004.735718,302.013580 
	C1012.765808,298.677795 1021.489868,296.672058 1030.100220,295.175812 
	C1037.691650,293.856659 1045.544312,294.040741 1053.317627,293.558807 
	C1056.462646,280.202209 1048.121216,268.625946 1034.432861,266.942200 
	C1020.566650,265.236511 1009.738708,269.591217 1002.301147,281.725739 
	C996.751587,280.798584 995.161682,277.318085 998.069031,272.424011 
	C1003.433289,263.393860 1012.385010,259.670898 1021.858948,258.389893 
	C1032.097900,257.005371 1042.584717,257.056244 1051.736328,263.854218 
	C1058.739868,269.056488 1062.532715,276.187134 1062.810059,284.350983 
	C1063.419922,302.309052 1063.062988,320.302704 1062.885864,338.279755 
	C1062.870850,339.804474 1061.247925,341.313385 1060.372070,342.829651 
	C1058.581543,341.707489 1055.852661,340.968475 1055.204102,339.380066 
	C1054.008179,336.450989 1054.033691,333.023254 1053.418457,328.926208 
	C1046.100220,338.018768 1036.887695,343.034332 1025.203125,343.645447 
	C1022.629456,344.000000 1020.258850,344.000000 1017.444153,344.000000 
M1042.208374,301.980743 
	C1031.780640,302.009399 1021.488831,302.979492 1011.953247,307.588959 
	C1005.469727,310.723083 1002.143738,316.903168 1003.017456,323.205078 
	C1003.744019,328.445129 1008.670044,333.803711 1015.074158,334.780243 
	C1020.150085,335.554230 1025.628174,335.851990 1030.593628,334.793610 
	C1047.013062,331.293823 1057.130371,317.020660 1053.199463,300.704529 
	C1049.909302,301.093719 1046.522461,301.494324 1042.208374,301.980743 
z"/>
<path fill="#48C1BB" opacity="1.000000" stroke="none" 
	d="
M1165.467529,344.000000 
	C1162.359375,341.857422 1159.096191,340.146576 1157.234985,337.463348 
	C1154.891479,334.084534 1152.474609,329.989868 1152.221191,326.066437 
	C1151.323486,312.165405 1151.301270,298.206360 1151.016968,284.267883 
	C1150.911865,279.114075 1151.000000,273.956329 1151.000000,268.000000 
	C1148.700073,268.000000 1146.620117,268.002289 1144.540283,267.999573 
	C1137.628662,267.990540 1137.432373,267.748077 1138.525757,260.111938 
	C1142.393677,260.111938 1146.335571,260.111938 1150.608521,260.111938 
	C1150.964478,253.264252 1151.301270,246.786774 1151.643921,240.195068 
	C1154.876465,240.195068 1157.153687,240.195068 1160.417236,240.195068 
	C1160.417236,246.712616 1160.417236,253.049164 1160.417236,259.958099 
	C1170.116699,259.958099 1178.845703,259.958099 1187.483521,259.958099 
	C1188.536987,267.794647 1188.374146,267.995361 1181.422119,267.999207 
	C1174.797119,268.002869 1168.172119,268.000000 1161.000000,268.000000 
	C1161.000000,273.240082 1161.000000,278.023621 1161.000000,282.807159 
	C1161.000000,295.639404 1160.976562,308.471741 1161.010986,321.303894 
	C1161.025879,326.866760 1162.448975,331.707550 1167.936157,334.466370 
	C1174.004150,337.517151 1178.965088,334.974304 1183.906860,331.655029 
	C1185.373657,330.669708 1187.164185,330.166412 1188.806396,329.442200 
	C1188.947144,331.736938 1190.000000,334.579163 1189.024780,336.204163 
	C1187.367310,338.965912 1184.432495,340.961029 1182.017212,343.639160 
	C1176.645020,344.000000 1171.290161,344.000000 1165.467529,344.000000 
z"/>
<path fill="#FFFFFF" opacity="1.000000" stroke="none" 
	d="
M1.000000,154.428467 
	C1.218240,155.871307 1.436482,157.742630 1.327361,159.806976 
	C1.000000,158.285645 1.000000,156.571289 1.000000,154.428467 
z"/>
<path fill="#FFFFFF" opacity="1.000000" stroke="none" 
	d="
M1.000000,129.416656 
	C1.213287,130.547760 1.426575,132.095505 1.319931,133.821625 
	C1.000000,132.611115 1.000000,131.222214 1.000000,129.416656 
z"/>
<path fill="#65C8C7" opacity="1.000000" stroke="none" 
	d="
M180.330353,222.295959 
	C195.066086,214.348663 208.371155,205.005035 220.477493,193.986588 
	C223.828796,190.936432 225.625916,187.222015 223.793121,182.596008 
	C221.905930,177.832764 218.170547,176.128021 213.243591,175.965439 
	C194.331467,175.341339 175.700974,177.575989 157.107712,180.784744 
	C149.659927,182.070068 142.030746,182.314392 134.480545,182.992691 
	C129.476624,183.442245 124.466331,183.820969 119.458893,184.231415 
	C119.239960,183.599823 119.021034,182.968231 118.802101,182.336639 
	C123.158279,180.086456 127.446396,177.690842 131.883804,175.614212 
	C143.667496,170.099686 155.520828,164.734070 167.336914,159.288513 
	C185.140717,151.083435 202.918396,142.821426 220.745819,134.668076 
	C226.554947,132.011261 229.973938,127.285767 227.938522,123.212646 
	C226.863708,121.061806 224.180450,118.304214 222.181671,118.270172 
	C213.600327,118.124039 204.997345,118.793541 196.414871,119.357925 
	C191.995987,119.648514 187.613525,120.461472 183.197189,120.828812 
	C173.657822,121.622292 164.107925,122.291008 154.559692,122.973755 
	C153.820160,123.026634 153.059906,122.789711 150.970413,122.505165 
	C153.058228,120.795807 154.122406,119.665329 155.407425,118.911087 
	C176.648575,106.443733 199.465195,97.376152 222.161911,88.049957 
	C236.756210,82.053085 251.375961,76.115532 265.901672,69.956474 
	C269.108063,68.596939 270.826447,68.959152 272.727600,72.065201 
	C281.327606,86.115730 287.164459,101.246292 289.860107,117.408226 
	C291.589325,127.775772 293.107941,138.398453 292.777924,148.845398 
	C291.999512,173.484634 286.578156,197.203064 273.174225,218.292603 
	C266.583954,228.661697 259.740204,239.242828 251.166153,247.900909 
	C232.877777,266.368469 211.619568,280.782593 185.687439,286.480682 
	C178.783844,287.997589 171.434036,288.131958 164.320877,287.904877 
	C151.581512,287.498260 144.587921,274.154327 144.006195,264.264832 
	C143.045700,247.936020 152.841934,238.467575 165.460129,230.870316 
	C170.255112,227.983337 175.159225,225.277603 180.330353,222.295959 
z"/>
<path fill="#42758F" opacity="1.000000" stroke="none" 
	d="
M631.698364,231.178589 
	C637.670044,238.664734 644.717773,243.871277 653.821045,246.040741 
	C665.387878,248.797272 675.879700,246.447418 685.224182,239.240860 
	C698.657959,228.880646 701.441528,214.572372 699.859131,199.898407 
	C691.266479,202.862518 682.510986,206.775848 673.339600,208.850876 
	C656.909973,212.568115 641.375122,208.956360 627.430420,199.687668 
	C611.808899,189.304474 602.589294,174.737061 599.936218,155.949707 
	C596.204163,129.521729 605.994080,108.734398 627.143005,93.762695 
	C639.761658,84.829712 654.457764,81.669373 670.464966,83.767975 
	C692.472473,86.653252 707.948303,98.307236 718.815247,116.753418 
	C723.477112,124.666824 725.892761,133.635712 725.951050,142.921661 
	C726.098572,166.408768 726.299255,189.902710 725.884277,213.383408 
	C725.647095,226.800049 720.624634,238.752975 712.226013,249.331253 
	C701.631226,262.675446 687.676331,270.563446 671.139343,272.671448 
	C653.665039,274.898834 637.373108,270.794769 623.034485,259.698059 
	C615.276917,253.694427 609.668396,246.195404 605.413330,237.669281 
	C602.172058,231.174454 604.983276,222.474030 610.773804,220.208160 
	C618.381958,217.231079 624.921814,218.945816 629.170105,226.566574 
	C629.966431,227.995102 630.683899,229.467651 631.698364,231.178589 
M639.559814,176.044830 
	C645.599915,180.399460 652.082642,183.548981 659.696777,184.022537 
	C672.465698,184.816711 682.689819,179.934006 691.025635,170.486832 
	C698.577148,161.928574 701.617676,151.708664 699.694153,140.810043 
	C696.063721,120.240265 676.126892,105.403473 654.867676,109.828743 
	C639.753052,112.974983 625.323669,129.010040 624.929016,144.416336 
	C624.601257,157.215469 629.712463,167.265854 639.559814,176.044830 
z"/>
<path fill="#42758F" opacity="1.000000" stroke="none" 
	d="
M1034.062744,90.230545 
	C1036.315186,94.452438 1035.831421,98.317665 1034.361328,102.246536 
	C1025.590332,125.687584 1016.839111,149.136078 1008.098328,172.588486 
	C1004.692688,181.726074 1001.327698,190.878799 997.951538,200.027390 
	C994.507812,209.359024 984.897766,213.230103 977.033752,207.809647 
	C974.329163,205.945374 972.383484,202.308640 971.159790,199.076965 
	C963.565002,179.019180 956.284790,158.842361 948.856018,138.721375 
	C948.416260,137.530304 947.593079,136.480804 946.461975,134.523956 
	C943.781128,141.823395 941.374268,148.400040 938.950989,154.970596 
	C933.214050,170.525284 927.515137,186.094238 921.701599,201.620224 
	C919.805908,206.683151 914.255737,210.015030 908.349976,210.000000 
	C903.209717,209.986893 898.097229,206.496994 896.218994,201.477707 
	C883.915466,168.598770 871.610840,135.720062 859.408569,102.803482 
	C856.494507,94.942787 857.918274,89.875313 863.579773,85.946266 
	C870.767090,80.958282 880.002319,84.096306 883.119385,92.359657 
	C891.312561,114.079636 899.637939,135.749741 908.248779,158.326202 
	C909.373291,156.719177 910.471252,155.659592 910.964539,154.368927 
	C918.681213,134.177460 926.352112,113.968300 933.959290,93.735260 
	C936.676880,86.507050 939.486755,84.393082 945.777161,83.924454 
	C953.416992,83.355301 957.029785,86.675629 959.608643,93.338783 
	C966.295959,110.616959 972.546387,128.063980 979.005371,145.430923 
	C980.573608,149.647675 982.273438,153.815521 983.912720,158.005875 
	C984.367126,158.032059 984.821472,158.058228 985.275879,158.084412 
	C987.859253,151.468292 990.495667,144.872345 993.015015,138.231934 
	C998.663757,123.343552 1003.960571,108.313614 1009.959229,93.568527 
	C1014.964844,81.264305 1025.490845,79.853874 1034.062744,90.230545 
z"/>
<path fill="#42758F" opacity="1.000000" stroke="none" 
	d="
M579.768799,183.740479 
	C570.463867,196.428482 558.391357,204.588776 543.485168,207.887054 
	C518.729431,213.364777 497.155609,206.834091 480.496582,187.717117 
	C468.185425,173.589478 463.181580,156.816010 465.760773,137.624680 
	C467.808411,122.388268 474.166504,109.754807 485.118042,99.570084 
	C496.308746,89.162949 509.694458,83.369743 525.331848,82.913757 
	C539.678711,82.495392 552.917419,85.416298 565.405701,94.193390 
	C565.643005,91.914742 565.973083,90.200752 565.976685,88.486076 
	C566.014465,70.498116 565.988464,52.510040 566.005188,34.522018 
	C566.012878,26.303490 571.342712,20.969597 579.447449,21.000004 
	C587.596191,21.030579 591.998840,25.757338 591.999268,34.489365 
	C592.001038,70.465431 591.754333,106.443977 592.116821,142.416397 
	C592.269043,157.523682 588.695374,171.155151 579.768799,183.740479 
M530.391113,109.000000 
	C527.230835,109.032578 523.927856,108.472237 520.933105,109.192795 
	C499.627563,114.319122 487.470062,135.163589 491.950653,154.521210 
	C496.497742,174.166153 517.881165,186.256042 534.356323,183.300919 
	C555.603882,179.489777 570.503723,158.184814 564.996155,136.566895 
	C561.154663,121.488228 546.106323,109.066666 530.391113,109.000000 
z"/>
<path fill="#42758F" opacity="1.000000" stroke="none" 
	d="
M1313.581787,86.258888 
	C1337.008179,94.250160 1350.867798,110.334335 1355.774536,133.952591 
	C1356.873047,139.240051 1356.739990,145.075470 1355.799438,150.416550 
	C1354.750854,156.370148 1350.327637,158.996109 1344.296143,158.997437 
	C1317.477173,159.003326 1290.658325,159.000000 1263.839355,159.000000 
	C1262.024536,159.000000 1260.209717,159.000000 1258.332642,159.000000 
	C1261.258789,172.187424 1276.923950,183.346542 1289.797852,184.030945 
	C1300.570557,184.603622 1310.675903,182.649277 1319.753052,176.644638 
	C1328.672363,170.744461 1338.997559,177.421631 1339.415039,185.985977 
	C1339.673340,191.283905 1337.714233,195.865967 1333.211182,198.932129 
	C1317.911987,209.349075 1301.067627,211.977646 1282.984863,209.121063 
	C1261.857300,205.783508 1246.189575,194.463577 1236.630859,175.815323 
	C1227.354492,157.717773 1227.139526,138.675308 1235.586914,119.889832 
	C1244.429443,100.225342 1260.038696,88.933693 1280.661987,84.222794 
	C1291.617920,81.720184 1302.505249,83.015266 1313.581787,86.258888 
M1261.894287,134.000000 
	C1284.021362,134.000000 1306.148560,134.000000 1328.294800,134.000000 
	C1326.454712,120.747330 1310.399780,109.641327 1294.733032,108.999710 
	C1277.535522,108.295387 1261.205811,121.206833 1258.503174,133.884933 
	C1259.345459,133.923630 1260.171631,133.961594 1261.894287,134.000000 
z"/>
<path fill="#42758F" opacity="1.000000" stroke="none" 
	d="
M828.634766,203.738647 
	C802.312622,215.791595 768.281189,211.666855 748.377319,187.812607 
	C738.735535,176.257233 734.117126,162.964676 733.816833,147.666168 
	C733.440369,128.486786 740.245178,112.721107 753.836365,99.800735 
	C763.419189,90.690788 775.021057,85.734726 788.314392,83.822853 
	C805.150940,81.401382 820.227661,85.369614 833.960754,94.563293 
	C853.588135,107.702950 861.450989,126.753616 859.961487,149.959564 
	C859.644653,154.895599 854.394531,158.991425 848.781799,158.994141 
	C821.792053,159.007156 794.802368,158.999985 767.812622,159.000000 
	C766.003357,159.000000 764.194031,159.000000 762.308655,159.000000 
	C765.777039,172.913940 779.872986,182.811829 793.327698,183.985107 
	C804.687744,184.975693 815.056335,182.075623 824.643127,175.946533 
	C829.341919,172.942490 837.654175,174.863754 840.728027,179.371643 
	C844.715271,185.219070 843.550049,194.144363 838.129028,197.932205 
	C835.198303,199.980011 832.024902,201.680435 828.634766,203.738647 
M764.110474,133.995972 
	C786.852173,133.995972 809.593872,133.995972 833.535889,133.995972 
	C830.326904,128.968460 828.276672,123.880547 824.667603,120.417244 
	C806.116699,102.615723 779.376587,106.181160 765.272217,126.595444 
	C763.905212,128.574005 763.891479,131.487534 764.110474,133.995972 
z"/>
<path fill="#42758F" opacity="1.000000" stroke="none" 
	d="
M438.044739,180.888153 
	C438.625977,184.124420 439.207214,187.360703 439.089661,190.839554 
	C436.941406,193.426193 435.491943,195.770248 434.042480,198.114319 
	C427.385834,203.969101 419.320618,207.292618 410.890015,208.783249 
	C394.778778,211.631943 378.715790,211.096573 363.941559,202.931427 
	C345.409363,192.689377 334.074127,177.243805 330.954498,155.981323 
	C327.485474,132.337433 335.415192,112.921425 353.113403,97.614105 
	C361.943451,89.976936 372.566986,85.501518 384.474274,83.880402 
	C402.273926,81.457085 418.265198,85.459023 432.576538,95.973450 
	C445.679230,105.599930 453.874512,118.439857 455.977844,134.788681 
	C456.501312,138.857407 456.898499,142.969055 456.949371,147.065994 
	C457.038879,154.277359 452.196869,158.984024 444.905365,158.990143 
	C416.258301,159.014175 387.611267,158.999985 358.217285,158.999985 
	C362.907623,170.273422 370.221039,178.449219 381.630646,181.819321 
	C387.485596,183.548691 393.909180,183.352737 400.549622,184.466629 
	C401.596069,185.557541 402.383331,186.867722 402.709412,186.761551 
	C408.143677,184.992035 413.791046,183.573395 418.832886,180.988251 
	C423.800201,178.441315 428.016388,178.113480 431.588776,182.030777 
	C434.529633,185.255554 436.345367,183.809647 438.044739,180.888153 
M389.905579,109.007896 
	C388.484070,109.342567 387.059753,109.665916 385.641449,110.013664 
	C372.476898,113.241379 363.480896,121.179596 358.381378,133.633789 
	C382.055054,133.633789 405.413025,133.633789 428.843811,133.633789 
	C426.017792,120.546333 409.278687,107.660179 389.905579,109.007896 
z"/>
<path fill="#42758F" opacity="1.000000" stroke="none" 
	d="
M1045.712158,186.318481 
	C1038.383545,177.155624 1034.487793,167.137909 1032.798706,155.793304 
	C1031.218628,145.180588 1032.526123,135.092606 1036.140625,125.437119 
	C1044.351807,103.502243 1060.139282,89.607872 1083.240967,85.097015 
	C1101.155029,81.599106 1118.120605,84.279243 1133.174438,95.568909 
	C1145.775513,105.019165 1153.866333,117.326683 1156.912231,132.741821 
	C1158.082397,138.663818 1158.790771,144.758850 1158.908447,150.790680 
	C1159.191284,165.277740 1159.174194,179.777176 1158.915405,194.265137 
	C1158.809814,200.180222 1157.918335,206.212906 1151.263428,208.856339 
	C1143.283203,212.026245 1134.848755,208.092987 1132.716675,198.471191 
	C1119.109497,208.459793 1104.033325,211.370041 1087.359497,209.156876 
	C1071.552490,207.058746 1058.334106,200.645966 1047.550415,189.029129 
	C1046.897827,188.326187 1046.460693,187.423309 1045.712158,186.318481 
M1071.543701,118.967720 
	C1068.919312,121.927673 1065.799194,124.582291 1063.755127,127.899803 
	C1054.258179,143.313156 1056.078369,160.099503 1068.607788,172.866608 
	C1076.863525,181.278778 1087.557129,184.867538 1099.547363,184.017258 
	C1111.572632,183.164474 1120.747314,177.329391 1127.046509,167.421280 
	C1135.482544,154.151917 1134.882935,140.503357 1127.001709,127.106194 
	C1120.219360,115.576973 1109.628174,109.744591 1096.674194,109.197365 
	C1087.539429,108.811485 1079.186646,112.505806 1071.543701,118.967720 
z"/>
<path fill="#42758F" opacity="1.000000" stroke="none" 
	d="
M1207.479492,82.532089 
	C1214.569092,83.242813 1221.364990,83.253197 1228.051880,84.113159 
	C1233.596680,84.826271 1238.504395,91.476768 1237.754883,96.563759 
	C1236.496948,105.100044 1233.211060,108.247971 1225.729492,108.895882 
	C1219.783325,109.410828 1213.756714,108.999672 1207.000000,108.999672 
	C1207.000000,110.915916 1207.000000,112.663040 1207.000000,114.410164 
	C1207.000000,141.735352 1206.740112,169.064484 1207.153320,196.383423 
	C1207.282593,204.929581 1200.992188,209.809280 1194.595337,210.235062 
	C1186.227905,210.791992 1180.943481,202.956650 1180.967651,196.072510 
	C1181.051270,172.246567 1181.000000,148.420151 1181.000000,124.593910 
	C1181.000000,119.615944 1181.000000,114.637970 1181.000000,108.999969 
	C1174.809326,108.999969 1168.878662,109.027740 1162.948120,108.992157 
	C1157.034180,108.956673 1151.706055,104.056976 1151.006470,98.081284 
	C1150.172241,90.955841 1153.760376,85.341202 1160.326050,84.045692 
	C1163.679321,83.384056 1167.146240,83.205978 1170.572876,83.035362 
	C1173.860962,82.871643 1177.163330,83.000000 1181.000000,83.000000 
	C1181.000000,67.334900 1180.962036,52.062218 1181.041504,36.790154 
	C1181.053223,34.536484 1181.337036,32.200233 1181.984253,30.049431 
	C1184.010132,23.318090 1189.395142,20.036194 1196.354736,21.018034 
	C1202.459961,21.879324 1206.981323,27.274706 1206.999878,33.721691 
	C1207.046387,49.880962 1207.092529,66.040230 1207.479492,82.532089 
z"/>
<path fill="#6BB2E2" opacity="1.000000" stroke="none" 
	d="
M70.360306,200.070679 
	C79.428001,199.682480 88.035553,199.338455 96.643494,199.004410 
	C97.475220,198.972122 98.356102,198.825974 99.134140,199.033173 
	C102.287476,199.872940 106.361084,199.013245 107.686905,203.399841 
	C108.970604,207.647064 106.645508,210.644623 103.616737,212.766281 
	C88.814323,223.135315 73.875931,233.310776 58.948284,243.499969 
	C56.916714,244.886658 54.651672,245.926559 52.534756,247.193893 
	C45.760849,251.249298 45.879246,251.144272 40.407993,245.953903 
	C30.396317,236.456238 21.462580,226.119400 14.628167,214.070801 
	C13.896199,212.780380 13.238074,211.445908 12.591379,210.109756 
	C11.390602,207.628769 12.312259,206.256653 14.934115,206.030014 
	C23.148321,205.319946 31.387251,204.849258 39.580452,203.954758 
	C49.706009,202.849289 59.795307,201.411713 70.360306,200.070679 
z"/>
<path fill="#48C1BB" opacity="1.000000" stroke="none" 
	d="
M1227.000000,295.119629 
	C1227.000000,309.101837 1226.959229,322.600586 1227.026367,336.098755 
	C1227.044800,339.833374 1226.165161,342.972229 1221.828857,342.882935 
	C1217.811279,342.800171 1216.970703,339.787781 1216.974731,336.252625 
	C1217.016235,300.423309 1216.969971,264.593750 1217.101074,228.764847 
	C1217.106934,227.191269 1218.968262,224.190948 1219.322998,224.284744 
	C1221.634888,224.896027 1224.307983,225.705185 1225.791016,227.392136 
	C1226.979858,228.744400 1226.933228,231.426056 1226.952881,233.522278 
	C1227.054077,244.353455 1226.988770,255.186142 1227.012451,266.018219 
	C1227.015869,267.591095 1227.186157,269.163574 1227.349243,271.918243 
	C1233.029541,264.045441 1239.875488,259.779022 1248.194336,258.426239 
	C1268.979614,255.046249 1286.676880,264.890533 1287.899658,287.773560 
	C1288.758789,303.849182 1288.640869,319.976166 1289.021851,336.078766 
	C1289.099243,339.345856 1288.448364,342.093109 1284.837158,342.901642 
	C1281.398071,343.671631 1279.023560,340.954956 1279.012817,336.272247 
	C1278.978394,321.273987 1279.259277,306.269653 1278.916748,291.279114 
	C1278.649658,279.592987 1272.622314,269.587585 1261.398315,267.361023 
	C1242.481934,263.608521 1226.498657,275.590332 1227.000000,295.119629 
z"/>
<path fill="#48C1BB" opacity="1.000000" stroke="none" 
	d="
M846.354187,279.791504 
	C839.912720,264.651520 820.559937,264.254242 809.958923,270.631348 
	C800.960632,276.044342 797.238647,284.615814 797.061646,294.707703 
	C796.816467,308.690918 796.883301,322.683289 797.080078,336.667999 
	C797.130798,340.273071 796.086975,342.837433 792.481567,342.822662 
	C788.877136,342.807922 787.910583,340.213898 787.923218,336.630707 
	C788.049622,300.829803 787.966492,265.028168 788.102539,229.227341 
	C788.109131,227.496887 789.202515,224.769440 790.493958,224.247025 
	C793.462708,223.046204 795.474731,225.194489 796.402344,227.982315 
	C796.857117,229.349243 796.969727,230.880432 796.975586,232.338303 
	C797.020020,243.494843 797.000000,254.651611 797.000000,265.808319 
	C797.000000,267.413574 797.000000,269.018829 797.000000,271.790955 
	C800.409729,268.672333 802.801819,266.147156 805.524719,264.052002 
	C817.780579,254.621597 843.800903,254.225311 853.570007,272.370026 
	C856.634094,278.061005 858.433167,285.005585 858.762512,291.480591 
	C859.514404,306.262451 859.005005,321.108673 858.997742,335.928772 
	C858.994385,342.909546 857.071106,344.074921 850.000000,341.159241 
	C850.000000,326.454620 850.306152,311.636841 849.843445,296.843109 
	C849.668030,291.234192 847.721313,285.680664 846.354187,279.791504 
z"/>
<path fill="#48C1BB" opacity="1.000000" stroke="none" 
	d="
M1109.000000,333.848358 
	C1108.948364,338.016907 1110.093018,342.901581 1104.324219,342.781311 
	C1099.002441,342.670349 1100.001831,338.019073 1100.001587,334.466522 
	C1099.999023,299.813934 1099.972046,265.161285 1100.056274,230.508881 
	C1100.062500,227.907898 1098.456177,223.754074 1103.626953,224.073074 
	C1107.662476,224.322021 1109.038086,227.030457 1109.031860,230.911560 
	C1108.976929,265.064301 1109.000000,299.217133 1109.000000,333.848358 
z"/>
<path fill="#42758F" opacity="1.000000" stroke="none" 
	d="
M437.902100,180.574341 
	C436.345367,183.809647 434.529633,185.255554 431.588776,182.030777 
	C428.016388,178.113480 423.800201,178.441315 418.832886,180.988251 
	C413.791046,183.573395 408.143677,184.992035 402.709412,186.761551 
	C402.383331,186.867722 401.596069,185.557541 401.011414,184.536530 
	C407.860718,181.393723 414.779175,178.752426 421.564240,175.804138 
	C426.539246,173.642349 432.610535,173.863068 437.902100,180.574341 
z"/>
<path fill="#42758F" opacity="1.000000" stroke="none" 
	d="
M434.353516,197.970520 
	C435.491943,195.770248 436.941406,193.426193 438.753174,191.061829 
	C437.631805,193.303268 436.148163,195.565002 434.353516,197.970520 
z"/>
<path fill="#FFFFFF" opacity="1.000000" stroke="none" 
	d="
M952.011597,276.041595 
	C954.647400,281.951904 957.189575,287.505280 960.086914,293.834412 
	C938.813110,293.834412 919.182922,293.834412 899.078552,293.834412 
	C902.117249,281.257874 908.175781,271.601624 920.919861,267.583801 
	C932.873718,263.815063 943.240967,266.648407 952.011597,276.041595 
z"/>
<path fill="#FFFFFF" opacity="1.000000" stroke="none" 
	d="
M1042.671997,301.937836 
	C1046.522461,301.494324 1049.909302,301.093719 1053.199463,300.704529 
	C1057.130371,317.020660 1047.013062,331.293823 1030.593628,334.793610 
	C1025.628174,335.851990 1020.150085,335.554230 1015.074158,334.780243 
	C1008.670044,333.803711 1003.744019,328.445129 1003.017456,323.205078 
	C1002.143738,316.903168 1005.469727,310.723083 1011.953247,307.588959 
	C1021.488831,302.979492 1031.780640,302.009399 1042.671997,301.937836 
z"/>
<path fill="#FFFFFF" opacity="1.000000" stroke="none" 
	d="
M639.298096,175.796417 
	C629.712463,167.265854 624.601257,157.215469 624.929016,144.416336 
	C625.323669,129.010040 639.753052,112.974983 654.867676,109.828743 
	C676.126892,105.403473 696.063721,120.240265 699.694153,140.810043 
	C701.617676,151.708664 698.577148,161.928574 691.025635,170.486832 
	C682.689819,179.934006 672.465698,184.816711 659.696777,184.022537 
	C652.082642,183.548981 645.599915,180.399460 639.298096,175.796417 
z"/>
<path fill="#FFFFFF" opacity="1.000000" stroke="none" 
	d="
M530.862183,109.000000 
	C546.106323,109.066666 561.154663,121.488228 564.996155,136.566895 
	C570.503723,158.184814 555.603882,179.489777 534.356323,183.300919 
	C517.881165,186.256042 496.497742,174.166153 491.950653,154.521210 
	C487.470062,135.163589 499.627563,114.319122 520.933105,109.192795 
	C523.927856,108.472237 527.230835,109.032578 530.862183,109.000000 
z"/>
<path fill="#FFFFFF" opacity="1.000000" stroke="none" 
	d="
M1261.446045,133.999771 
	C1260.171631,133.961594 1259.345459,133.923630 1258.503174,133.884933 
	C1261.205811,121.206833 1277.535522,108.295387 1294.733032,108.999710 
	C1310.399780,109.641327 1326.454712,120.747330 1328.294800,134.000000 
	C1306.148560,134.000000 1284.021362,134.000000 1261.446045,133.999771 
z"/>
<path fill="#FFFFFF" opacity="1.000000" stroke="none" 
	d="
M763.679993,133.981506 
	C763.891479,131.487534 763.905212,128.574005 765.272217,126.595444 
	C779.376587,106.181160 806.116699,102.615723 824.667603,120.417244 
	C828.276672,123.880547 830.326904,128.968460 833.535889,133.995972 
	C809.593872,133.995972 786.852173,133.995972 763.679993,133.981506 
z"/>
<path fill="#FFFFFF" opacity="1.000000" stroke="none" 
	d="
M390.359009,109.004456 
	C409.278687,107.660179 426.017792,120.546333 428.843811,133.633789 
	C405.413025,133.633789 382.055054,133.633789 358.381378,133.633789 
	C363.480896,121.179596 372.476898,113.241379 385.641449,110.013664 
	C387.059753,109.665916 388.484070,109.342567 390.359009,109.004456 
z"/>
<path fill="#FFFFFF" opacity="1.000000" stroke="none" 
	d="
M1071.793213,118.705765 
	C1079.186646,112.505806 1087.539429,108.811485 1096.674194,109.197365 
	C1109.628174,109.744591 1120.219360,115.576973 1127.001709,127.106194 
	C1134.882935,140.503357 1135.482544,154.151917 1127.046509,167.421280 
	C1120.747314,177.329391 1111.572632,183.164474 1099.547363,184.017258 
	C1087.557129,184.867538 1076.863525,181.278778 1068.607788,172.866608 
	C1056.078369,160.099503 1054.258179,143.313156 1063.755127,127.899803 
	C1065.799194,124.582291 1068.919312,121.927673 1071.793213,118.705765 
z"/>
</svg>