<svg version="1.1" id="Layer_1" xmlns="http://www.w3.org/2000/svg" xmlns:xlink="http://www.w3.org/1999/xlink" x="0px" y="0px"
	 width="100%" viewBox="0 0 700 480" enable-background="new 0 0 700 480" xml:space="preserve">
<path fill="#FFFFFF" opacity="1.000000" stroke="none" 
	d="
M487.000000,481.000000 
	C478.979095,481.000000 470.958191,481.000000 462.622711,480.606750 
	C462.515961,479.773895 462.903442,479.335022 462.905396,478.894470 
	C462.959076,466.733673 463.224945,454.564240 462.815094,442.417816 
	C462.714478,439.437134 460.887421,436.148621 458.989990,433.660583 
	C452.247345,424.819031 442.795044,426.434052 433.578583,427.838196 
	C428.522797,428.608459 424.804321,431.722534 422.188293,435.873169 
	C421.343781,437.213165 421.926819,439.452911 421.856812,441.281067 
	C423.507416,440.752502 425.609131,440.690155 426.725647,439.609741 
	C430.357269,436.095428 434.057953,433.549683 439.382172,432.635773 
	C449.835175,430.841522 458.033417,438.003876 456.557770,448.319366 
	C448.426422,449.546387 440.297882,450.522064 432.278107,452.063507 
	C425.990509,453.272034 420.522766,456.439301 419.183777,463.208038 
	C417.909576,469.649170 419.837555,475.314423 426.138306,478.748779 
	C426.932037,479.181488 427.387695,480.234436 428.000000,481.000000 
	C415.979095,481.000000 403.958221,481.000000 391.486420,480.637421 
	C392.601410,479.203949 394.115204,478.045258 395.743225,477.079041 
	C400.180298,474.445679 401.262787,470.299835 398.691437,465.439392 
	C388.552948,476.071655 380.379364,478.381622 370.867859,473.420441 
	C364.590363,470.146118 357.860107,461.261169 360.831787,455.000000 
	C372.622314,455.000000 384.581757,455.000397 396.541199,454.999878 
	C403.893677,454.999542 403.751923,455.013306 403.041382,448.021545 
	C401.225586,430.153412 387.074280,423.640564 371.241058,428.044373 
	C360.915253,430.916351 355.423126,438.484009 353.815582,449.441284 
	C352.121765,460.986511 355.504944,469.970917 364.558167,476.983185 
	C366.548462,478.524780 368.844666,479.671478 371.000000,481.000000 
	C247.777283,481.000000 124.554573,481.000000 1.000000,481.000000 
	C1.000000,441.979736 1.000000,402.958527 1.345738,363.580200 
	C2.120921,363.899994 2.697628,364.524872 2.957981,365.261566 
	C7.774709,378.890991 16.952747,387.891418 31.049175,391.527435 
	C43.559628,394.754425 55.372875,392.991333 66.258598,385.922821 
	C70.396576,383.235840 71.806267,377.681213 69.502579,374.030121 
	C66.864235,369.848633 62.418091,369.233032 57.528206,371.706055 
	C54.087696,373.446106 50.343513,374.793610 46.583374,375.654388 
	C35.700146,378.145813 22.487347,371.338104 20.274580,361.000000 
	C21.969261,361.000000 23.592686,361.000000 25.216110,361.000000 
	C40.871136,361.000000 56.526257,360.969604 72.181122,361.020081 
	C76.410362,361.033691 80.293633,359.560852 80.825531,355.347504 
	C82.420738,342.711395 78.806526,331.291016 69.139191,322.900604 
	C59.745487,314.747681 48.618397,311.016785 35.733913,312.884918 
	C22.255447,314.839233 12.374285,321.379089 5.931667,333.297028 
	C4.346344,336.229675 2.646952,339.100677 1.000002,342.000000 
	C1.000000,228.406372 1.000000,114.812737 1.000000,1.000000 
	C114.020798,1.000000 227.041748,1.000000 340.315918,1.340415 
	C338.144470,2.112290 335.729492,2.610062 333.293640,2.964903 
	C310.145355,6.337002 290.745300,17.265938 273.751892,32.816578 
	C262.837433,42.804405 253.897827,54.500862 246.462692,67.241486 
	C237.565857,82.486870 231.632751,99.010414 230.219528,116.567947 
	C228.892929,133.049255 229.812683,149.586868 234.836395,165.671448 
	C235.906540,169.097717 236.899124,168.977280 239.565552,167.821655 
	C248.920624,163.767181 258.214050,159.505829 267.790405,156.040192 
	C286.947327,149.107407 306.299164,142.714905 325.515564,135.943329 
	C329.791351,134.436600 333.839752,132.284607 337.992859,130.429703 
	C336.747986,129.165848 335.964325,129.028885 335.178131,129.012009 
	C319.072632,128.666397 302.966888,128.330444 286.860992,128.002121 
	C281.434631,127.891495 276.816498,124.912704 276.259613,120.220604 
	C275.723541,115.703911 278.141632,112.540199 282.524048,110.739998 
	C289.221252,107.988953 295.632660,104.469254 302.452789,102.104958 
	C319.359680,96.243958 336.286957,90.360977 353.466309,85.385422 
	C380.574707,77.534157 407.882935,70.369400 435.134674,63.018230 
	C445.014679,60.353096 454.975433,57.987095 465.276642,55.389454 
	C458.276337,44.727058 449.793335,36.359978 440.365295,28.796272 
	C426.399200,17.591894 410.793518,9.715218 393.485565,5.322273 
	C386.413605,3.527346 379.167084,2.420095 372.000000,0.999997 
	C481.592133,1.000000 591.184265,1.000000 701.000000,1.000000 
	C701.000000,105.687454 701.000000,210.375076 700.647888,315.416168 
	C698.605591,314.850159 696.979492,313.284088 695.215576,313.109467 
	C673.244446,310.934509 655.246826,326.944336 653.214294,348.045959 
	C652.038269,360.255646 652.940369,372.671661 653.030090,384.993958 
	C653.066101,389.943054 656.346985,393.041046 661.087402,392.998840 
	C665.810913,392.956787 668.980713,389.772949 668.992920,384.965607 
	C669.017029,375.473694 668.717346,365.971252 669.066772,356.492157 
	C669.579224,342.590820 675.017151,332.080048 690.594360,329.385010 
	C694.634094,328.686066 698.150330,327.963867 701.000000,325.000000 
	C701.000000,376.909943 701.000000,428.819885 701.000000,481.000000 
	C668.979614,481.000000 636.958435,481.000000 604.622742,480.606781 
	C604.515930,479.774139 604.903137,479.335541 604.905212,478.895142 
	C604.959106,467.405273 605.134949,455.911591 604.878174,444.427795 
	C604.815186,441.610138 603.657043,438.662903 602.418213,436.052429 
	C597.118103,424.883606 577.690125,424.236023 569.905762,431.574066 
	C568.934326,432.489807 567.824646,433.258911 565.996826,434.722046 
	C565.996826,425.554474 566.156250,417.581696 565.857300,409.626099 
	C565.800110,408.104523 563.936646,406.650787 562.906555,405.165771 
	C561.937927,406.590088 560.136963,408.007629 560.125244,409.439697 
	C559.946289,431.421448 559.978760,453.405060 560.017700,475.388184 
	C560.026123,480.147186 560.634094,480.486664 566.000000,479.157013 
	C566.000000,474.578644 565.876404,469.927307 566.029907,465.285095 
	C566.242493,458.855438 566.051331,452.326935 567.139160,446.031860 
	C568.757385,436.667480 576.957581,431.722809 587.165833,433.017456 
	C594.188843,433.908142 598.955444,440.469727 598.992737,449.392914 
	C599.026855,457.553192 599.234314,465.723541 598.892334,473.869629 
	C598.741516,477.463440 599.691162,479.733643 603.000000,481.000000 
	C582.645752,481.000000 562.291565,481.000000 541.468872,480.587494 
	C541.292725,477.300537 541.584961,474.426086 541.768005,472.625031 
	C537.666382,473.699127 534.330750,475.112091 530.921021,475.322052 
	C527.094238,475.557678 525.310608,472.194122 525.233093,469.067780 
	C524.938416,457.168579 525.114258,445.257690 525.114258,432.960571 
	C530.922913,432.960571 536.190857,432.960571 541.708618,432.960571 
	C541.708618,431.185333 541.708618,429.811157 541.708618,427.862732 
	C536.061829,427.862732 530.673584,427.862732 524.997986,427.862732 
	C524.997986,424.482422 524.950134,421.672913 525.008972,418.865692 
	C525.102600,414.394196 522.381897,414.794434 518.850464,415.362640 
	C518.850464,419.607971 518.850464,423.672974 518.850464,427.821777 
	C515.683594,427.962494 513.075256,428.078369 510.323669,428.200592 
	C510.323669,429.873840 510.323669,431.250305 510.323669,433.206940 
	C513.339233,433.206940 516.053101,433.206940 519.000000,433.206940 
	C519.000000,444.254669 519.324158,454.734436 518.887207,465.182343 
	C518.590576,472.275757 520.432190,477.702667 527.000000,481.000000 
	C515.312439,481.000000 503.624878,481.000000 491.622742,480.606750 
	C491.537933,479.277802 491.966766,478.342407 491.968353,477.406281 
	C492.006531,454.971985 492.010895,432.537628 491.962036,410.103394 
	C491.959747,409.054260 491.408600,408.006348 490.946381,406.636536 
	C486.798035,403.921783 485.999237,406.164581 485.999512,409.590576 
	C486.001221,431.981720 485.982300,454.372955 486.043213,476.763916 
	C486.047058,478.176819 486.666779,479.588013 487.000000,481.000000 
M388.642883,108.000549 
	C395.530792,107.359230 402.414551,106.668098 409.307953,106.092751 
	C414.575653,105.653084 419.854218,105.115089 425.130463,105.086700 
	C428.720428,105.067383 431.947052,106.380371 432.995087,110.468208 
	C433.959747,114.230843 432.386719,116.740051 429.124451,118.485046 
	C427.967743,119.103775 426.973663,120.047325 425.789978,120.591774 
	C397.051208,133.809799 368.289398,146.977753 339.565033,160.226883 
	C337.962463,160.966064 336.645905,162.325317 334.020691,164.264191 
	C336.841217,164.655060 338.107910,165.079269 339.318756,164.955795 
	C344.879395,164.388641 350.423645,163.662018 355.975189,163.004440 
	C367.738525,161.611069 379.483917,160.028427 391.272552,158.897903 
	C400.800140,157.984207 410.375305,157.307022 419.939484,157.152542 
	C424.210541,157.083572 427.496857,159.585083 429.179321,164.068375 
	C430.800720,168.388855 428.687103,171.020401 425.924469,173.531357 
	C422.748016,176.418457 419.697144,179.562912 416.124847,181.873932 
	C403.014343,190.355362 389.868805,198.805283 376.436096,206.759857 
	C361.773682,215.442657 355.678772,225.869827 358.010864,239.960861 
	C359.457703,248.702713 367.253296,257.520264 374.913300,257.834351 
	C381.473175,258.103302 388.349548,258.117950 394.630341,256.488708 
	C429.098175,247.547684 455.020020,226.816528 473.019501,196.495895 
	C489.363007,168.964813 494.457245,139.016998 488.979584,107.399971 
	C486.317291,92.033089 481.258881,77.528770 473.107025,64.139038 
	C471.516052,61.525772 470.191559,60.990677 467.228943,62.231796 
	C449.340057,69.725990 431.191498,76.616859 413.434326,84.403908 
	C398.209686,91.080338 383.376709,98.653603 368.422333,105.936607 
	C367.070068,106.595192 366.096802,108.032089 364.947510,109.107529 
	C365.180664,109.523384 365.413849,109.939240 365.647003,110.355095 
	C373.002197,109.571442 380.357361,108.787788 388.642883,108.000549 
M175.019485,411.107605 
	C185.108536,429.026978 201.590759,435.194977 220.511429,431.032043 
	C237.895950,427.207184 249.466675,413.875153 250.650543,396.266357 
	C251.826324,378.778015 250.915054,361.067169 249.709442,343.537140 
	C249.147079,335.360413 244.347687,327.979370 237.920547,322.599030 
	C228.583542,314.782745 217.913971,311.154205 205.350433,312.856750 
	C193.645035,314.443085 184.777161,320.017975 177.976959,329.248138 
	C165.603607,346.042938 168.801117,372.415436 186.890717,385.232697 
	C195.795044,391.541809 205.826202,394.928864 216.947571,392.028076 
	C222.652328,390.540100 228.229904,388.564606 234.000000,386.767334 
	C234.000000,388.405212 233.828766,390.412628 234.029144,392.382202 
	C234.987335,401.800446 226.547073,412.758270 213.878540,415.660156 
	C207.276321,417.172516 195.191910,412.865143 190.301514,403.753540 
	C187.517105,398.565735 183.382172,396.731781 179.003708,398.493195 
	C174.122177,400.456940 172.960999,403.728333 175.019485,411.107605 
M398.006653,318.626404 
	C396.307373,314.112427 393.036926,312.602173 388.309387,312.928497 
	C383.688995,313.247437 382.366821,316.614594 381.098907,319.940521 
	C376.148376,332.926666 371.363220,345.975800 366.256500,359.700439 
	C365.309845,358.236389 364.657990,357.530731 364.344238,356.697723 
	C359.531189,343.919922 354.700134,331.148163 350.027832,318.318695 
	C348.901947,315.227173 347.238190,313.387238 343.824127,312.948334 
	C339.737518,312.422974 336.006653,313.575928 334.692657,317.196472 
	C333.684967,319.973145 334.086914,323.806702 335.145782,326.700470 
	C342.575348,347.004364 350.339691,367.185730 357.993683,387.407532 
	C359.367493,391.037109 362.043121,392.932404 365.863068,392.967438 
	C369.891052,393.004395 372.606781,391.039734 374.045349,387.188965 
	C379.138763,373.555084 384.299561,359.946350 389.541779,346.044403 
	C390.126465,346.793732 390.675079,347.241516 390.894226,347.815155 
	C395.591644,360.111786 400.436890,372.357269 404.821442,384.765289 
	C406.394379,389.216461 408.519196,392.537170 413.399933,392.934235 
	C417.844208,393.295746 420.875153,390.128021 423.063721,384.169189 
	C426.762360,374.098877 430.688263,364.112274 434.450226,354.064850 
	C438.210876,344.020782 441.975098,333.976288 445.559448,323.868744 
	C447.059082,319.639801 444.546204,314.154724 440.995575,313.066528 
	C436.166412,311.586517 431.737091,313.676270 429.899994,318.366913 
	C427.232147,325.178711 424.614197,332.010040 421.964661,338.828979 
	C419.469818,345.249756 416.961548,351.665314 414.459198,358.083160 
	C413.975128,358.131805 413.491058,358.180481 413.007019,358.229156 
	C408.036133,345.286041 403.065216,332.342957 398.006653,318.626404 
M150.000000,310.409180 
	C150.000000,313.242859 150.000000,316.076508 150.000000,319.394928 
	C138.330658,312.387146 126.966316,309.913086 114.806061,313.687714 
	C98.114349,318.868866 88.632599,330.715942 86.192657,347.606384 
	C84.305534,360.669922 88.923409,372.446808 98.306328,381.550049 
	C106.457741,389.458527 116.713051,392.151215 128.377991,392.254913 
	C147.317673,392.423187 166.401932,374.195679 166.091003,354.525482 
	C165.709412,330.384460 166.001602,306.232788 165.998825,282.085724 
	C165.998169,276.331421 163.172302,273.073425 158.139130,273.001129 
	C153.032974,272.927795 150.031082,276.185150 150.009262,281.953735 
	C149.974625,291.112854 150.000015,300.272156 150.000000,310.409180 
M297.500031,361.000000 
	C307.163879,360.999939 316.827789,361.021423 326.491547,360.990234 
	C330.917419,360.975983 334.440674,359.172455 334.996552,354.543854 
	C335.468719,350.612305 335.669464,346.349213 334.662872,342.588074 
	C328.653412,320.134216 312.352600,312.532288 294.676697,312.324829 
	C282.579865,312.182861 271.798431,317.273651 263.797974,327.532318 
	C250.841187,344.146271 252.685669,367.438599 267.529510,381.904449 
	C276.766663,390.906372 288.499878,394.043671 301.046143,392.831604 
	C308.973785,392.065735 316.894531,390.005524 322.718628,383.742523 
	C325.825226,380.401825 325.895142,375.829010 322.768188,372.602051 
	C319.633514,369.367157 315.319824,369.194946 312.090210,371.272278 
	C306.130219,375.105713 299.488342,376.636169 292.369934,376.007477 
	C284.444031,375.307404 275.742065,368.134918 274.491180,361.000000 
	C281.850952,361.000000 289.175507,361.000000 297.500031,361.000000 
M568.007080,346.937164 
	C568.004761,348.768280 568.046448,350.600708 567.993286,352.430359 
	C567.452393,371.034851 580.372986,387.208221 598.117981,391.586639 
	C610.641724,394.676788 622.445374,392.968048 633.327881,385.905334 
	C636.896912,383.589020 638.426147,377.285095 636.419006,373.980072 
	C633.986267,369.974396 628.557068,368.985931 624.184082,371.292572 
	C620.790833,373.082458 617.198547,374.701752 613.504578,375.675720 
	C602.780518,378.503357 589.847229,371.323059 586.677917,361.000000 
	C588.542969,361.000000 590.370728,361.000000 592.198486,361.000000 
	C607.846130,361.000000 623.493835,361.017303 639.141479,360.990112 
	C644.253967,360.981232 647.801941,358.365875 647.980286,354.412903 
	C648.590881,340.882599 644.679993,329.286774 633.409912,320.905029 
	C617.071960,308.754211 594.581238,309.369843 579.698059,323.789673 
	C573.356384,329.933929 570.338318,337.788116 568.007080,346.937164 
M518.561951,333.065430 
	C506.928894,312.466003 483.968353,308.097931 465.407562,317.046051 
	C445.261322,326.758545 439.100677,349.787109 446.895782,369.512054 
	C450.742004,379.244598 457.997223,385.890289 467.371155,389.547699 
	C480.713989,394.753510 494.085480,394.251984 506.159668,386.314484 
	C507.357025,387.657532 508.226105,388.627533 509.089935,389.602234 
	C511.732391,392.583984 514.669861,393.884155 518.672424,392.030975 
	C522.215210,390.390717 523.137634,387.836304 523.070007,384.125214 
	C522.872803,373.309845 523.457092,362.461548 522.820984,351.680115 
	C522.464539,345.639404 520.297485,339.705475 518.561951,333.065430 
M554.000000,282.792694 
	C554.816895,276.354797 551.105347,273.440094 545.661804,273.050781 
	C541.161133,272.728882 537.354004,277.052185 537.019897,282.539886 
	C536.908813,284.365387 537.000183,286.203217 537.000122,288.035431 
	C536.999878,296.288940 537.000000,304.542450 537.000000,312.575684 
	C536.129517,312.819122 535.975525,312.898407 535.820679,312.900177 
	C532.491089,312.938690 529.161377,312.959320 525.831848,313.002258 
	C521.318970,313.060394 517.968872,316.037811 518.104919,320.650177 
	C518.239319,325.208405 520.229858,328.839050 525.784119,328.981415 
	C529.394165,329.073944 533.008606,328.998840 537.000000,328.998840 
	C537.000000,336.165375 536.999939,342.792145 537.000000,349.418884 
	C537.000122,360.578674 536.921387,371.739227 537.031921,382.897919 
	C537.092346,389.002045 540.889465,393.054382 546.101990,392.998871 
	C551.307617,392.943451 553.987183,389.663361 553.997803,383.302734 
	C554.007996,377.139862 554.000000,370.977020 554.000000,364.814148 
	C554.000000,353.033264 554.000000,341.252380 554.000000,328.999908 
	C558.070435,328.999908 561.691528,329.033966 565.311707,328.991638 
	C570.228882,328.934143 573.023621,325.957611 573.000000,320.881409 
	C572.973633,315.196564 570.950256,313.082947 565.357666,313.009460 
	C561.615234,312.960297 557.871521,313.000122 554.000000,313.000122 
	C554.000000,302.709229 554.000000,293.218445 554.000000,282.792694 
M301.931763,205.510864 
	C308.622284,200.169907 315.284332,194.792709 322.017456,189.505981 
	C324.671387,187.422150 326.351196,184.395004 324.546753,181.800491 
	C323.148529,179.790024 319.666382,178.138748 317.147858,178.189163 
	C307.090820,178.390442 297.036316,179.174850 287.003387,180.013214 
	C272.560883,181.220078 258.134705,182.628494 243.711349,184.050140 
	C242.093689,184.209595 240.539398,185.012054 237.687180,185.920258 
	C243.542664,194.185272 248.557770,201.696136 254.046356,208.843399 
	C257.160858,212.899170 260.996918,216.412582 264.605377,220.074326 
	C269.280853,224.818832 270.519318,224.854767 276.090912,221.387375 
	C284.466278,216.175110 292.901031,211.058365 301.931763,205.510864 
M289.000000,452.500000 
	C289.000031,459.989532 289.015381,467.479095 288.991730,474.968536 
	C288.983582,477.550903 288.732056,480.098358 292.609619,480.028473 
	C296.591064,479.956726 295.984680,477.187347 295.991058,474.750671 
	C296.013733,466.096161 295.930634,457.440857 296.018463,448.787170 
	C296.118652,438.916046 303.241821,432.922760 314.601196,433.000000 
	C322.428101,433.053223 327.977325,439.563660 327.996094,448.758911 
	C328.014771,457.912750 327.870605,467.070679 328.152191,476.215912 
	C328.191895,477.505554 330.242950,478.733246 331.363007,479.989624 
	C332.573364,478.824615 334.837402,477.653381 334.830597,476.495514 
	C334.764374,465.239807 334.874969,453.933105 333.805756,442.748932 
	C332.932190,433.611450 325.370270,426.470123 315.969574,427.138458 
	C309.668579,427.586395 303.461243,429.351410 296.000000,430.755127 
	C296.000000,426.033966 296.020630,420.468597 295.988220,414.903564 
	C295.977631,413.082184 296.306213,411.048889 295.614777,409.498138 
	C294.865906,407.818573 293.107147,406.589294 291.788818,405.163666 
	C290.859253,406.795074 289.148804,408.414276 289.123047,410.059814 
	C288.907043,423.870453 289.000031,437.685974 289.000000,452.500000 
z"/>
<path fill="#6BB2E2" opacity="1.000000" stroke="none" 
	d="
M371.531342,0.999997 
	C379.167084,2.420095 386.413605,3.527346 393.485565,5.322273 
	C410.793518,9.715218 426.399200,17.591894 440.365295,28.796272 
	C449.793335,36.359978 458.276337,44.727058 465.276642,55.389454 
	C454.975433,57.987095 445.014679,60.353096 435.134674,63.018230 
	C407.882935,70.369400 380.574707,77.534157 353.466309,85.385422 
	C336.286957,90.360977 319.359680,96.243958 302.452789,102.104958 
	C295.632660,104.469254 289.221252,107.988953 282.524048,110.739998 
	C278.141632,112.540199 275.723541,115.703911 276.259613,120.220604 
	C276.816498,124.912704 281.434631,127.891495 286.860992,128.002121 
	C302.966888,128.330444 319.072632,128.666397 335.178131,129.012009 
	C335.964325,129.028885 336.747986,129.165848 337.992859,130.429703 
	C333.839752,132.284607 329.791351,134.436600 325.515564,135.943329 
	C306.299164,142.714905 286.947327,149.107407 267.790405,156.040192 
	C258.214050,159.505829 248.920624,163.767181 239.565552,167.821655 
	C236.899124,168.977280 235.906540,169.097717 234.836395,165.671448 
	C229.812683,149.586868 228.892929,133.049255 230.219528,116.567947 
	C231.632751,99.010414 237.565857,82.486870 246.462692,67.241486 
	C253.897827,54.500862 262.837433,42.804405 273.751892,32.816578 
	C290.745300,17.265938 310.145355,6.337002 333.293640,2.964903 
	C335.729492,2.610062 338.144470,2.112290 340.784576,1.340415 
	C351.020905,1.000000 361.041779,1.000000 371.531342,0.999997 
z"/>
<path fill="#42758F" opacity="1.000000" stroke="none" 
	d="
M1.000002,342.468536 
	C2.646952,339.100677 4.346344,336.229675 5.931667,333.297028 
	C12.374285,321.379089 22.255447,314.839233 35.733913,312.884918 
	C48.618397,311.016785 59.745487,314.747681 69.139191,322.900604 
	C78.806526,331.291016 82.420738,342.711395 80.825531,355.347504 
	C80.293633,359.560852 76.410362,361.033691 72.181122,361.020081 
	C56.526257,360.969604 40.871136,361.000000 25.216110,361.000000 
	C23.592686,361.000000 21.969261,361.000000 20.274580,361.000000 
	C22.487347,371.338104 35.700146,378.145813 46.583374,375.654388 
	C50.343513,374.793610 54.087696,373.446106 57.528206,371.706055 
	C62.418091,369.233032 66.864235,369.848633 69.502579,374.030121 
	C71.806267,377.681213 70.396576,383.235840 66.258598,385.922821 
	C55.372875,392.991333 43.559628,394.754425 31.049175,391.527435 
	C16.952747,387.891418 7.774709,378.890991 2.957981,365.261566 
	C2.697628,364.524872 2.120921,363.899994 1.345738,363.111511 
	C1.000000,356.312347 1.000000,349.624725 1.000002,342.468536 
M44.871658,329.387512 
	C33.267002,327.946259 22.522226,334.270874 20.437756,343.779327 
	C34.510559,343.779327 48.583363,343.779327 63.118198,343.779327 
	C59.840733,335.402161 54.047771,330.968353 44.871658,329.387512 
z"/>
<path fill="#42758F" opacity="1.000000" stroke="none" 
	d="
M701.000000,324.550018 
	C698.150330,327.963867 694.634094,328.686066 690.594360,329.385010 
	C675.017151,332.080048 669.579224,342.590820 669.066772,356.492157 
	C668.717346,365.971252 669.017029,375.473694 668.992920,384.965607 
	C668.980713,389.772949 665.810913,392.956787 661.087402,392.998840 
	C656.346985,393.041046 653.066101,389.943054 653.030090,384.993958 
	C652.940369,372.671661 652.038269,360.255646 653.214294,348.045959 
	C655.246826,326.944336 673.244446,310.934509 695.215576,313.109467 
	C696.979492,313.284088 698.605591,314.850159 700.647888,315.884827 
	C701.000000,318.700012 701.000000,321.400024 701.000000,324.550018 
z"/>
<path fill="#48C1BB" opacity="1.000000" stroke="none" 
	d="
M371.468384,481.000000 
	C368.844666,479.671478 366.548462,478.524780 364.558167,476.983185 
	C355.504944,469.970917 352.121765,460.986511 353.815582,449.441284 
	C355.423126,438.484009 360.915253,430.916351 371.241058,428.044373 
	C387.074280,423.640564 401.225586,430.153412 403.041382,448.021545 
	C403.751923,455.013306 403.893677,454.999542 396.541199,454.999878 
	C384.581757,455.000397 372.622314,455.000000 360.831787,455.000000 
	C357.860107,461.261169 364.590363,470.146118 370.867859,473.420441 
	C380.379364,478.381622 388.552948,476.071655 398.691437,465.439392 
	C401.262787,470.299835 400.180298,474.445679 395.743225,477.079041 
	C394.115204,478.045258 392.601410,479.203949 391.017761,480.637421 
	C384.645599,481.000000 378.291199,481.000000 371.468384,481.000000 
M380.330170,432.002075 
	C370.809601,431.817535 359.777771,440.898346 360.471405,449.725800 
	C372.551117,449.725800 384.635895,449.725800 396.720276,449.725800 
	C396.638641,440.349365 392.304962,435.488831 380.330170,432.002075 
z"/>
<path fill="#48C1BB" opacity="1.000000" stroke="none" 
	d="
M428.468262,481.000000 
	C427.387695,480.234436 426.932037,479.181488 426.138306,478.748779 
	C419.837555,475.314423 417.909576,469.649170 419.183777,463.208038 
	C420.522766,456.439301 425.990509,453.272034 432.278107,452.063507 
	C440.297882,450.522064 448.426422,449.546387 456.557770,448.319366 
	C458.033417,438.003876 449.835175,430.841522 439.382172,432.635773 
	C434.057953,433.549683 430.357269,436.095428 426.725647,439.609741 
	C425.609131,440.690155 423.507416,440.752502 421.856812,441.281067 
	C421.926819,439.452911 421.343781,437.213165 422.188293,435.873169 
	C424.804321,431.722534 428.522797,428.608459 433.578583,427.838196 
	C442.795044,426.434052 452.247345,424.819031 458.989990,433.660583 
	C460.887421,436.148621 462.714478,439.437134 462.815094,442.417816 
	C463.224945,454.564240 462.959076,466.733673 462.905396,478.894470 
	C462.903442,479.335022 462.515961,479.773895 462.154053,480.606750 
	C461.250000,481.000000 460.500000,481.000000 459.255585,480.654175 
	C457.964874,478.093109 457.168579,475.877838 456.279114,473.403442 
	C453.257416,475.877228 450.128693,478.438599 447.000000,481.000000 
	C440.978851,481.000000 434.957703,481.000000 428.468262,481.000000 
M456.942230,461.893188 
	C456.942230,459.440521 456.942230,456.987854 456.942230,454.076111 
	C451.381592,454.555145 446.180939,454.725830 441.082672,455.538635 
	C437.601471,456.093628 434.213654,457.409760 430.873962,458.631256 
	C427.064209,460.024597 424.530823,463.441040 425.392761,466.928894 
	C426.130798,469.915405 429.038452,473.153625 431.854248,474.683777 
	C438.915192,478.520782 453.745422,473.719696 456.942230,461.893188 
z"/>
<path fill="#48C1BB" opacity="1.000000" stroke="none" 
	d="
M603.250000,481.000000 
	C599.691162,479.733643 598.741516,477.463440 598.892334,473.869629 
	C599.234314,465.723541 599.026855,457.553192 598.992737,449.392914 
	C598.955444,440.469727 594.188843,433.908142 587.165833,433.017456 
	C576.957581,431.722809 568.757385,436.667480 567.139160,446.031860 
	C566.051331,452.326935 566.242493,458.855438 566.029907,465.285095 
	C565.876404,469.927307 566.000000,474.578644 566.000000,479.157013 
	C560.634094,480.486664 560.026123,480.147186 560.017700,475.388184 
	C559.978760,453.405060 559.946289,431.421448 560.125244,409.439697 
	C560.136963,408.007629 561.937927,406.590088 562.906555,405.165771 
	C563.936646,406.650787 565.800110,408.104523 565.857300,409.626099 
	C566.156250,417.581696 565.996826,425.554474 565.996826,434.722046 
	C567.824646,433.258911 568.934326,432.489807 569.905762,431.574066 
	C577.690125,424.236023 597.118103,424.883606 602.418213,436.052429 
	C603.657043,438.662903 604.815186,441.610138 604.878174,444.427795 
	C605.134949,455.911591 604.959106,467.405273 604.905212,478.895142 
	C604.903137,479.335541 604.515930,479.774139 604.154053,480.606781 
	C604.000000,481.000000 603.500000,481.000000 603.250000,481.000000 
z"/>
<path fill="#48C1BB" opacity="1.000000" stroke="none" 
	d="
M527.464661,481.000000 
	C520.432190,477.702667 518.590576,472.275757 518.887207,465.182343 
	C519.324158,454.734436 519.000000,444.254669 519.000000,433.206940 
	C516.053101,433.206940 513.339233,433.206940 510.323669,433.206940 
	C510.323669,431.250305 510.323669,429.873840 510.323669,428.200592 
	C513.075256,428.078369 515.683594,427.962494 518.850464,427.821777 
	C518.850464,423.672974 518.850464,419.607971 518.850464,415.362640 
	C522.381897,414.794434 525.102600,414.394196 525.008972,418.865692 
	C524.950134,421.672913 524.997986,424.482422 524.997986,427.862732 
	C530.673584,427.862732 536.061829,427.862732 541.708618,427.862732 
	C541.708618,429.811157 541.708618,431.185333 541.708618,432.960571 
	C536.190857,432.960571 530.922913,432.960571 525.114258,432.960571 
	C525.114258,445.257690 524.938416,457.168579 525.233093,469.067780 
	C525.310608,472.194122 527.094238,475.557678 530.921021,475.322052 
	C534.330750,475.112091 537.666382,473.699127 541.768005,472.625031 
	C541.584961,474.426086 541.292725,477.300537 541.000244,480.587494 
	C536.643127,481.000000 532.286194,481.000000 527.464661,481.000000 
z"/>
<path fill="#48C1BB" opacity="1.000000" stroke="none" 
	d="
M491.113098,406.957886 
	C491.408600,408.006348 491.959747,409.054260 491.962036,410.103394 
	C492.010895,432.537628 492.006531,454.971985 491.968353,477.406281 
	C491.966766,478.342407 491.537933,479.277802 491.154083,480.606750 
	C490.250000,481.000000 489.500000,481.000000 488.375000,480.531342 
	C488.000000,457.297119 487.993225,434.531586 488.010742,411.766022 
	C488.012451,409.544434 487.301971,406.764923 491.113098,406.957886 
z"/>
<path fill="#48C1BB" opacity="1.000000" stroke="none" 
	d="
M490.946350,406.636536 
	C487.301971,406.764923 488.012451,409.544434 488.010742,411.766022 
	C487.993225,434.531586 488.000000,457.297119 488.000000,480.531342 
	C488.000000,481.000000 487.500000,481.000000 487.250000,481.000000 
	C486.666779,479.588013 486.047058,478.176819 486.043213,476.763916 
	C485.982300,454.372955 486.001221,431.981720 485.999512,409.590576 
	C485.999237,406.164581 486.798035,403.921783 490.946350,406.636536 
z"/>
<path fill="#FFFFFF" opacity="1.000000" stroke="none" 
	d="
M447.460632,481.000000 
	C450.128693,478.438599 453.257416,475.877228 456.279114,473.403442 
	C457.168579,475.877838 457.964874,478.093109 458.880585,480.654175 
	C455.307098,481.000000 451.614166,481.000000 447.460632,481.000000 
z"/>
<path fill="#65C8C7" opacity="1.000000" stroke="none" 
	d="
M388.177734,108.002342 
	C380.357361,108.787788 373.002197,109.571442 365.647003,110.355095 
	C365.413849,109.939240 365.180664,109.523384 364.947510,109.107529 
	C366.096802,108.032089 367.070068,106.595192 368.422333,105.936607 
	C383.376709,98.653603 398.209686,91.080338 413.434326,84.403908 
	C431.191498,76.616859 449.340057,69.725990 467.228943,62.231796 
	C470.191559,60.990677 471.516052,61.525772 473.107025,64.139038 
	C481.258881,77.528770 486.317291,92.033089 488.979584,107.399971 
	C494.457245,139.016998 489.363007,168.964813 473.019501,196.495895 
	C455.020020,226.816528 429.098175,247.547684 394.630341,256.488708 
	C388.349548,258.117950 381.473175,258.103302 374.913300,257.834351 
	C367.253296,257.520264 359.457703,248.702713 358.010864,239.960861 
	C355.678772,225.869827 361.773682,215.442657 376.436096,206.759857 
	C389.868805,198.805283 403.014343,190.355362 416.124847,181.873932 
	C419.697144,179.562912 422.748016,176.418457 425.924469,173.531357 
	C428.687103,171.020401 430.800720,168.388855 429.179321,164.068375 
	C427.496857,159.585083 424.210541,157.083572 419.939484,157.152542 
	C410.375305,157.307022 400.800140,157.984207 391.272552,158.897903 
	C379.483917,160.028427 367.738525,161.611069 355.975189,163.004440 
	C350.423645,163.662018 344.879395,164.388641 339.318756,164.955795 
	C338.107910,165.079269 336.841217,164.655060 334.020691,164.264191 
	C336.645905,162.325317 337.962463,160.966064 339.565033,160.226883 
	C368.289398,146.977753 397.051208,133.809799 425.789978,120.591774 
	C426.973663,120.047325 427.967743,119.103775 429.124451,118.485046 
	C432.386719,116.740051 433.959747,114.230843 432.995087,110.468208 
	C431.947052,106.380371 428.720428,105.067383 425.130463,105.086700 
	C419.854218,105.115089 414.575653,105.653084 409.307953,106.092751 
	C402.414551,106.668098 395.530792,107.359230 388.177734,108.002342 
z"/>
<path fill="#42758F" opacity="1.000000" stroke="none" 
	d="
M174.910645,410.719482 
	C172.960999,403.728333 174.122177,400.456940 179.003708,398.493195 
	C183.382172,396.731781 187.517105,398.565735 190.301514,403.753540 
	C195.191910,412.865143 207.276321,417.172516 213.878540,415.660156 
	C226.547073,412.758270 234.987335,401.800446 234.029144,392.382202 
	C233.828766,390.412628 234.000000,388.405212 234.000000,386.767334 
	C228.229904,388.564606 222.652328,390.540100 216.947571,392.028076 
	C205.826202,394.928864 195.795044,391.541809 186.890717,385.232697 
	C168.801117,372.415436 165.603607,346.042938 177.976959,329.248138 
	C184.777161,320.017975 193.645035,314.443085 205.350433,312.856750 
	C217.913971,311.154205 228.583542,314.782745 237.920547,322.599030 
	C244.347687,327.979370 249.147079,335.360413 249.709442,343.537140 
	C250.915054,361.067169 251.826324,378.778015 250.650543,396.266357 
	C249.466675,413.875153 237.895950,427.207184 220.511429,431.032043 
	C201.590759,435.194977 185.108536,429.026978 174.910645,410.719482 
M210.544281,329.000092 
	C195.048172,329.797760 183.728729,344.603149 188.066742,358.410065 
	C190.901840,367.433502 196.946106,373.584229 206.343231,375.644012 
	C214.721985,377.480560 222.140930,374.643341 227.732361,368.554779 
	C233.992020,361.738556 236.225464,353.297577 232.643219,344.445251 
	C228.873367,335.129303 221.574356,329.911926 210.544281,329.000092 
z"/>
<path fill="#42758F" opacity="1.000000" stroke="none" 
	d="
M398.050476,319.013123 
	C403.065216,332.342957 408.036133,345.286041 413.007019,358.229156 
	C413.491058,358.180481 413.975128,358.131805 414.459198,358.083160 
	C416.961548,351.665314 419.469818,345.249756 421.964661,338.828979 
	C424.614197,332.010040 427.232147,325.178711 429.899994,318.366913 
	C431.737091,313.676270 436.166412,311.586517 440.995575,313.066528 
	C444.546204,314.154724 447.059082,319.639801 445.559448,323.868744 
	C441.975098,333.976288 438.210876,344.020782 434.450226,354.064850 
	C430.688263,364.112274 426.762360,374.098877 423.063721,384.169189 
	C420.875153,390.128021 417.844208,393.295746 413.399933,392.934235 
	C408.519196,392.537170 406.394379,389.216461 404.821442,384.765289 
	C400.436890,372.357269 395.591644,360.111786 390.894226,347.815155 
	C390.675079,347.241516 390.126465,346.793732 389.541779,346.044403 
	C384.299561,359.946350 379.138763,373.555084 374.045349,387.188965 
	C372.606781,391.039734 369.891052,393.004395 365.863068,392.967438 
	C362.043121,392.932404 359.367493,391.037109 357.993683,387.407532 
	C350.339691,367.185730 342.575348,347.004364 335.145782,326.700470 
	C334.086914,323.806702 333.684967,319.973145 334.692657,317.196472 
	C336.006653,313.575928 339.737518,312.422974 343.824127,312.948334 
	C347.238190,313.387238 348.901947,315.227173 350.027832,318.318695 
	C354.700134,331.148163 359.531189,343.919922 364.344238,356.697723 
	C364.657990,357.530731 365.309845,358.236389 366.256500,359.700439 
	C371.363220,345.975800 376.148376,332.926666 381.098907,319.940521 
	C382.366821,316.614594 383.688995,313.247437 388.309387,312.928497 
	C393.036926,312.602173 396.307373,314.112427 398.050476,319.013123 
z"/>
<path fill="#42758F" opacity="1.000000" stroke="none" 
	d="
M150.000000,309.920288 
	C150.000015,300.272156 149.974625,291.112854 150.009262,281.953735 
	C150.031082,276.185150 153.032974,272.927795 158.139130,273.001129 
	C163.172302,273.073425 165.998169,276.331421 165.998825,282.085724 
	C166.001602,306.232788 165.709412,330.384460 166.091003,354.525482 
	C166.401932,374.195679 147.317673,392.423187 128.377991,392.254913 
	C116.713051,392.151215 106.457741,389.458527 98.306328,381.550049 
	C88.923409,372.446808 84.305534,360.669922 86.192657,347.606384 
	C88.632599,330.715942 98.114349,318.868866 114.806061,313.687714 
	C126.966316,309.913086 138.330658,312.387146 150.000000,319.394928 
	C150.000000,316.076508 150.000000,313.242859 150.000000,309.920288 
M142.505661,336.004486 
	C134.156723,325.944580 118.587654,327.159912 109.966896,335.560547 
	C101.095688,344.205292 100.683945,358.687683 108.487839,367.085266 
	C119.484909,378.918976 132.880646,377.744965 141.975891,369.533722 
	C152.076355,360.414917 152.512299,345.489899 142.505661,336.004486 
z"/>
<path fill="#42758F" opacity="1.000000" stroke="none" 
	d="
M297.000061,361.000000 
	C289.175507,361.000000 281.850952,361.000000 274.491180,361.000000 
	C275.742065,368.134918 284.444031,375.307404 292.369934,376.007477 
	C299.488342,376.636169 306.130219,375.105713 312.090210,371.272278 
	C315.319824,369.194946 319.633514,369.367157 322.768188,372.602051 
	C325.895142,375.829010 325.825226,380.401825 322.718628,383.742523 
	C316.894531,390.005524 308.973785,392.065735 301.046143,392.831604 
	C288.499878,394.043671 276.766663,390.906372 267.529510,381.904449 
	C252.685669,367.438599 250.841187,344.146271 263.797974,327.532318 
	C271.798431,317.273651 282.579865,312.182861 294.676697,312.324829 
	C312.352600,312.532288 328.653412,320.134216 334.662872,342.588074 
	C335.669464,346.349213 335.468719,350.612305 334.996552,354.543854 
	C334.440674,359.172455 330.917419,360.975983 326.491547,360.990234 
	C316.827789,361.021423 307.163879,360.999939 297.000061,361.000000 
M282.119720,333.399292 
	C279.233398,336.554901 276.347076,339.710480 272.771393,343.619751 
	C288.528015,343.619751 302.656403,343.619751 316.930237,343.619751 
	C311.269135,329.585205 295.357361,324.814178 282.119720,333.399292 
z"/>
<path fill="#42758F" opacity="1.000000" stroke="none" 
	d="
M568.029175,346.488281 
	C570.338318,337.788116 573.356384,329.933929 579.698059,323.789673 
	C594.581238,309.369843 617.071960,308.754211 633.409912,320.905029 
	C644.679993,329.286774 648.590881,340.882599 647.980286,354.412903 
	C647.801941,358.365875 644.253967,360.981232 639.141479,360.990112 
	C623.493835,361.017303 607.846130,361.000000 592.198486,361.000000 
	C590.370728,361.000000 588.542969,361.000000 586.677917,361.000000 
	C589.847229,371.323059 602.780518,378.503357 613.504578,375.675720 
	C617.198547,374.701752 620.790833,373.082458 624.184082,371.292572 
	C628.557068,368.985931 633.986267,369.974396 636.419006,373.980072 
	C638.426147,377.285095 636.896912,383.589020 633.327881,385.905334 
	C622.445374,392.968048 610.641724,394.676788 598.117981,391.586639 
	C580.372986,387.208221 567.452393,371.034851 567.993286,352.430359 
	C568.046448,350.600708 568.004761,348.768280 568.029175,346.488281 
M613.497437,344.000000 
	C618.903320,344.000000 624.309204,344.000000 629.892944,344.000000 
	C626.398560,334.076996 617.794861,329.209869 607.718140,329.079529 
	C599.443298,328.972473 589.469788,334.722321 587.181030,344.000000 
	C595.700134,344.000000 604.099182,344.000000 613.497437,344.000000 
z"/>
<path fill="#42758F" opacity="1.000000" stroke="none" 
	d="
M518.754089,333.394440 
	C520.297485,339.705475 522.464539,345.639404 522.820984,351.680115 
	C523.457092,362.461548 522.872803,373.309845 523.070007,384.125214 
	C523.137634,387.836304 522.215210,390.390717 518.672424,392.030975 
	C514.669861,393.884155 511.732391,392.583984 509.089935,389.602234 
	C508.226105,388.627533 507.357025,387.657532 506.159668,386.314484 
	C494.085480,394.251984 480.713989,394.753510 467.371155,389.547699 
	C457.997223,385.890289 450.742004,379.244598 446.895782,369.512054 
	C439.100677,349.787109 445.261322,326.758545 465.407562,317.046051 
	C483.968353,308.097931 506.928894,312.466003 518.754089,333.394440 
M467.034515,369.510773 
	C467.620178,369.797302 468.332855,369.955200 468.772614,370.389465 
	C476.253967,377.777832 488.838898,377.269257 495.967133,372.596680 
	C504.995270,366.678680 508.814514,357.497711 505.925476,346.754150 
	C503.180450,336.546143 495.799103,330.411041 485.710449,329.303680 
	C477.312378,328.381927 469.806915,332.045898 464.839508,339.522949 
	C457.786011,350.140106 458.206848,357.571259 467.034515,369.510773 
z"/>
<path fill="#42758F" opacity="1.000000" stroke="none" 
	d="
M554.000000,283.260193 
	C554.000000,293.218445 554.000000,302.709229 554.000000,313.000122 
	C557.871521,313.000122 561.615234,312.960297 565.357666,313.009460 
	C570.950256,313.082947 572.973633,315.196564 573.000000,320.881409 
	C573.023621,325.957611 570.228882,328.934143 565.311707,328.991638 
	C561.691528,329.033966 558.070435,328.999908 554.000000,328.999908 
	C554.000000,341.252380 554.000000,353.033264 554.000000,364.814148 
	C554.000000,370.977020 554.007996,377.139862 553.997803,383.302734 
	C553.987183,389.663361 551.307617,392.943451 546.101990,392.998871 
	C540.889465,393.054382 537.092346,389.002045 537.031921,382.897919 
	C536.921387,371.739227 537.000122,360.578674 537.000000,349.418884 
	C536.999939,342.792145 537.000000,336.165375 537.000000,328.998840 
	C533.008606,328.998840 529.394165,329.073944 525.784119,328.981415 
	C520.229858,328.839050 518.239319,325.208405 518.104919,320.650177 
	C517.968872,316.037811 521.318970,313.060394 525.831848,313.002258 
	C529.161377,312.959320 532.491089,312.938690 535.820679,312.900177 
	C535.975525,312.898407 536.129517,312.819122 537.000000,312.575684 
	C537.000000,304.542450 536.999878,296.288940 537.000122,288.035431 
	C537.000183,286.203217 536.908813,284.365387 537.019897,282.539886 
	C537.354004,277.052185 541.161133,272.728882 545.661804,273.050781 
	C551.105347,273.440094 554.816895,276.354797 554.000000,283.260193 
z"/>
<path fill="#6BB2E2" opacity="1.000000" stroke="none" 
	d="
M301.621155,205.705933 
	C292.901031,211.058365 284.466278,216.175110 276.090912,221.387375 
	C270.519318,224.854767 269.280853,224.818832 264.605377,220.074326 
	C260.996918,216.412582 257.160858,212.899170 254.046356,208.843399 
	C248.557770,201.696136 243.542664,194.185272 237.687180,185.920258 
	C240.539398,185.012054 242.093689,184.209595 243.711349,184.050140 
	C258.134705,182.628494 272.560883,181.220078 287.003387,180.013214 
	C297.036316,179.174850 307.090820,178.390442 317.147858,178.189163 
	C319.666382,178.138748 323.148529,179.790024 324.546753,181.800491 
	C326.351196,184.395004 324.671387,187.422150 322.017456,189.505981 
	C315.284332,194.792709 308.622284,200.169907 301.621155,205.705933 
z"/>
<path fill="#48C1BB" opacity="1.000000" stroke="none" 
	d="
M289.000000,452.000000 
	C289.000031,437.685974 288.907043,423.870453 289.123047,410.059814 
	C289.148804,408.414276 290.859253,406.795074 291.788818,405.163666 
	C293.107147,406.589294 294.865906,407.818573 295.614777,409.498138 
	C296.306213,411.048889 295.977631,413.082184 295.988220,414.903564 
	C296.020630,420.468597 296.000000,426.033966 296.000000,430.755127 
	C303.461243,429.351410 309.668579,427.586395 315.969574,427.138458 
	C325.370270,426.470123 332.932190,433.611450 333.805756,442.748932 
	C334.874969,453.933105 334.764374,465.239807 334.830597,476.495514 
	C334.837402,477.653381 332.573364,478.824615 331.363007,479.989624 
	C330.242950,478.733246 328.191895,477.505554 328.152191,476.215912 
	C327.870605,467.070679 328.014771,457.912750 327.996094,448.758911 
	C327.977325,439.563660 322.428101,433.053223 314.601196,433.000000 
	C303.241821,432.922760 296.118652,438.916046 296.018463,448.787170 
	C295.930634,457.440857 296.013733,466.096161 295.991058,474.750671 
	C295.984680,477.187347 296.591064,479.956726 292.609619,480.028473 
	C288.732056,480.098358 288.983582,477.550903 288.991730,474.968536 
	C289.015381,467.479095 289.000031,459.989532 289.000000,452.000000 
z"/>
<path fill="#FFFFFF" opacity="1.000000" stroke="none" 
	d="
M45.221935,329.636780 
	C54.047771,330.968353 59.840733,335.402161 63.118198,343.779327 
	C48.583363,343.779327 34.510559,343.779327 20.437191,343.774902 
	C22.522226,334.270874 33.267002,327.946259 45.221935,329.636780 
z"/>
<path fill="#FFFFFF" opacity="1.000000" stroke="none" 
	d="
M380.749847,432.007599 
	C392.304962,435.488831 396.638641,440.349365 396.720276,449.725800 
	C384.635895,449.725800 372.551117,449.725800 360.471405,449.725800 
	C359.777771,440.898346 370.809601,431.817535 380.749847,432.007599 
z"/>
<path fill="#FFFFFF" opacity="1.000000" stroke="none" 
	d="
M456.824249,462.299744 
	C453.745422,473.719696 438.915192,478.520782 431.854248,474.683777 
	C429.038452,473.153625 426.130798,469.915405 425.392761,466.928894 
	C424.530823,463.441040 427.064209,460.024597 430.873962,458.631256 
	C434.213654,457.409760 437.601471,456.093628 441.082672,455.538635 
	C446.180939,454.725830 451.381592,454.555145 456.942230,454.076111 
	C456.942230,456.987854 456.942230,459.440521 456.824249,462.299744 
z"/>
<path fill="#FFFFFF" opacity="1.000000" stroke="none" 
	d="
M210.979477,329.000061 
	C221.574356,329.911926 228.873367,335.129303 232.643219,344.445251 
	C236.225464,353.297577 233.992020,361.738556 227.732361,368.554779 
	C222.140930,374.643341 214.721985,377.480560 206.343231,375.644012 
	C196.946106,373.584229 190.901840,367.433502 188.066742,358.410065 
	C183.728729,344.603149 195.048172,329.797760 210.979477,329.000061 
z"/>
<path fill="#FFFFFF" opacity="1.000000" stroke="none" 
	d="
M142.759766,336.261749 
	C152.512299,345.489899 152.076355,360.414917 141.975891,369.533722 
	C132.880646,377.744965 119.484909,378.918976 108.487839,367.085266 
	C100.683945,358.687683 101.095688,344.205292 109.966896,335.560547 
	C118.587654,327.159912 134.156723,325.944580 142.759766,336.261749 
z"/>
<path fill="#FFFFFF" opacity="1.000000" stroke="none" 
	d="
M282.447571,333.221863 
	C295.357361,324.814178 311.269135,329.585205 316.930237,343.619751 
	C302.656403,343.619751 288.528015,343.619751 272.771393,343.619751 
	C276.347076,339.710480 279.233398,336.554901 282.447571,333.221863 
z"/>
<path fill="#FFFFFF" opacity="1.000000" stroke="none" 
	d="
M612.997803,344.000000 
	C604.099182,344.000000 595.700134,344.000000 587.181030,344.000000 
	C589.469788,334.722321 599.443298,328.972473 607.718140,329.079529 
	C617.794861,329.209869 626.398560,334.076996 629.892944,344.000000 
	C624.309204,344.000000 618.903320,344.000000 612.997803,344.000000 
z"/>
<path fill="#FFFFFF" opacity="1.000000" stroke="none" 
	d="
M466.768433,369.253662 
	C458.206848,357.571259 457.786011,350.140106 464.839508,339.522949 
	C469.806915,332.045898 477.312378,328.381927 485.710449,329.303680 
	C495.799103,330.411041 503.180450,336.546143 505.925476,346.754150 
	C508.814514,357.497711 504.995270,366.678680 495.967133,372.596680 
	C488.838898,377.269257 476.253967,377.777832 468.772614,370.389465 
	C468.332855,369.955200 467.620178,369.797302 466.768433,369.253662 
z"/>
</svg>