<svg width="341" height="250" viewBox="0 0 341 250" fill="none" xmlns="http://www.w3.org/2000/svg">
<path d="M306.432 232.9H283.91V233.07H306.432V232.9Z" fill="#EBEBEB"/>
<path d="M225.73 234.744H219.821V234.914H225.73V234.744Z" fill="#EBEBEB"/>
<path d="M283.231 226.608H270.182V226.778H283.231V226.608Z" fill="#EBEBEB"/>
<path d="M65.5423 227.747H36.1731V227.917H65.5423V227.747Z" fill="#EBEBEB"/>
<path d="M75.9055 227.747H71.6011V227.917H75.9055V227.747Z" fill="#EBEBEB"/>
<path d="M153.602 230.608H89.8997V230.778H153.602V230.608Z" fill="#EBEBEB"/>
<path d="M162.612 191.75H31.3042C30.2745 191.75 29.2869 191.342 28.5587 190.616C27.8305 189.89 27.4214 188.905 27.4214 187.878V3.83771C27.4304 2.81678 27.8434 1.84071 28.5706 1.12196C29.2978 0.403205 30.2803 -3.91405e-05 31.3042 2.8495e-09H162.612C163.122 2.8495e-09 163.627 0.100141 164.098 0.294708C164.569 0.489274 164.997 0.774456 165.358 1.13397C165.718 1.49348 166.004 1.92028 166.199 2.39001C166.395 2.85973 166.495 3.36318 166.495 3.87161V187.878C166.495 188.387 166.395 188.89 166.199 189.36C166.004 189.829 165.718 190.256 165.358 190.616C164.997 190.975 164.569 191.26 164.098 191.455C163.627 191.65 163.122 191.75 162.612 191.75ZM31.3042 0.135609C30.3201 0.137401 29.3768 0.528017 28.6809 1.22191C27.985 1.9158 27.5932 2.8564 27.5914 3.83771V187.878C27.5932 188.859 27.985 189.8 28.6809 190.494C29.3768 191.188 30.3201 191.578 31.3042 191.58H162.612C163.596 191.578 164.54 191.188 165.236 190.494C165.932 189.8 166.323 188.859 166.325 187.878V3.83771C166.323 2.8564 165.932 1.9158 165.236 1.22191C164.54 0.528017 163.596 0.137401 162.612 0.135609H31.3042Z" fill="#EBEBEB"/>
<path d="M309.696 191.75H178.388C177.359 191.75 176.371 191.342 175.643 190.616C174.915 189.89 174.505 188.905 174.505 187.878V3.83771C174.514 2.81678 174.927 1.84071 175.655 1.12196C176.382 0.403205 177.364 -3.91405e-05 178.388 2.8495e-09H309.696C310.726 2.8495e-09 311.714 0.407901 312.442 1.13397C313.17 1.86004 313.579 2.84479 313.579 3.87161V187.878C313.579 188.905 313.17 189.89 312.442 190.616C311.714 191.342 310.726 191.75 309.696 191.75ZM178.388 0.135609C177.404 0.137401 176.461 0.528017 175.765 1.22191C175.069 1.9158 174.677 2.8564 174.676 3.83771V187.878C174.677 188.859 175.069 189.8 175.765 190.494C176.461 191.188 177.404 191.578 178.388 191.58H309.696C310.68 191.578 311.624 191.188 312.32 190.494C313.016 189.8 313.407 188.859 313.409 187.878V3.83771C313.407 2.8564 313.016 1.9158 312.32 1.22191C311.624 0.528017 310.68 0.137401 309.696 0.135609H178.388Z" fill="#EBEBEB"/>
<path d="M340.5 221.99H0.5V222.16H340.5V221.99Z" fill="#EBEBEB"/>
<path d="M276.475 96.9322L271.08 38.3927L192.565 45.5864L197.96 104.126L276.475 96.9322Z" fill="#E6E6E6"/>
<path opacity="0.9" d="M266.957 43.3408L197.536 49.7013L202.095 99.1729L271.516 92.8123L266.957 43.3408Z" fill="#FAFAFA"/>
<path d="M235.032 52.5006L235.44 56.9825L208.478 59.4573L209.838 74.2386L211.3 89.7861L224.451 88.5791L245.572 86.6467L246.544 86.5518L261.164 85.1957L260.94 82.7209L257.078 83.0735C257.108 82.1928 257.431 81.3472 257.996 80.6697C258.561 79.9922 259.336 79.5211 260.199 79.3307L260.62 79.2358L259.736 69.6822L257.132 69.9195L255.357 50.6564L235.032 52.5006ZM212.157 88.7215L210.899 75.12L213.918 74.8421C214.259 75.9176 214.957 76.8451 215.898 77.4714C216.839 78.0977 217.966 78.3852 219.093 78.2865L219.582 78.2458L219.222 74.3539L222.105 74.0962L223.363 87.6977L212.157 88.7215ZM224.336 87.6096L222.976 73.0317L218.141 73.4724L218.494 77.3305C217.611 77.2986 216.762 76.9751 216.083 76.4106C215.404 75.846 214.932 75.0725 214.741 74.2115L214.646 73.7979L210.79 74.1505L209.539 60.3456L235.528 57.9656L236.888 72.7469L239.105 72.5435L242.6 72.2248L244.198 72.0757L245.45 85.6771L224.336 87.6096ZM239.024 71.5603L238.752 68.6244C239.547 68.6538 240.316 68.9201 240.958 69.389C241.6 69.8579 242.087 70.5079 242.356 71.2552L239.024 71.5603ZM258.818 70.7264L259.532 78.4764C258.454 78.8163 257.525 79.5131 256.898 80.4514C256.271 81.3897 255.984 82.5132 256.085 83.6362L256.126 84.1244L260.022 83.7651L260.07 84.3346L246.429 85.5822L245.178 71.9807L257.186 70.8755L258.818 70.7264ZM254.439 51.7005L256.126 70.0076L245.089 71.0247L244.11 71.1128L243.362 71.1806C243.033 70.0911 242.337 69.1481 241.392 68.5107C240.447 67.8733 239.31 67.5806 238.174 67.682L237.684 67.7226L238.044 71.6688H237.779L236.419 56.8876L236.093 53.3753L254.439 51.7005Z" fill="#E0E0E0"/>
<path d="M125.028 101.478L136.762 42.6573L57.8768 27.0114L46.1429 85.8317L125.028 101.478Z" fill="#E6E6E6"/>
<path opacity="0.9" d="M61.539 32.4724L51.6226 82.182L121.371 96.0157L131.287 46.3061L61.539 32.4724Z" fill="#FAFAFA"/>
<path d="M97.3999 46.0389L96.5023 50.5411L69.4043 45.171L66.4599 60.0201L63.3455 75.615L76.5647 78.239L97.7875 82.4429L98.7667 82.6395L113.448 85.5483L113.951 83.026L110.068 82.2598C110.356 81.4084 110.918 80.676 111.668 80.1768C112.417 79.6775 113.31 79.4396 114.209 79.5002H114.651L116.562 69.9059L113.951 69.3838L117.807 50.0258L97.3999 46.0389ZM64.5015 74.8624L67.2215 61.1931L70.2543 61.7898C70.2741 62.9439 70.6898 64.0565 71.4321 64.9423C72.1745 65.8281 73.1987 66.4336 74.3343 66.6581L74.8239 66.753L75.6059 62.8475L78.5027 63.4238L75.7827 77.0931L64.5015 74.8624ZM76.7415 77.2898L79.6587 62.6441L74.8035 61.7016L74.0351 65.5732C73.1812 65.2863 72.4467 64.7256 71.946 63.9786C71.4453 63.2316 71.2067 62.3404 71.2675 61.444V61.0033L67.3915 60.2371L70.1659 46.3576L96.2779 51.5378L93.3131 66.3937L95.5435 66.8344L99.0523 67.5124L100.657 67.8243L97.9371 81.4936L76.7415 77.2898ZM95.7815 65.8377L96.3663 62.8814C97.1358 63.1421 97.8097 63.626 98.3015 64.2711C98.7934 64.9162 99.0809 65.6931 99.1271 66.5022L95.7815 65.8377ZM115.386 70.7399L113.835 78.5238C112.679 78.5451 111.565 78.9603 110.678 79.7004C109.791 80.4405 109.185 81.4609 108.96 82.592L108.858 83.0802L112.775 83.86L112.659 84.4295L98.9503 81.7174L101.67 68.0481L113.74 70.4416L115.386 70.7399ZM116.617 50.853L112.951 69.2347L101.861 67.031L100.881 66.8412L100.127 66.692C100.122 65.5278 99.7126 64.4012 98.9688 63.5038C98.225 62.6063 97.1924 61.9935 96.0467 61.7694L95.5571 61.6677L94.7683 65.6275L94.4963 65.5732L97.4611 50.7242L98.1411 47.1984L116.617 50.853Z" fill="#E0E0E0"/>
<path d="M203.902 35.2582H197.251C195.396 35.2582 193.616 34.5231 192.304 33.2146C190.991 31.9062 190.254 30.1316 190.254 28.2811V21.6974C190.254 19.8469 190.991 18.0723 192.304 16.7639C193.616 15.4554 195.396 14.7203 197.251 14.7203H203.902C205.757 14.7221 207.536 15.4578 208.848 16.7658C210.159 18.0739 210.897 19.8475 210.899 21.6974V28.3286C210.885 30.1702 210.141 31.9317 208.831 33.2295C207.52 34.5273 205.749 35.2564 203.902 35.2582ZM197.251 16.707C196.597 16.7079 195.948 16.8379 195.344 17.0896C194.74 17.3413 194.192 17.7096 193.731 18.1735C193.27 18.6373 192.906 19.1875 192.66 19.7923C192.413 20.3971 192.289 21.0445 192.294 21.6974V28.3286C192.296 29.639 192.819 30.8952 193.748 31.8218C194.677 32.7484 195.937 33.2697 197.251 33.2715H203.902C205.216 33.2697 206.476 32.7484 207.405 31.8218C208.334 30.8952 208.857 29.639 208.859 28.3286V21.6974C208.857 20.387 208.334 19.1308 207.405 18.2042C206.476 17.2776 205.216 16.7563 203.902 16.7545L197.251 16.707Z" fill="#F0F0F0"/>
<path d="M197.809 29.2913L188.112 19.6225L191.002 16.7476L197.809 23.5415L210.151 11.2351L213.034 14.11L197.809 29.2913Z" fill="#E0E0E0"/>
<path d="M61.1289 124.081H56.0085C55.296 124.081 54.5906 123.941 53.9328 123.668C53.2751 123.395 52.6781 122.994 52.1762 122.49C51.6743 121.986 51.2774 121.388 51.0085 120.73C50.7396 120.072 50.6039 119.368 50.6093 118.657V113.572C50.6111 112.145 51.1807 110.778 52.1931 109.769C53.2054 108.761 54.5777 108.195 56.0085 108.195H61.1289C62.5585 108.197 63.929 108.764 64.9399 109.772C65.9508 110.78 66.5195 112.146 66.5213 113.572V118.657C66.5267 119.367 66.3912 120.071 66.1227 120.728C65.8542 121.386 65.458 121.984 64.9568 122.488C64.4556 122.992 63.8594 123.392 63.2024 123.666C62.5455 123.939 61.8408 124.081 61.1289 124.081ZM56.0085 109.782C54.9978 109.782 54.0282 110.18 53.311 110.89C52.5938 111.6 52.1873 112.564 52.1801 113.572V118.657C52.1819 119.668 52.586 120.638 53.3038 121.352C54.0216 122.066 54.9943 122.468 56.0085 122.468H61.1289C62.1424 122.468 63.1145 122.066 63.8312 121.352C64.5479 120.637 64.9505 119.668 64.9505 118.657V113.572C64.9505 113.071 64.8516 112.576 64.6596 112.114C64.4675 111.651 64.186 111.231 63.8312 110.877C63.4763 110.523 63.055 110.243 62.5913 110.051C62.1277 109.86 61.6307 109.761 61.1289 109.761L56.0085 109.782Z" fill="#F0F0F0"/>
<path d="M56.4366 119.443L48.9634 111.999L51.187 109.781L56.4366 115.016L65.943 105.53L68.1666 107.747L56.4366 119.443Z" fill="#E0E0E0"/>
<path d="M293.58 165.666H288.453C287.023 165.664 285.653 165.097 284.642 164.089C283.631 163.081 283.062 161.714 283.06 160.289V155.176C283.062 153.751 283.631 152.384 284.642 151.376C285.653 150.368 287.023 149.801 288.453 149.799H293.58C295.01 149.801 296.38 150.368 297.391 151.376C298.402 152.384 298.97 153.751 298.972 155.176V160.289C298.97 161.714 298.402 163.081 297.391 164.089C296.38 165.097 295.01 165.664 293.58 165.666ZM288.453 151.366C287.439 151.366 286.467 151.767 285.75 152.482C285.034 153.196 284.631 154.166 284.631 155.176V160.289C284.631 160.789 284.73 161.285 284.922 161.747C285.114 162.209 285.396 162.629 285.75 162.983C286.105 163.337 286.527 163.618 286.99 163.809C287.454 164.001 287.951 164.099 288.453 164.099H293.58C294.082 164.099 294.579 164.001 295.042 163.809C295.506 163.618 295.927 163.337 296.282 162.983C296.637 162.629 296.919 162.209 297.111 161.747C297.303 161.285 297.402 160.789 297.402 160.289V155.176C297.402 154.166 296.999 153.196 296.282 152.482C295.565 151.767 294.593 151.366 293.58 151.366H288.453Z" fill="#F0F0F0"/>
<path d="M288.888 161.048L281.415 153.603L283.639 151.386L288.888 156.621L298.395 147.135L300.618 149.352L288.888 161.048Z" fill="#E0E0E0"/>
<path d="M170.5 250C243.316 250 302.345 246.564 302.345 242.325C302.345 238.086 243.316 234.649 170.5 234.649C97.6841 234.649 38.655 238.086 38.655 242.325C38.655 246.564 97.6841 250 170.5 250Z" fill="#F5F5F5"/>
<path d="M236.759 98.3154C237.729 95.7394 238.905 93.2453 240.275 90.857C240.921 89.6772 241.635 88.5381 242.315 87.4058C242.995 86.2734 243.743 85.175 244.559 84.0156C245.073 83.315 245.841 82.8419 246.7 82.6968C247.558 82.5517 248.44 82.7461 249.157 83.2387C249.874 83.7312 250.37 84.4831 250.54 85.3347C250.71 86.1862 250.54 87.0702 250.067 87.799V87.8397C249.387 88.8297 248.707 89.8738 248.027 90.9587C247.347 92.0436 246.728 93.0877 246.096 94.159C244.852 96.2376 243.744 98.3936 242.778 100.614C242.506 101.292 242.268 101.929 242.098 102.546H235.644C235.879 101.104 236.253 99.6869 236.759 98.3154Z" fill="#F2B4AE"/>
<path d="M249.944 76.9099C243.444 78.3473 237.942 92.3217 237.942 92.3217L245.422 96.5595C247.636 94.1915 249.471 91.4974 250.862 88.5722C252.494 85.1006 255.738 75.6284 249.944 76.9099Z" fill="#2489B0"/>
<path opacity="0.2" d="M252.331 84.7548C251.926 86.0558 251.436 87.3288 250.863 88.5653C249.472 91.4906 247.637 94.1847 245.423 96.5526L243.797 95.6034C246.375 90.9385 246.347 84.9785 246.347 84.9785L251.951 84.0089L252.331 84.7548Z" fill="#333333"/>
<path d="M244.248 126.946L244.65 127.016C244.947 127.068 245.211 127.235 245.384 127.481C245.557 127.726 245.625 128.031 245.573 128.326L243.201 141.865C243.149 142.161 242.982 142.424 242.735 142.597C242.489 142.769 242.184 142.837 241.887 142.786L241.827 142.775C241.333 142.689 240.893 142.411 240.605 142.002C240.317 141.593 240.204 141.086 240.29 140.594L242.46 128.211C242.53 127.807 242.758 127.448 243.093 127.211C243.428 126.974 243.843 126.879 244.248 126.946Z" fill="#263238"/>
<path opacity="0.1" d="M244.248 126.946L244.65 127.016C244.947 127.068 245.211 127.235 245.384 127.481C245.557 127.726 245.625 128.031 245.573 128.326L243.201 141.865C243.149 142.161 242.982 142.424 242.735 142.597C242.489 142.769 242.184 142.837 241.887 142.786L241.827 142.775C241.333 142.689 240.893 142.411 240.605 142.002C240.317 141.593 240.204 141.086 240.29 140.594L242.46 128.211C242.53 127.807 242.758 127.448 243.093 127.211C243.428 126.974 243.843 126.879 244.248 126.946Z" fill="white"/>
<path d="M244.824 237.538L239.751 237.477L239.33 225.719L246.028 225.828L244.824 237.538Z" fill="#F2B4AE"/>
<path opacity="0.2" d="M239.33 225.726L239.574 232.594L245.327 232.668L246.034 225.828L239.33 225.726Z" fill="#333333"/>
<path d="M239.642 235.754L245.178 235.842C245.275 235.842 245.369 235.878 245.44 235.943C245.512 236.009 245.557 236.098 245.565 236.195L246.041 240.703C246.05 240.818 246.034 240.932 245.996 241.04C245.958 241.148 245.897 241.247 245.819 241.331C245.74 241.414 245.645 241.48 245.539 241.525C245.434 241.57 245.32 241.593 245.205 241.591C243.212 241.53 240.343 241.368 237.834 241.327C234.903 241.28 235.188 241.402 231.748 241.327C229.667 241.293 229.34 239.185 230.231 239.008C234.311 238.208 234.706 238.168 238.391 236.114C238.77 235.888 239.201 235.764 239.642 235.754Z" fill="#263238"/>
<path d="M238.724 236.208C238.745 236.201 238.763 236.188 238.777 236.172C238.791 236.155 238.801 236.135 238.806 236.114C238.808 236.089 238.804 236.063 238.793 236.04C238.782 236.018 238.766 235.998 238.744 235.985C238.513 235.863 236.494 234.805 235.875 235.137C235.816 235.166 235.766 235.211 235.73 235.265C235.694 235.32 235.674 235.384 235.671 235.449C235.656 235.557 235.667 235.667 235.704 235.77C235.74 235.872 235.801 235.965 235.882 236.039C236.432 236.534 237.922 236.358 238.71 236.208H238.724ZM236.004 235.327C236.385 235.198 237.486 235.639 238.282 236.005C237.16 236.175 236.324 236.114 236.018 235.836C235.964 235.787 235.923 235.725 235.899 235.656C235.875 235.588 235.869 235.514 235.882 235.442C235.882 235.417 235.889 235.393 235.902 235.371C235.916 235.35 235.934 235.332 235.956 235.32L236.004 235.327Z" fill="#2489B0"/>
<path d="M238.724 236.208C238.742 236.198 238.757 236.183 238.766 236.165C238.776 236.147 238.78 236.127 238.779 236.107C238.779 236.046 238.663 234.683 238.031 234.141C237.938 234.06 237.83 233.999 237.713 233.962C237.596 233.925 237.473 233.912 237.351 233.924C237.018 233.924 236.922 234.12 236.895 234.256C236.793 234.825 237.99 235.937 238.595 236.222C238.616 236.231 238.639 236.234 238.662 236.232C238.684 236.229 238.706 236.221 238.724 236.208ZM237.29 234.175C237.33 234.17 237.371 234.17 237.412 234.175C237.5 234.164 237.589 234.173 237.674 234.2C237.758 234.227 237.836 234.271 237.902 234.33C238.27 234.778 238.493 235.326 238.541 235.903C237.922 235.517 237.113 234.649 237.181 234.303C237.181 234.256 237.188 234.202 237.29 234.168V234.175Z" fill="#2489B0"/>
<path d="M250.597 181.803C258.138 155.983 265.17 138.042 263.517 125.234L245.62 125.444C245.62 125.444 236.14 167.306 236.848 182.454C237.582 198.204 238.513 228.133 238.513 228.133L246.673 228.248C246.673 228.248 252.719 199.398 250.597 181.803Z" fill="#263238"/>
<path opacity="0.2" d="M253.63 171.395C257.628 158.227 261.212 149.074 263.279 141.405C251.42 145.575 251.658 160.017 253.63 171.395Z" fill="#333333"/>
<path d="M237.358 226.323L237.854 229.814L246.83 229.97L247.367 226.675L237.358 226.323Z" fill="#263238"/>
<path opacity="0.3" d="M237.358 226.323L237.854 229.814L246.83 229.97L247.367 226.675L237.358 226.323Z" fill="#333333"/>
<path d="M279.429 237.538L274.343 237.477L271.705 225.719L278.233 225.821L279.429 237.538Z" fill="#F2B4AE"/>
<path opacity="0.2" d="M271.705 225.726L273.235 232.513L278.926 232.587L278.239 225.828L271.705 225.726Z" fill="#333333"/>
<path d="M273.962 236.439L279.49 236.331C279.589 236.326 279.685 236.359 279.76 236.422C279.836 236.484 279.885 236.573 279.898 236.67L280.538 241.158C280.551 241.271 280.54 241.386 280.507 241.495C280.473 241.604 280.417 241.704 280.342 241.79C280.267 241.876 280.175 241.946 280.072 241.995C279.969 242.043 279.856 242.07 279.742 242.073C277.75 242.073 277.117 241.944 274.608 241.992C271.677 242.053 273.03 242.121 269.596 242.195C267.516 242.236 267.108 240.161 267.992 239.931C270.786 239.253 271.48 238.1 272.711 236.86C273.058 236.564 273.506 236.414 273.962 236.439Z" fill="#263238"/>
<path d="M274.975 236.785C274.997 236.785 275.019 236.779 275.038 236.768C275.057 236.757 275.073 236.742 275.084 236.724C275.097 236.702 275.104 236.678 275.104 236.652C275.104 236.627 275.097 236.603 275.084 236.581C274.907 236.398 273.309 234.764 272.616 234.886C272.551 234.899 272.491 234.927 272.44 234.969C272.389 235.01 272.349 235.063 272.323 235.124C272.273 235.22 272.247 235.327 272.247 235.436C272.247 235.544 272.273 235.651 272.323 235.747C272.684 236.391 274.125 236.676 274.955 236.785H274.975ZM272.684 235.117C273.092 235.117 274.003 235.869 274.635 236.473C273.513 236.29 272.745 235.971 272.534 235.612C272.501 235.548 272.483 235.477 272.483 235.405C272.483 235.333 272.501 235.262 272.534 235.198C272.54 235.173 272.553 235.15 272.573 235.133C272.592 235.116 272.617 235.106 272.643 235.103L272.684 235.117Z" fill="#2489B0"/>
<path d="M274.975 236.785H275.009C275.029 236.781 275.048 236.771 275.063 236.757C275.077 236.742 275.087 236.724 275.091 236.703C275.091 236.642 275.424 235.348 274.982 234.602C274.922 234.498 274.841 234.408 274.744 234.338C274.646 234.267 274.535 234.219 274.418 234.195C274.098 234.12 273.948 234.242 273.887 234.364C273.615 234.88 274.404 236.303 274.894 236.758C274.904 236.768 274.917 236.776 274.931 236.78C274.945 236.785 274.96 236.786 274.975 236.785ZM274.241 234.405C274.281 234.399 274.323 234.399 274.363 234.405C274.536 234.449 274.685 234.558 274.778 234.71C274.995 235.246 275.037 235.837 274.9 236.398C274.431 235.842 273.935 234.764 274.098 234.459C274.114 234.438 274.136 234.421 274.161 234.412C274.187 234.402 274.214 234.4 274.241 234.405Z" fill="#2489B0"/>
<path d="M273.643 182.616C276.424 156.79 278.722 137.757 274.703 124.983L256.058 125.478C256.058 125.478 256.513 168.154 260.015 183.301C263.653 199.052 271.188 228.167 271.188 228.167L279.348 228.282C279.348 228.282 279.015 200.205 273.643 182.616Z" fill="#263238"/>
<path d="M269.991 226.323L270.528 229.814L279.701 229.97L280.218 226.675L269.991 226.323Z" fill="#263238"/>
<path opacity="0.3" d="M269.991 226.323L270.528 229.814L279.701 229.97L280.218 226.675L269.991 226.323Z" fill="#333333"/>
<path d="M252.556 76.1301C258.257 75.5235 264.015 75.7289 269.658 76.7403C271.185 76.9836 272.596 77.7066 273.683 78.8042C274.77 79.9017 275.478 81.3164 275.703 82.8427C276.757 90.0774 278.423 104.323 275.424 126.549C272.738 127.397 264.83 127.336 258.54 126.888C257.86 126.834 256.187 125.247 256.187 125.247C256.187 125.247 254.677 126.542 253.807 126.441C249.645 125.939 246.327 125.227 245.558 124.407C243.858 120.338 242.791 110.127 247.313 100.967C247.36 95.4814 246.272 89.3044 246.177 83.4122C246.148 81.6265 246.784 79.8933 247.962 78.5481C249.14 77.2029 250.777 76.3413 252.556 76.1301Z" fill="#2489B0"/>
<path d="M262.178 66.7732C262.681 70.5363 263.449 74.9097 266.115 77.0387C265.558 78.499 264.581 79.7632 263.308 80.6736C262.034 81.584 260.52 82.1002 258.954 82.1579C254.915 82.3681 255.554 79.1542 256.234 77.4523C257.948 75.5335 257.125 73.3841 256.69 71.8721L262.178 66.7732Z" fill="#F2B4AE"/>
<path opacity="0.2" d="M261.062 68.6105C261.062 68.3733 260.994 68.136 260.96 67.8987L256.663 71.8716C257.046 72.8996 257.24 73.9883 257.234 75.0851C259.362 73.6682 261.321 70.8953 261.062 68.6105Z" fill="#333333"/>
<path d="M263.592 61.3014C262.953 66.2782 262.837 69.2277 260.138 71.6008C256.058 75.1809 250.033 72.428 249.163 67.3563C248.381 62.7863 249.55 55.416 254.603 53.7955C255.717 53.4396 256.904 53.3708 258.052 53.5953C259.201 53.8198 260.273 54.3304 261.171 55.0796C262.068 55.8288 262.761 56.7921 263.184 57.88C263.607 58.9678 263.748 60.1448 263.592 61.3014Z" fill="#F2B4AE"/>
<path d="M255.602 64.122C255.602 64.5288 255.337 64.8406 255.065 64.8C254.793 64.7593 254.602 64.4406 254.63 64.0339C254.657 63.6271 254.895 63.3084 255.167 63.3559C255.439 63.4033 255.622 63.7356 255.602 64.122Z" fill="#263238"/>
<path d="M250.495 63.905C250.495 64.3118 250.23 64.6236 249.965 64.583C249.699 64.5423 249.502 64.2169 249.529 63.8101C249.557 63.4033 249.795 63.0914 250.06 63.1321C250.325 63.1728 250.522 63.4982 250.495 63.905Z" fill="#263238"/>
<path d="M257.003 64.2441H253.229C253.082 64.2433 252.94 64.297 252.831 64.3948C252.721 64.4925 252.652 64.6273 252.637 64.7729C252.454 64.692 252.256 64.6502 252.056 64.6502C251.856 64.6502 251.657 64.692 251.474 64.7729C251.456 64.6291 251.386 64.4968 251.277 64.4008C251.168 64.3047 251.028 64.2514 250.883 64.2509H248.02C247.859 64.2509 247.706 64.3145 247.592 64.4276C247.479 64.5408 247.415 64.6943 247.415 64.8543V66.5967C247.415 66.7567 247.479 66.9102 247.592 67.0233C247.706 67.1365 247.859 67.2001 248.02 67.2001H250.903C251.064 67.2001 251.218 67.1365 251.331 67.0233C251.445 66.9102 251.508 66.7567 251.508 66.5967V65.1729C251.679 65.0664 251.875 65.0099 252.076 65.0099C252.277 65.0099 252.474 65.0664 252.644 65.1729V66.6102C252.644 66.7703 252.708 66.9237 252.821 67.0369C252.935 67.15 253.089 67.2136 253.249 67.2136H257.023C257.184 67.2136 257.338 67.15 257.451 67.0369C257.565 66.9237 257.628 66.7703 257.628 66.6102V64.8679C257.631 64.7852 257.617 64.7028 257.587 64.6258C257.556 64.5489 257.51 64.479 257.451 64.4205C257.393 64.362 257.323 64.3162 257.246 64.2858C257.168 64.2555 257.086 64.2413 257.003 64.2441ZM251.134 66.5899C251.133 66.6559 251.106 66.7187 251.059 66.7654C251.012 66.812 250.949 66.839 250.883 66.8407H248.02C247.953 66.8407 247.889 66.8143 247.842 66.7673C247.795 66.7202 247.768 66.6564 247.768 66.5899V64.8475C247.768 64.781 247.795 64.7172 247.842 64.6701C247.889 64.6231 247.953 64.5967 248.02 64.5967H250.903C250.969 64.5984 251.032 64.6254 251.079 64.672C251.126 64.7187 251.153 64.7815 251.155 64.8475L251.134 66.5899ZM257.254 66.5899C257.255 66.6231 257.249 66.6561 257.237 66.687C257.225 66.7178 257.206 66.7459 257.183 66.7694C257.159 66.7928 257.131 66.8113 257.1 66.8235C257.069 66.8358 257.036 66.8417 257.003 66.8407H253.229C253.196 66.8417 253.162 66.8358 253.131 66.8235C253.1 66.8113 253.072 66.7928 253.049 66.7694C253.025 66.7459 253.007 66.7178 252.994 66.687C252.982 66.6561 252.976 66.6231 252.977 66.5899V64.8475C252.976 64.8143 252.982 64.7813 252.994 64.7504C253.007 64.7196 253.025 64.6915 253.049 64.6681C253.072 64.6446 253.1 64.6261 253.131 64.6139C253.162 64.6016 253.196 64.5957 253.229 64.5967H257.003C257.069 64.5984 257.132 64.6254 257.179 64.672C257.226 64.7187 257.253 64.7815 257.254 64.8475V66.5899Z" fill="#263238"/>
<path d="M252.052 64.9967C251.514 65.9895 250.839 66.9022 250.046 67.7086C250.26 67.905 250.513 68.0538 250.788 68.145C251.064 68.2362 251.356 68.2677 251.644 68.2374L252.052 64.9967Z" fill="#F2B4AE"/>
<path d="M256.588 61.8911C256.627 61.88 256.662 61.859 256.69 61.8301C256.713 61.808 256.731 61.7816 256.743 61.7525C256.755 61.7234 256.761 61.6922 256.761 61.6606C256.761 61.629 256.755 61.5978 256.743 61.5687C256.731 61.5396 256.713 61.5132 256.69 61.4911C256.434 61.2127 256.116 60.9988 255.762 60.8668C255.407 60.7348 255.026 60.6885 254.65 60.7318C254.619 60.7375 254.59 60.7492 254.563 60.7663C254.537 60.7834 254.514 60.8055 254.497 60.8313C254.479 60.8571 254.467 60.8862 254.46 60.9168C254.454 60.9475 254.454 60.979 254.46 61.0098C254.474 61.0716 254.512 61.1255 254.565 61.1608C254.618 61.196 254.682 61.2099 254.745 61.1996C255.046 61.1683 255.35 61.2085 255.633 61.3169C255.915 61.4253 256.168 61.5989 256.37 61.8233C256.399 61.8505 256.434 61.8707 256.471 61.8824C256.509 61.8942 256.549 61.8972 256.588 61.8911Z" fill="#263238"/>
<path d="M248.945 61.83C248.984 61.8371 249.024 61.8347 249.062 61.8229C249.1 61.8111 249.134 61.7902 249.162 61.7622C249.365 61.5396 249.619 61.3687 249.901 61.2637C250.184 61.1588 250.488 61.1228 250.788 61.1588C250.818 61.1641 250.85 61.1634 250.88 61.1566C250.911 61.1497 250.94 61.137 250.965 61.1191C250.991 61.1011 251.013 61.0783 251.029 61.052C251.046 61.0257 251.058 60.9963 251.063 60.9656C251.068 60.9349 251.068 60.9034 251.061 60.873C251.054 60.8426 251.041 60.8138 251.023 60.7883C251.005 60.7628 250.982 60.7411 250.956 60.7244C250.929 60.7077 250.9 60.6963 250.869 60.691C250.495 60.6393 250.114 60.6789 249.759 60.8064C249.403 60.934 249.084 61.1456 248.829 61.4232C248.785 61.4687 248.76 61.5295 248.76 61.5927C248.76 61.6559 248.785 61.7167 248.829 61.7622C248.859 61.7971 248.9 61.821 248.945 61.83Z" fill="#263238"/>
<path d="M264.7 75.1741C264.823 76.3266 263.436 80.4148 258.58 82.1639C260.45 82.1639 261.266 84.5436 261.266 84.5436C261.266 84.5436 267.692 81.1537 266.924 77.0114C266.823 76.4961 266.547 76.0315 266.141 75.6965C265.736 75.3616 265.227 75.1769 264.7 75.1741Z" fill="#2489B0"/>
<path d="M257.091 75.486C257.206 76.6182 255.894 78.991 258.594 82.1639C256.717 82.1639 255.602 84.0351 255.602 84.0351C254.88 82.9109 254.453 81.624 254.36 80.2925C254.268 78.961 254.512 77.6276 255.071 76.4148C255.634 75.9071 256.338 75.583 257.091 75.486Z" fill="#2489B0"/>
<g opacity="0.5">
<path d="M264.7 75.1741C264.823 76.3266 263.436 80.4148 258.58 82.1639C260.45 82.1639 261.266 84.5436 261.266 84.5436C261.266 84.5436 267.692 81.1537 266.924 77.0114C266.823 76.4961 266.547 76.0315 266.141 75.6965C265.736 75.3616 265.227 75.1769 264.7 75.1741Z" fill="white"/>
<path d="M257.091 75.4858C257.206 76.618 255.894 78.9909 258.594 82.1638C256.717 82.1638 255.602 84.035 255.602 84.035C254.88 82.9108 254.453 81.6238 254.36 80.2923C254.268 78.9608 254.512 77.6274 255.071 76.4147C255.634 75.9069 256.338 75.5828 257.091 75.4858Z" fill="white"/>
</g>
<path d="M244.375 128.386L276.369 129.247V125.234L244.865 124.393L244.375 128.386Z" fill="#263238"/>
<path opacity="0.3" d="M244.375 128.386L276.369 129.247V125.234L244.865 124.393L244.375 128.386Z" fill="white"/>
<path d="M266.693 127.749L267.733 144.158L276.213 143.622C276.745 143.584 277.242 143.339 277.595 142.939C277.949 142.54 278.131 142.018 278.103 141.486L277.294 128.739C277.266 128.301 277.065 127.893 276.734 127.603C276.404 127.313 275.972 127.166 275.533 127.193L266.693 127.749Z" fill="#263238"/>
<path opacity="0.3" d="M266.693 127.749L267.733 144.158L276.213 143.622C276.745 143.584 277.242 143.339 277.595 142.939C277.949 142.54 278.131 142.018 278.103 141.486L277.294 128.739C277.266 128.301 277.065 127.893 276.734 127.603C276.404 127.313 275.972 127.166 275.533 127.193L266.693 127.749Z" fill="white"/>
<path opacity="0.2" d="M268.759 144.072L267.754 144.135L266.716 127.726L268.073 127.64C268.485 127.614 268.891 127.753 269.201 128.025C269.511 128.297 269.699 128.681 269.725 129.092L270.548 142.091C270.561 142.339 270.525 142.586 270.442 142.819C270.359 143.053 270.231 143.267 270.065 143.451C269.898 143.635 269.698 143.785 269.473 143.891C269.249 143.998 269.006 144.059 268.759 144.072Z" fill="#333333"/>
<path opacity="0.2" d="M269.726 129.736V129.221C269.712 129.003 269.655 128.791 269.558 128.595C269.462 128.4 269.328 128.225 269.164 128.081C268.999 127.938 268.808 127.828 268.601 127.758C268.394 127.688 268.176 127.66 267.958 127.675L275.56 127.193C275.999 127.166 276.431 127.313 276.762 127.603C277.092 127.893 277.293 128.301 277.321 128.739L277.355 129.254L277.43 130.509C277.442 130.698 277.416 130.889 277.354 131.068C277.292 131.248 277.195 131.414 277.069 131.556C276.943 131.699 276.789 131.815 276.618 131.898C276.446 131.981 276.26 132.03 276.07 132.041L271.364 132.332C271.174 132.345 270.983 132.32 270.802 132.259C270.621 132.197 270.455 132.101 270.312 131.975C270.169 131.849 270.052 131.695 269.969 131.524C269.886 131.353 269.838 131.167 269.828 130.976L269.726 129.736Z" fill="white"/>
<path d="M273.003 130.699C273.01 130.811 273.05 130.919 273.119 131.009C273.188 131.099 273.282 131.166 273.389 131.202C273.496 131.239 273.611 131.243 273.721 131.214C273.83 131.185 273.928 131.124 274.003 131.039C274.077 130.954 274.125 130.849 274.14 130.737C274.154 130.625 274.135 130.512 274.085 130.41C274.035 130.309 273.955 130.225 273.857 130.169C273.759 130.113 273.646 130.088 273.533 130.095C273.459 130.1 273.385 130.119 273.318 130.152C273.251 130.184 273.191 130.23 273.141 130.286C273.092 130.342 273.054 130.408 273.031 130.479C273.007 130.549 272.997 130.624 273.003 130.699Z" fill="#263238"/>
<path d="M255.419 126.617C255.434 126.758 255.501 126.889 255.607 126.984C255.713 127.078 255.851 127.131 255.993 127.131C256.136 127.131 256.273 127.078 256.379 126.984C256.485 126.889 256.552 126.758 256.568 126.617C256.552 126.476 256.485 126.345 256.379 126.25C256.273 126.156 256.136 126.103 255.993 126.103C255.851 126.103 255.713 126.156 255.607 126.25C255.501 126.345 255.434 126.476 255.419 126.617Z" fill="#263238"/>
<path opacity="0.1" d="M275.101 132.124L272.237 132.304L272.967 143.848L275.831 143.668L275.101 132.124Z" fill="#333333"/>
<path d="M261.083 65.8575C261.083 65.8575 259.553 65.9999 259.968 63.8641C260.382 61.7283 258.274 59.606 258.873 57.5651C259.471 55.5242 252.964 57.1108 252.494 55.531C252.025 53.9511 251.923 58.4126 249.91 57.8024C248.156 57.2735 250.441 55.1784 250.441 55.1784C250.441 55.1784 247.755 56.704 247.755 55.1784C247.755 53.6528 250.924 53.7206 252.046 53.4562C255.242 52.69 262.212 48.9404 264.184 58.4872C264.184 58.4872 267.169 60.5688 262.824 66.6237L261.083 65.8575Z" fill="#263238"/>
<path opacity="0.2" d="M275.947 84.6055C276.74 90.5596 277.129 96.5604 277.11 102.567C272.806 98.8579 269.039 88.7551 269.039 88.7551V84.7547L272.248 82.1781L275.947 84.6055Z" fill="#333333"/>
<path d="M246.395 96.2471L237.82 91.3522L237.147 93.6505L244.865 98.0166L246.395 96.2471Z" fill="#2489B0"/>
<path opacity="0.5" d="M246.395 96.2471L237.82 91.3522L237.147 93.6505L244.865 98.0166L246.395 96.2471Z" fill="white"/>
<path d="M251.318 52.9954C251.318 52.9954 258.03 46.7303 264.136 51.9038C269.223 56.2229 264.884 62.949 264.884 62.949L262.436 60.1013L257.676 56.033L253.317 53.5175L251.318 52.9954Z" fill="#2489B0"/>
<path d="M247.741 52.5613C250.693 50.3034 259.601 54.5208 264.973 63.0167V63.0845C263.456 61.43 255.106 52.6494 250.074 53.7343C250.06 53.7343 245.926 53.9513 247.741 52.5613Z" fill="#2489B0"/>
<g opacity="0.3">
<path d="M247.741 52.5613C250.693 50.3034 259.601 54.5208 264.973 63.0167V63.0845C263.456 61.43 255.106 52.6494 250.074 53.7343C250.06 53.7343 245.926 53.9513 247.741 52.5613Z" fill="#333333"/>
</g>
<path d="M253.508 51.1714C255.772 49.8832 260.179 48.2559 264.279 51.7342C268.672 55.4567 266.237 60.9352 265.387 62.5218L264.973 62.3388C264.973 62.271 267.366 55.9448 264.014 53.1174C261.294 50.8053 257.969 52.0461 256.241 52.9886L256.126 53.0496L256.01 52.9818C255.446 52.6224 254.555 52.0936 253.515 51.5715L253.141 51.3749L253.508 51.1714Z" fill="#2489B0"/>
<path opacity="0.3" d="M253.508 51.1714C255.772 49.8832 260.179 48.2559 264.279 51.7342C268.672 55.4567 266.237 60.9352 265.387 62.5218L264.973 62.3388C264.973 62.271 267.366 55.9448 264.014 53.1174C261.294 50.8053 257.969 52.0461 256.241 52.9886L256.126 53.0496L256.01 52.9818C255.446 52.6224 254.555 52.0936 253.515 51.5715L253.141 51.3749L253.508 51.1714Z" fill="white"/>
<path d="M252.868 70.2852C252.629 70.284 252.39 70.2636 252.154 70.2242C252.121 70.2176 252.092 70.1983 252.073 70.1704C252.054 70.1425 252.046 70.1083 252.052 70.0751C252.055 70.0589 252.06 70.0435 252.069 70.0296C252.078 70.0157 252.089 70.0036 252.102 69.9941C252.116 69.9847 252.131 69.9779 252.147 69.9744C252.163 69.9708 252.179 69.9705 252.195 69.9734C252.718 70.0775 253.258 70.0576 253.772 69.915C254.286 69.7725 254.759 69.5115 255.153 69.153C255.176 69.1288 255.207 69.1144 255.24 69.1131C255.273 69.1119 255.306 69.1238 255.33 69.1462C255.354 69.1687 255.369 69.1999 255.37 69.233C255.371 69.266 255.359 69.2982 255.337 69.3225C254.672 69.9535 253.786 70.2992 252.868 70.2852Z" fill="#263238"/>
<path opacity="0.5" d="M270.188 92.8438H261.083L261.382 93.8946C261.465 94.1922 261.643 94.4552 261.888 94.6445C262.133 94.8338 262.432 94.9393 262.742 94.9454H268.148C268.408 94.9455 268.664 94.8756 268.888 94.7432C269.111 94.6107 269.295 94.4207 269.42 94.1929L270.188 92.8438Z" fill="white"/>
<path d="M265.068 93.8404C265.068 93.9896 265.128 94.1327 265.233 94.2383C265.339 94.3438 265.483 94.4031 265.633 94.4031C265.783 94.4031 265.927 94.344 266.034 94.2387C266.141 94.1333 266.202 93.9902 266.204 93.8404C266.202 93.6899 266.141 93.546 266.034 93.4396C265.928 93.3332 265.783 93.2726 265.633 93.2709C265.482 93.2727 265.339 93.3334 265.233 93.4401C265.127 93.5467 265.068 93.6905 265.068 93.8404Z" fill="#2489B0"/>
<path opacity="0.5" d="M254.629 92.7896H247.299L247.537 93.8404C247.576 94.1166 247.709 94.3713 247.913 94.5623C248.117 94.7533 248.38 94.8693 248.659 94.8912H253.011C253.237 94.8791 253.455 94.8014 253.637 94.6677C253.819 94.534 253.959 94.3502 254.038 94.1387L254.629 92.7896Z" fill="white"/>
<path d="M249.788 93.8404C249.788 93.9896 249.847 94.1327 249.953 94.2383C250.059 94.3438 250.203 94.4031 250.352 94.4031C250.503 94.4031 250.647 94.344 250.754 94.2387C250.861 94.1333 250.922 93.9902 250.923 93.8404C250.922 93.6899 250.861 93.546 250.754 93.4396C250.647 93.3332 250.503 93.2726 250.352 93.2709C250.202 93.2727 250.058 93.3334 249.953 93.4401C249.847 93.5467 249.788 93.6905 249.788 93.8404Z" fill="#2489B0"/>
<path d="M257.363 64.6848L261.579 64.4L261.545 63.9458L256.969 64.2644L257.363 64.6848Z" fill="#263238"/>
<path d="M264.959 66.4948C264.625 67.0213 264.189 67.4761 263.676 67.8323C263.163 68.1886 262.584 68.4392 261.973 68.5694C260.335 68.9151 259.607 67.4236 260.144 65.9388C260.627 64.5829 262.062 62.8066 263.667 63.1321C264.016 63.2088 264.341 63.3709 264.613 63.6038C264.884 63.8367 265.093 64.1331 265.221 64.4664C265.349 64.7998 265.392 65.1596 265.346 65.5136C265.301 65.8676 265.167 66.2048 264.959 66.4948Z" fill="#F2B4AE"/>
<path d="M255.881 99.6031L255.541 100.661C255.53 100.692 255.529 100.725 255.537 100.757C255.546 100.788 255.564 100.816 255.589 100.838C255.614 100.859 255.645 100.872 255.677 100.876C255.71 100.879 255.743 100.873 255.772 100.857L256.771 100.356L262.715 93.3862C262.775 93.315 262.804 93.2231 262.797 93.1304C262.789 93.0377 262.745 92.9517 262.674 92.8913L262.327 92.593C262.292 92.5623 262.25 92.539 262.206 92.5244C262.161 92.5098 262.114 92.5042 262.067 92.508C262.02 92.5118 261.974 92.5248 261.933 92.5464C261.891 92.568 261.854 92.5976 261.824 92.6336L255.881 99.6031Z" fill="#263238"/>
<path opacity="0.5" d="M255.881 99.6031L255.541 100.661C255.53 100.692 255.529 100.725 255.537 100.757C255.546 100.788 255.564 100.816 255.589 100.838C255.614 100.859 255.645 100.872 255.677 100.876C255.71 100.879 255.743 100.873 255.772 100.857L256.771 100.356L262.715 93.3862C262.775 93.315 262.804 93.2231 262.797 93.1304C262.789 93.0377 262.745 92.9517 262.674 92.8913L262.327 92.593C262.292 92.5623 262.25 92.539 262.206 92.5244C262.161 92.5098 262.114 92.5042 262.067 92.508C262.02 92.5118 261.974 92.5248 261.933 92.5464C261.891 92.568 261.854 92.5976 261.824 92.6336L255.881 99.6031Z" fill="white"/>
<path opacity="0.5" d="M262.184 92.5252L255.99 99.7862L255.575 100.81C255.556 100.79 255.543 100.766 255.537 100.74C255.531 100.714 255.532 100.686 255.541 100.661L255.881 99.6031L261.824 92.6336C261.868 92.5836 261.925 92.5468 261.989 92.5276C262.052 92.5084 262.12 92.5076 262.184 92.5252Z" fill="white"/>
<path d="M265.244 99.875L261.164 97.8411L260.226 103.211C260.226 103.211 264.149 104.566 265.217 102.621L265.244 99.875Z" fill="#F2B4AE"/>
<path d="M256.656 99.3596V101.299C256.652 101.672 256.783 102.034 257.023 102.32C257.264 102.606 257.599 102.797 257.968 102.858L260.219 103.238L261.157 97.8681L258.288 97.7935C258.077 97.7881 257.868 97.8245 257.671 97.9005C257.475 97.9765 257.295 98.0907 257.143 98.2364C256.992 98.3821 256.87 98.5564 256.787 98.7492C256.703 98.942 256.658 99.1495 256.656 99.3596Z" fill="#F2B4AE"/>
<path d="M263.327 102.764C266.235 104.617 269.344 106.136 272.595 107.293C273.468 107.597 274.358 107.848 275.261 108.046C276.322 108.283 277.411 108.379 278.497 108.33C279.295 108.283 280.076 108.08 280.796 107.734C281.302 107.485 281.761 107.152 282.156 106.75C282.258 106.642 282.373 106.506 282.455 106.411L282.652 106.147C282.781 105.971 282.883 105.788 282.992 105.605C283.641 104.382 283.962 103.014 283.924 101.631C283.909 100.584 283.784 99.5405 283.55 98.5191C283.35 97.6023 283.1 96.6969 282.802 95.8069C282.231 94.1193 281.561 92.4666 280.796 90.8572C280.048 89.2977 279.259 87.7722 278.402 86.294C277.545 84.8159 276.695 83.3852 275.682 81.9071C275.165 81.1595 274.375 80.6428 273.482 80.4671C272.588 80.2914 271.661 80.4705 270.897 80.9664C270.134 81.4623 269.595 82.2357 269.395 83.1218C269.196 84.008 269.351 84.937 269.827 85.7109L269.861 85.7719C270.657 87.0399 271.514 88.4299 272.289 89.7859C273.064 91.142 273.833 92.4981 274.526 93.9084C275.223 95.2507 275.847 96.629 276.396 98.0377C276.898 99.2347 277.237 100.494 277.403 101.78C277.415 101.954 277.415 102.129 277.403 102.303C276.986 102.333 276.568 102.333 276.151 102.303C275.471 102.235 274.737 102.147 273.996 102.004C271.017 101.441 267.876 100.54 264.789 99.6379H264.727C264.323 99.5172 263.888 99.5472 263.505 99.7223C263.121 99.8974 262.814 100.206 262.641 100.59C262.468 100.973 262.441 101.407 262.564 101.809C262.688 102.212 262.954 102.556 263.313 102.777L263.327 102.764Z" fill="#F2B4AE"/>
<path d="M272.262 77.5337C279.368 79.7645 283.38 94.6135 283.38 94.6135L275.669 97.6376C273.087 95.6218 270.968 93.0788 269.454 90.1791C268.672 88.6671 266.598 75.7505 272.262 77.5337Z" fill="#2489B0"/>
<path d="M283.36 92.8438L273.935 96.559L275.322 98.5251L283.965 95.1149L283.36 92.8438Z" fill="#2489B0"/>
<path opacity="0.5" d="M283.36 92.8438L273.935 96.559L275.322 98.5251L283.965 95.1149L283.36 92.8438Z" fill="white"/>
<path d="M239.105 94.6814H253.018L262.79 111.66L262.416 112.039H248.503L238.724 95.0543L239.105 94.6814Z" fill="#263238"/>
<path opacity="0.2" d="M239.105 94.6814H253.018L262.79 111.66L262.416 112.039H248.503L238.724 95.0543L239.105 94.6814Z" fill="white"/>
<path d="M248.503 112.039H262.416L252.637 95.0541H238.724L248.503 112.039Z" fill="#263238"/>
<path opacity="0.4" d="M248.503 112.039H262.416L252.637 95.0541H238.724L248.503 112.039Z" fill="white"/>
<path d="M242.668 94.4304H247.965L249.087 96.383L248.931 96.5389H243.634L242.512 94.5863L242.668 94.4304Z" fill="#2489B0"/>
<path opacity="0.5" d="M242.668 94.4304H247.965L249.087 96.383L248.931 96.5389H243.634L242.512 94.5863L242.668 94.4304Z" fill="white"/>
<path d="M243.634 96.539L242.512 94.5864H247.809L248.931 96.539H243.634Z" fill="#2489B0"/>
<path opacity="0.2" d="M243.634 96.539L242.512 94.5864H247.809L248.931 96.539H243.634Z" fill="white"/>
<path d="M235.617 105.536C235.487 104.607 235.487 103.665 235.617 102.736C235.651 102.492 235.698 102.269 235.739 102.058H242.26C242.076 102.595 241.926 103.143 241.812 103.699C241.734 104.048 241.695 104.405 241.696 104.763C241.698 104.806 241.698 104.849 241.696 104.892C241.745 104.922 241.798 104.947 241.852 104.967C242.339 105.175 242.842 105.345 243.355 105.475C244.457 105.78 245.715 106.038 246.905 106.336H247.034C247.394 106.425 247.714 106.629 247.947 106.917C248.179 107.204 248.312 107.559 248.323 107.928C248.335 108.297 248.225 108.66 248.011 108.962C247.796 109.263 247.489 109.486 247.136 109.597C245.77 110.034 244.353 110.294 242.92 110.37C242.138 110.421 241.352 110.398 240.574 110.302C240.113 110.233 239.659 110.129 239.214 109.991C238.605 109.806 238.034 109.514 237.528 109.13C237.357 108.996 237.196 108.851 237.045 108.696C236.884 108.525 236.734 108.343 236.596 108.153C236.406 107.865 236.24 107.561 236.1 107.245C235.861 106.7 235.699 106.125 235.617 105.536Z" fill="#F2B4AE"/>
<path d="M246.891 109.611L251.726 108.933L248.938 104.472C248.938 104.472 244.858 105.069 245.13 107.584L246.891 109.611Z" fill="#F2B4AE"/>
<path d="M253.643 106.235L252.773 104.201C252.7 104.031 252.593 103.879 252.458 103.752C252.324 103.625 252.165 103.527 251.991 103.463C251.817 103.4 251.633 103.372 251.448 103.383C251.263 103.393 251.082 103.441 250.917 103.523L248.938 104.465L251.726 108.926L253.188 107.876C253.44 107.695 253.623 107.434 253.706 107.135C253.789 106.837 253.767 106.519 253.643 106.235Z" fill="#F2B4AE"/>
<path d="M71.6213 124.285H77.0273V126.414H76.1433V135.967H72.5053V126.414H71.6213V124.285Z" fill="#2489B0"/>
<g opacity="0.2">
<path d="M71.6213 124.285H77.0273V126.414H76.1433V135.967H72.5053V126.414H71.6213V124.285Z" fill="#333333"/>
</g>
<path d="M103.581 117.477L122.777 146.924V173.348H77.3262V146.924L103.581 117.477Z" fill="#2489B0"/>
<path opacity="0.5" d="M103.581 117.477L122.777 146.924V173.348H77.3262V146.924L103.581 117.477Z" fill="white"/>
<path d="M82.5014 118.677L85.4254 114.209H103.581L124.974 146.925H106.811H82.5014V118.677Z" fill="#2489B0"/>
<path opacity="0.2" d="M82.5014 118.677L85.4254 114.209H103.581L124.974 146.925H106.811H82.5014V118.677Z" fill="#333333"/>
<path d="M106.811 146.925L85.4252 114.209L64.0324 146.925H106.811Z" fill="#2489B0"/>
<path d="M85.4252 117.477L104.615 146.924V173.348H66.2288V146.924L85.4252 117.477Z" fill="#2489B0"/>
<path opacity="0.8" d="M85.4252 117.477L104.615 146.924V173.348H66.2288V146.924L85.4252 117.477Z" fill="white"/>
<path d="M94.0337 134.428H90.1509V144.687H94.0337V134.428Z" fill="#2489B0"/>
<path d="M80.4409 134.428H76.5581V144.687H80.4409V134.428Z" fill="#2489B0"/>
<path d="M90.144 133.94H80.4404V145.168H90.144V133.94Z" fill="#2489B0"/>
<path opacity="0.4" d="M90.144 133.94H80.4404V145.168H90.144V133.94Z" fill="white"/>
<path d="M88.9337 135.154H81.6509V143.961H88.9337V135.154Z" fill="#263238"/>
<path d="M79.4275 173.348H91.1643V154.458H79.4275V173.348Z" fill="#2489B0"/>
<path opacity="0.3" d="M79.4275 173.348H91.1643V154.458H79.4275V173.348Z" fill="white"/>
<path d="M80.1555 150.505H90.4371L92.9395 155.128H77.6531L80.1555 150.505Z" fill="#2489B0"/>
<path d="M89.1175 157.672H85.5203V173.355H89.1175V157.672Z" fill="#263238"/>
<path d="M85.0716 157.672H81.4744V173.355H85.0716V157.672Z" fill="#263238"/>
<path d="M115.454 192.435H60.7751V238.643H115.454V192.435Z" fill="#2489B0"/>
<path opacity="0.6" d="M115.454 192.435H60.7751V238.643H115.454V192.435Z" fill="white"/>
<path d="M128.224 192.435H101.221V238.643H128.224V192.435Z" fill="#2489B0"/>
<path opacity="0.8" d="M128.224 192.435H101.221V238.643H128.224V192.435Z" fill="white"/>
<path d="M96.135 197.079H85.3774V209.521H96.135V197.079Z" fill="#2489B0"/>
<path opacity="0.3" d="M96.135 197.079H85.3774V209.521H96.135V197.079Z" fill="white"/>
<path d="M94.7887 198.422H86.7239V208.179H94.7887V198.422Z" fill="#263238"/>
<path d="M109.226 197.615H104.921V208.986H109.226V197.615Z" fill="#2489B0"/>
<path d="M124.287 197.615H119.983V208.986H124.287V197.615Z" fill="#2489B0"/>
<path d="M119.983 197.079H109.225V209.521H119.983V197.079Z" fill="#2489B0"/>
<path opacity="0.3" d="M119.983 197.079H109.225V209.521H119.983V197.079Z" fill="white"/>
<path d="M118.636 198.422H110.571V208.179H118.636V198.422Z" fill="#263238"/>
<path d="M86.1864 218.085H73.416V238.636H86.1864V218.085Z" fill="#2489B0"/>
<path opacity="0.3" d="M86.1864 218.085H73.416V238.636H86.1864V218.085Z" fill="white"/>
<path d="M85.3979 213.779H74.2051L71.4851 218.81H88.1179L85.3979 213.779Z" fill="#2489B0"/>
<path d="M79.557 221.577H75.647V238.636H79.557V221.577Z" fill="#263238"/>
<path d="M83.9564 221.577H80.0464V238.636H83.9564V221.577Z" fill="#263238"/>
<path d="M121.547 192.828L110.864 173.056H65.372L54.6892 192.828H121.547Z" fill="#2489B0"/>
<path opacity="0.3" d="M121.547 192.828L110.864 173.056H65.372L54.6892 192.828H121.547Z" fill="#333333"/>
<path d="M134.317 192.828L123.634 173.056H105.818L95.1355 192.828H134.317Z" fill="#2489B0"/>
<path opacity="0.1" d="M134.317 192.828L123.634 173.056H105.818L95.1355 192.828H134.317Z" fill="#333333"/>
<path d="M75.5652 189.444V173.056H96.5908L87.7372 189.444H75.5652Z" fill="#2489B0"/>
<path opacity="0.8" d="M75.5652 189.444V173.056H96.5908L87.7372 189.444H75.5652Z" fill="white"/>
<path d="M74.9464 189.444H87.7168V176.711H74.9464V189.444Z" fill="#2489B0"/>
<path opacity="0.6" d="M74.9464 189.444H87.7168V176.711H74.9464V189.444Z" fill="white"/>
<path d="M84.0247 187.905H78.6391C78.4046 187.905 78.1798 187.812 78.014 187.647C77.8482 187.482 77.7551 187.258 77.7551 187.024V186.38H84.9087V187.024C84.9087 187.258 84.8156 187.482 84.6498 187.647C84.484 187.812 84.2591 187.905 84.0247 187.905Z" fill="#2489B0"/>
<path d="M79.074 181.158C79.0571 180.852 79.1031 180.545 79.2091 180.257C79.3151 179.969 79.4789 179.705 79.6905 179.483C79.9021 179.26 80.1571 179.082 80.4398 178.961C80.7226 178.84 81.0271 178.777 81.335 178.777C81.6428 178.777 81.9473 178.84 82.2301 178.961C82.5128 179.082 82.7678 179.26 82.9794 179.483C83.191 179.705 83.3548 179.969 83.4608 180.257C83.5668 180.545 83.6128 180.852 83.596 181.158V186.019H79.074V181.158Z" fill="#263238"/>
<path d="M83.5891 177.436L85.9623 173.056H96.5907L94.2243 177.436H83.5891Z" fill="#2489B0"/>
<path opacity="0.2" d="M83.5891 177.436L85.9623 173.056H96.5907L94.2243 177.436H83.5891Z" fill="#333333"/>
<path d="M87.2747 173.056L89.6479 177.436H73.0151L75.3883 173.056H87.2747Z" fill="#2489B0"/>
<path d="M76.8704 197.079H66.1128V209.521H76.8704V197.079Z" fill="#2489B0"/>
<path opacity="0.3" d="M76.8704 197.079H66.1128V209.521H76.8704V197.079Z" fill="white"/>
<path d="M75.5174 198.422H67.4526V208.179H75.5174V198.422Z" fill="#263238"/>
<path d="M130.38 238.182H230.428C230.859 238.188 231.286 238.103 231.681 237.933C232.076 237.762 232.43 237.51 232.72 237.192C233.01 236.875 233.229 236.5 233.363 236.092C233.496 235.684 233.542 235.252 233.495 234.825L220.936 91.759C220.844 90.8509 220.422 90.0078 219.749 89.3892C219.076 88.7707 218.199 88.4197 217.284 88.4027H117.215C116.785 88.3963 116.358 88.4813 115.963 88.6518C115.568 88.8224 115.214 89.0746 114.924 89.3919C114.634 89.7093 114.415 90.0844 114.281 90.4924C114.147 90.9005 114.102 91.3322 114.148 91.759L126.708 234.825C126.8 235.737 127.225 236.583 127.902 237.202C128.579 237.821 129.461 238.17 130.38 238.182Z" fill="#8A959A"/>
<path d="M131.801 238.182H231.87C232.301 238.189 232.728 238.105 233.124 237.935C233.52 237.765 233.874 237.512 234.164 237.195C234.455 236.877 234.674 236.502 234.807 236.093C234.94 235.685 234.984 235.252 234.937 234.825L222.384 91.759C222.291 90.8503 221.868 90.0071 221.194 89.3887C220.52 88.7703 219.642 88.4195 218.726 88.4027H118.664C118.233 88.3952 117.806 88.4794 117.41 88.6496C117.014 88.8198 116.66 89.072 116.37 89.3896C116.079 89.7072 115.86 90.0827 115.727 90.4913C115.594 90.8998 115.55 91.332 115.597 91.759L128.15 234.825C128.241 235.733 128.663 236.577 129.336 237.195C130.009 237.814 130.886 238.165 131.801 238.182Z" fill="#8A959A"/>
<path opacity="0.5" d="M131.801 238.182H231.87C232.301 238.189 232.728 238.105 233.124 237.935C233.52 237.765 233.874 237.512 234.164 237.195C234.455 236.877 234.674 236.502 234.807 236.093C234.94 235.685 234.984 235.252 234.937 234.825L222.384 91.759C222.291 90.8503 221.868 90.0071 221.194 89.3887C220.52 88.7703 219.642 88.4195 218.726 88.4027H118.664C118.233 88.3952 117.806 88.4794 117.41 88.6496C117.014 88.8198 116.66 89.072 116.37 89.3896C116.079 89.7072 115.86 90.0827 115.727 90.4913C115.594 90.8998 115.55 91.332 115.597 91.759L128.15 234.825C128.241 235.733 128.663 236.577 129.336 237.195C130.009 237.814 130.886 238.165 131.801 238.182Z" fill="white"/>
<path opacity="0.2" d="M213.075 96.668L225.077 232.988H134.882L122.88 96.668H213.075Z" fill="#333333"/>
<path d="M213.626 96.6748L217.087 140.632C217.993 152.028 219.353 163.374 221.167 174.67L230.007 229.903H139.791L130.951 174.534C129.138 163.256 127.789 151.924 126.905 140.537L123.451 96.6748H213.626Z" fill="white"/>
<path d="M153.765 114.147H187.582C187.84 114.153 188.097 114.103 188.334 113.999C188.57 113.895 188.781 113.741 188.951 113.547C189.121 113.353 189.246 113.124 189.317 112.876C189.389 112.628 189.404 112.368 189.363 112.113L189.098 109.923C189.023 109.37 188.752 108.861 188.334 108.489C187.917 108.116 187.38 107.904 186.82 107.89H152.997C152.739 107.883 152.482 107.934 152.246 108.037C152.01 108.141 151.799 108.296 151.63 108.49C151.46 108.684 151.336 108.914 151.265 109.161C151.195 109.409 151.18 109.669 151.222 109.923L151.487 112.113C151.563 112.667 151.834 113.175 152.251 113.548C152.669 113.921 153.205 114.133 153.765 114.147Z" fill="#2489B0"/>
<path d="M139.485 159.467H212.089C212.347 159.474 212.604 159.423 212.84 159.32C213.076 159.216 213.287 159.061 213.456 158.867C213.626 158.673 213.75 158.443 213.821 158.196C213.891 157.948 213.906 157.688 213.864 157.434L213.599 155.244C213.523 154.69 213.252 154.182 212.835 153.809C212.417 153.436 211.881 153.224 211.321 153.21H138.717C138.459 153.204 138.202 153.254 137.965 153.358C137.729 153.462 137.518 153.616 137.348 153.81C137.178 154.004 137.053 154.233 136.981 154.481C136.91 154.729 136.894 154.989 136.935 155.244L137.207 157.434C137.283 157.987 137.554 158.496 137.971 158.868C138.389 159.241 138.925 159.453 139.485 159.467Z" fill="#2489B0"/>
<path opacity="0.5" d="M139.485 159.467H212.089C212.347 159.474 212.604 159.423 212.84 159.32C213.076 159.216 213.287 159.061 213.456 158.867C213.626 158.673 213.75 158.443 213.821 158.196C213.891 157.948 213.906 157.688 213.864 157.434L213.599 155.244C213.523 154.69 213.252 154.182 212.835 153.809C212.417 153.436 211.881 153.224 211.321 153.21H138.717C138.459 153.204 138.202 153.254 137.965 153.358C137.729 153.462 137.518 153.616 137.348 153.81C137.178 154.004 137.053 154.233 136.981 154.481C136.91 154.729 136.894 154.989 136.935 155.244L137.207 157.434C137.283 157.987 137.554 158.496 137.971 158.868C138.389 159.241 138.925 159.453 139.485 159.467Z" fill="white"/>
<path d="M184.229 123.478H150.413C149.733 123.478 149.624 122.4 150.318 122.4H184.134C184.814 122.4 184.93 123.478 184.229 123.478Z" fill="#8A959A"/>
<path d="M136.004 126.475H184.637C185.317 126.475 185.433 127.559 184.732 127.559H136.092C135.412 127.559 135.303 126.475 136.004 126.475Z" fill="#8A959A"/>
<path d="M191.689 127.735H208.192C208.451 127.742 208.708 127.691 208.944 127.587C209.181 127.483 209.392 127.329 209.562 127.135C209.732 126.941 209.857 126.712 209.928 126.464C209.999 126.216 210.015 125.956 209.974 125.701L209.702 123.512C209.628 122.958 209.357 122.448 208.94 122.075C208.522 121.702 207.985 121.49 207.424 121.478H190.9C190.641 121.47 190.384 121.52 190.147 121.623C189.91 121.727 189.698 121.881 189.528 122.075C189.358 122.27 189.233 122.499 189.162 122.748C189.091 122.996 189.076 123.257 189.118 123.512L189.39 125.701C189.467 126.258 189.74 126.769 190.162 127.143C190.584 127.516 191.125 127.726 191.689 127.735Z" fill="#8A959A"/>
<path opacity="0.7" d="M191.689 127.735H208.192C208.451 127.742 208.708 127.691 208.944 127.587C209.181 127.483 209.392 127.329 209.562 127.135C209.732 126.941 209.857 126.712 209.928 126.464C209.999 126.216 210.015 125.956 209.974 125.701L209.702 123.512C209.628 122.958 209.357 122.448 208.94 122.075C208.522 121.702 207.985 121.49 207.424 121.478H190.9C190.641 121.47 190.384 121.52 190.147 121.623C189.91 121.727 189.698 121.881 189.528 122.075C189.358 122.27 189.233 122.499 189.162 122.748C189.091 122.996 189.076 123.257 189.118 123.512L189.39 125.701C189.467 126.258 189.74 126.769 190.162 127.143C190.584 127.516 191.125 127.726 191.689 127.735Z" fill="white"/>
<path d="M200.991 140.286H209.729C209.988 140.292 210.244 140.242 210.481 140.138C210.718 140.034 210.928 139.88 211.098 139.685C211.268 139.491 211.394 139.262 211.465 139.015C211.536 138.767 211.552 138.506 211.511 138.252L211.368 137.106C211.294 136.553 211.024 136.045 210.608 135.672C210.192 135.299 209.656 135.087 209.097 135.072H200.352C200.093 135.065 199.836 135.115 199.599 135.218C199.362 135.321 199.15 135.476 198.98 135.67C198.81 135.865 198.685 136.094 198.614 136.342C198.543 136.591 198.528 136.852 198.57 137.106L198.713 138.252C198.789 138.805 199.06 139.314 199.477 139.687C199.894 140.059 200.431 140.272 200.991 140.286Z" fill="#8A959A"/>
<path d="M174.267 140.286H194.552C194.81 140.292 195.067 140.241 195.303 140.138C195.54 140.034 195.751 139.88 195.921 139.685C196.091 139.491 196.216 139.262 196.287 139.014C196.359 138.767 196.374 138.506 196.333 138.252L196.191 137.106C196.116 136.553 195.847 136.045 195.431 135.672C195.015 135.299 194.479 135.087 193.919 135.072H173.628C173.37 135.065 173.113 135.114 172.876 135.218C172.639 135.321 172.428 135.476 172.258 135.67C172.088 135.865 171.964 136.095 171.894 136.343C171.824 136.591 171.81 136.852 171.853 137.106L171.989 138.252C172.066 138.805 172.338 139.313 172.755 139.685C173.172 140.057 173.708 140.27 174.267 140.286Z" fill="#8A959A"/>
<path d="M152.595 140.286H167.834C168.092 140.291 168.348 140.24 168.584 140.135C168.821 140.031 169.031 139.877 169.201 139.683C169.37 139.489 169.496 139.261 169.567 139.013C169.639 138.766 169.656 138.506 169.616 138.252L169.473 137.106C169.399 136.552 169.128 136.043 168.711 135.67C168.293 135.297 167.756 135.085 167.195 135.072H151.963C151.704 135.065 151.447 135.115 151.21 135.218C150.973 135.321 150.761 135.476 150.591 135.67C150.421 135.865 150.296 136.094 150.225 136.342C150.154 136.591 150.139 136.852 150.181 137.106L150.317 138.252C150.396 138.804 150.667 139.311 151.084 139.683C151.501 140.056 152.036 140.269 152.595 140.286Z" fill="#8A959A"/>
<path d="M138.139 140.286H146.163C146.421 140.292 146.678 140.242 146.914 140.138C147.151 140.034 147.362 139.88 147.532 139.685C147.702 139.491 147.827 139.262 147.898 139.015C147.97 138.767 147.985 138.506 147.944 138.252L147.801 137.106C147.727 136.552 147.457 136.043 147.039 135.67C146.621 135.297 146.084 135.085 145.523 135.072H137.506C137.248 135.065 136.99 135.115 136.753 135.218C136.516 135.321 136.304 135.476 136.134 135.67C135.964 135.865 135.839 136.094 135.768 136.342C135.697 136.591 135.682 136.852 135.725 137.106L135.868 138.252C135.943 138.804 136.213 139.312 136.629 139.684C137.045 140.057 137.58 140.27 138.139 140.286Z" fill="#8A959A"/>
<path d="M195.429 147.873H210.661C210.919 147.88 211.177 147.831 211.414 147.727C211.651 147.624 211.863 147.47 212.033 147.275C212.203 147.081 212.328 146.851 212.399 146.603C212.47 146.355 212.485 146.094 212.442 145.839L212.299 144.693C212.224 144.141 211.954 143.633 211.538 143.261C211.122 142.888 210.587 142.675 210.028 142.659H194.789C194.531 142.653 194.274 142.704 194.038 142.808C193.801 142.911 193.59 143.066 193.42 143.26C193.25 143.454 193.125 143.683 193.054 143.931C192.983 144.179 192.967 144.439 193.008 144.693L193.151 145.839C193.225 146.393 193.495 146.902 193.913 147.275C194.331 147.648 194.868 147.86 195.429 147.873Z" fill="#8A959A"/>
<path d="M170.874 147.873H188.989C189.248 147.88 189.505 147.831 189.743 147.727C189.98 147.624 190.191 147.47 190.362 147.275C190.532 147.081 190.657 146.851 190.728 146.603C190.799 146.355 190.813 146.094 190.771 145.839L190.635 144.693C190.557 144.141 190.285 143.634 189.868 143.262C189.452 142.89 188.916 142.676 188.357 142.659H170.235C169.977 142.653 169.72 142.704 169.483 142.808C169.247 142.911 169.036 143.066 168.866 143.26C168.696 143.454 168.571 143.683 168.499 143.931C168.428 144.179 168.412 144.439 168.453 144.693L168.596 145.839C168.671 146.393 168.941 146.902 169.359 147.275C169.776 147.648 170.314 147.86 170.874 147.873Z" fill="#8A959A"/>
<path d="M155.696 147.873H164.434C164.693 147.88 164.95 147.831 165.188 147.727C165.425 147.624 165.636 147.47 165.806 147.275C165.977 147.081 166.102 146.851 166.173 146.603C166.243 146.355 166.258 146.094 166.216 145.839L166.073 144.693C165.997 144.14 165.727 143.631 165.309 143.259C164.892 142.886 164.355 142.674 163.795 142.659H155.057C154.799 142.653 154.542 142.704 154.305 142.808C154.069 142.911 153.858 143.066 153.688 143.26C153.518 143.454 153.393 143.683 153.321 143.931C153.25 144.179 153.234 144.439 153.275 144.693L153.418 145.839C153.493 146.393 153.763 146.902 154.181 147.275C154.598 147.648 155.136 147.86 155.696 147.873Z" fill="#8A959A"/>
<path d="M139.07 147.873H149.27C149.529 147.88 149.786 147.831 150.023 147.727C150.261 147.624 150.472 147.47 150.642 147.275C150.812 147.081 150.938 146.851 151.008 146.603C151.079 146.355 151.094 146.094 151.052 145.839L150.909 144.693C150.833 144.14 150.562 143.631 150.145 143.259C149.728 142.886 149.191 142.674 148.631 142.659H138.431C138.172 142.653 137.916 142.704 137.679 142.808C137.442 142.911 137.232 143.066 137.062 143.26C136.892 143.454 136.766 143.683 136.695 143.931C136.624 144.179 136.608 144.439 136.649 144.693L136.792 145.839C136.866 146.393 137.137 146.902 137.554 147.275C137.972 147.648 138.51 147.86 139.07 147.873Z" fill="#8A959A"/>
<g opacity="0.7">
<path d="M200.991 140.286H209.729C209.988 140.292 210.244 140.242 210.481 140.138C210.717 140.034 210.928 139.88 211.098 139.685C211.268 139.491 211.393 139.262 211.465 139.015C211.536 138.767 211.552 138.506 211.511 138.252L211.368 137.106C211.294 136.553 211.024 136.045 210.608 135.672C210.192 135.299 209.656 135.087 209.097 135.072H200.352C200.093 135.065 199.836 135.115 199.599 135.218C199.361 135.321 199.15 135.476 198.98 135.67C198.809 135.865 198.684 136.094 198.614 136.342C198.543 136.591 198.528 136.851 198.57 137.106L198.713 138.252C198.789 138.805 199.06 139.314 199.477 139.687C199.894 140.059 200.431 140.272 200.991 140.286Z" fill="white"/>
<path d="M174.267 140.286H194.552C194.81 140.292 195.067 140.242 195.303 140.138C195.54 140.034 195.751 139.88 195.921 139.685C196.091 139.491 196.216 139.262 196.287 139.015C196.359 138.767 196.374 138.506 196.333 138.252L196.191 137.106C196.116 136.553 195.847 136.045 195.431 135.672C195.015 135.299 194.479 135.087 193.919 135.072H173.628C173.37 135.065 173.113 135.114 172.876 135.218C172.639 135.321 172.428 135.476 172.258 135.67C172.088 135.865 171.964 136.095 171.894 136.343C171.824 136.591 171.81 136.852 171.853 137.106L171.989 138.252C172.066 138.805 172.338 139.313 172.755 139.685C173.172 140.057 173.708 140.27 174.267 140.286Z" fill="white"/>
<path d="M152.596 140.286H167.834C168.092 140.291 168.349 140.24 168.585 140.135C168.821 140.031 169.031 139.877 169.201 139.683C169.371 139.489 169.496 139.261 169.567 139.013C169.639 138.766 169.656 138.506 169.616 138.252L169.473 137.106C169.399 136.552 169.128 136.043 168.711 135.67C168.293 135.297 167.756 135.085 167.195 135.072H151.963C151.704 135.065 151.447 135.115 151.21 135.218C150.973 135.321 150.761 135.476 150.591 135.67C150.421 135.865 150.296 136.094 150.225 136.342C150.154 136.591 150.139 136.851 150.182 137.106L150.318 138.252C150.396 138.804 150.667 139.311 151.084 139.683C151.501 140.056 152.036 140.269 152.596 140.286Z" fill="white"/>
<path d="M138.139 140.286H146.163C146.421 140.292 146.678 140.242 146.914 140.138C147.151 140.034 147.362 139.88 147.532 139.685C147.702 139.491 147.827 139.262 147.898 139.015C147.97 138.767 147.985 138.506 147.944 138.252L147.801 137.106C147.727 136.552 147.457 136.043 147.039 135.67C146.621 135.297 146.084 135.085 145.523 135.072H137.506C137.248 135.065 136.99 135.115 136.753 135.218C136.516 135.321 136.304 135.476 136.134 135.67C135.964 135.865 135.839 136.094 135.768 136.342C135.697 136.591 135.682 136.851 135.725 137.106L135.868 138.252C135.943 138.804 136.213 139.312 136.629 139.684C137.045 140.057 137.58 140.27 138.139 140.286Z" fill="white"/>
<path d="M195.429 147.873H210.661C210.919 147.881 211.177 147.831 211.414 147.727C211.651 147.624 211.863 147.47 212.033 147.275C212.203 147.081 212.328 146.851 212.399 146.603C212.47 146.355 212.485 146.094 212.442 145.839L212.299 144.693C212.224 144.141 211.954 143.633 211.538 143.261C211.122 142.888 210.587 142.675 210.028 142.66H194.789C194.531 142.653 194.274 142.704 194.038 142.808C193.801 142.911 193.59 143.066 193.42 143.26C193.25 143.454 193.125 143.683 193.054 143.931C192.983 144.179 192.967 144.439 193.008 144.693L193.151 145.839C193.225 146.393 193.495 146.903 193.913 147.275C194.331 147.648 194.868 147.86 195.429 147.873Z" fill="white"/>
<path d="M170.874 147.873H188.989C189.248 147.881 189.505 147.831 189.743 147.727C189.98 147.624 190.191 147.47 190.362 147.275C190.532 147.081 190.657 146.851 190.728 146.603C190.799 146.355 190.813 146.094 190.771 145.839L190.635 144.693C190.557 144.141 190.285 143.634 189.868 143.262C189.452 142.89 188.916 142.676 188.357 142.66H170.235C169.977 142.653 169.72 142.704 169.483 142.808C169.247 142.911 169.036 143.066 168.866 143.26C168.696 143.454 168.571 143.683 168.499 143.931C168.428 144.179 168.412 144.439 168.453 144.693L168.596 145.839C168.671 146.393 168.941 146.903 169.359 147.275C169.776 147.648 170.314 147.86 170.874 147.873Z" fill="white"/>
<path d="M155.696 147.873H164.434C164.693 147.881 164.95 147.831 165.188 147.727C165.425 147.624 165.636 147.47 165.806 147.275C165.977 147.081 166.102 146.851 166.173 146.603C166.243 146.355 166.258 146.094 166.216 145.839L166.073 144.693C165.997 144.14 165.727 143.631 165.309 143.259C164.892 142.886 164.355 142.674 163.795 142.66H155.057C154.799 142.653 154.542 142.704 154.305 142.808C154.069 142.911 153.858 143.066 153.688 143.26C153.518 143.454 153.393 143.683 153.321 143.931C153.25 144.179 153.234 144.439 153.275 144.693L153.418 145.839C153.493 146.393 153.763 146.903 154.181 147.275C154.598 147.648 155.136 147.86 155.696 147.873Z" fill="white"/>
<path d="M139.07 147.873H149.27C149.529 147.881 149.786 147.831 150.023 147.727C150.261 147.624 150.472 147.47 150.642 147.275C150.812 147.081 150.938 146.851 151.008 146.603C151.079 146.355 151.094 146.094 151.052 145.839L150.909 144.693C150.833 144.14 150.562 143.631 150.145 143.259C149.728 142.886 149.191 142.674 148.631 142.66H138.431C138.172 142.653 137.916 142.704 137.679 142.808C137.442 142.911 137.232 143.066 137.062 143.26C136.892 143.454 136.766 143.683 136.695 143.931C136.624 144.179 136.608 144.439 136.649 144.693L136.792 145.839C136.866 146.393 137.137 146.903 137.554 147.275C137.972 147.648 138.51 147.86 139.07 147.873Z" fill="white"/>
</g>
<path d="M168.018 224.384H144.524C143.844 224.384 143.735 223.306 144.429 223.306H167.923C168.603 223.306 168.719 224.384 168.018 224.384Z" fill="#8A959A"/>
<path d="M222.065 224.384H198.571C197.891 224.384 197.782 223.306 198.475 223.306H221.969C222.649 223.306 222.765 224.384 222.065 224.384Z" fill="#8A959A"/>
<path d="M217.991 191.207H188.003C187.323 191.207 187.208 190.129 187.908 190.129H217.896C218.576 190.129 218.685 191.207 217.991 191.207Z" fill="#8A959A"/>
<path d="M188.418 194.251H218.406C219.086 194.251 219.195 195.329 218.501 195.329H188.513C187.833 195.329 187.718 194.251 188.418 194.251Z" fill="#8A959A"/>
<path d="M188.928 198.401H218.916C219.596 198.401 219.705 199.479 219.011 199.479H189.023C188.343 199.479 188.227 198.401 188.928 198.401Z" fill="#8A959A"/>
<path d="M189.438 202.551H219.46C220.14 202.551 220.248 203.629 219.548 203.629H189.54C188.86 203.629 188.744 202.551 189.444 202.551H189.438Z" fill="#8A959A"/>
<path d="M189.948 206.7H219.936C220.616 206.7 220.725 207.785 220.025 207.785H190.043C189.363 207.785 189.248 206.7 189.948 206.7Z" fill="#8A959A"/>
<path d="M173.152 191.207H149.658C148.978 191.207 148.869 190.129 149.563 190.129H173.057C173.737 190.129 173.852 191.207 173.152 191.207Z" fill="#8A959A"/>
<path d="M150.1 194.251H173.594C174.274 194.251 174.39 195.329 173.689 195.329H150.168C149.488 195.329 149.373 194.251 150.073 194.251H150.1Z" fill="#8A959A"/>
<path d="M150.583 198.401H174.077C174.757 198.401 174.866 199.479 174.172 199.479H150.678C149.998 199.479 149.883 198.401 150.583 198.401Z" fill="#8A959A"/>
<path d="M151.093 202.551H174.58C175.26 202.551 175.369 203.629 174.675 203.629H151.188C150.508 203.629 150.393 202.551 151.093 202.551Z" fill="#8A959A"/>
<path d="M151.602 206.7H175.096C175.776 206.7 175.885 207.785 175.192 207.785H151.698C151.018 207.785 150.902 206.7 151.602 206.7Z" fill="#8A959A"/>
<path d="M138.451 169.808L139.07 174.846L139.689 179.884L140.308 184.915H217.508L216.828 179.342L216.209 174.304L215.59 169.273L214.972 164.235H137.764L138.451 169.808ZM152.228 167.022L152.5 169.273H138.9L138.349 164.77H151.949L152.228 167.022ZM153.384 172.059L153.112 169.808H176.783L177.062 172.059L177.334 174.304H153.663L153.384 172.059ZM177.3 169.808H200.97L201.249 172.059L201.521 174.304H177.878L177.599 172.059L177.3 169.808ZM202.14 179.342H178.496L178.218 177.09L177.946 174.846H201.616L201.895 177.09L202.14 179.342ZM177.925 179.342H154.282L154.003 177.09L153.724 174.846H177.402L177.674 177.09L177.925 179.342ZM176.416 167.022L176.688 169.273H153.044L152.765 167.022L152.493 164.77H176.164L176.416 167.022ZM200.63 167.022L200.902 169.273H177.259L176.98 167.022L176.708 164.77H200.379L200.63 167.022ZM215.019 169.273H201.419L201.14 167.022L200.868 164.77H214.468L215.019 169.273ZM215.638 174.304H202.038L201.759 172.059L201.487 169.808H215.087L215.638 174.304ZM216.257 179.342H202.657L202.378 177.09L202.106 174.846H215.706L216.257 179.342ZM203.024 182.128L202.752 179.884H216.352L216.903 184.379H203.303L203.024 182.128ZM178.809 182.128L178.53 179.884H202.208L202.48 182.128L202.759 184.379H179.115L178.809 182.128ZM154.594 182.128L154.316 179.884H177.993L178.265 182.128L178.544 184.379H154.9L154.594 182.128ZM140.206 179.884H153.806L154.078 182.128L154.356 184.379H140.756L140.206 179.884ZM139.587 174.846H153.187L153.459 177.09L153.738 179.342H140.138L139.587 174.846ZM138.968 169.808H152.568L152.84 172.059L153.119 174.304H139.519L138.968 169.808Z" fill="#2489B0"/>
<path opacity="0.5" d="M138.451 169.808L139.07 174.846L139.689 179.884L140.308 184.915H217.508L216.828 179.342L216.209 174.304L215.59 169.273L214.972 164.235H137.764L138.451 169.808ZM152.228 167.022L152.5 169.273H138.9L138.349 164.77H151.949L152.228 167.022ZM153.384 172.059L153.112 169.808H176.783L177.062 172.059L177.334 174.304H153.663L153.384 172.059ZM177.3 169.808H200.97L201.249 172.059L201.521 174.304H177.878L177.599 172.059L177.3 169.808ZM202.14 179.342H178.496L178.218 177.09L177.946 174.846H201.616L201.895 177.09L202.14 179.342ZM177.925 179.342H154.282L154.003 177.09L153.724 174.846H177.402L177.674 177.09L177.925 179.342ZM176.416 167.022L176.688 169.273H153.044L152.765 167.022L152.493 164.77H176.164L176.416 167.022ZM200.63 167.022L200.902 169.273H177.259L176.98 167.022L176.708 164.77H200.379L200.63 167.022ZM215.019 169.273H201.419L201.14 167.022L200.868 164.77H214.468L215.019 169.273ZM215.638 174.304H202.038L201.759 172.059L201.487 169.808H215.087L215.638 174.304ZM216.257 179.342H202.657L202.378 177.09L202.106 174.846H215.706L216.257 179.342ZM203.024 182.128L202.752 179.884H216.352L216.903 184.379H203.303L203.024 182.128ZM178.809 182.128L178.53 179.884H202.208L202.48 182.128L202.759 184.379H179.115L178.809 182.128ZM154.594 182.128L154.316 179.884H177.993L178.265 182.128L178.544 184.379H154.9L154.594 182.128ZM140.206 179.884H153.806L154.078 182.128L154.356 184.379H140.756L140.206 179.884ZM139.587 174.846H153.187L153.459 177.09L153.738 179.342H140.138L139.587 174.846ZM138.968 169.808H152.568L152.84 172.059L153.119 174.304H139.519L138.968 169.808Z" fill="white"/>
<path d="M143.041 194.597H145.279C145.375 194.597 145.47 194.578 145.557 194.539C145.645 194.5 145.724 194.444 145.788 194.373C145.852 194.302 145.901 194.218 145.93 194.127C145.959 194.036 145.969 193.939 145.959 193.844L145.687 191.614C145.658 191.409 145.557 191.221 145.403 191.084C145.249 190.946 145.05 190.867 144.843 190.861H142.599C142.503 190.861 142.408 190.88 142.321 190.919C142.233 190.958 142.154 191.014 142.09 191.085C142.026 191.156 141.977 191.24 141.948 191.331C141.919 191.422 141.909 191.519 141.919 191.614L142.191 193.844C142.222 194.049 142.324 194.237 142.479 194.375C142.634 194.512 142.834 194.591 143.041 194.597Z" fill="#2489B0"/>
<path d="M143.538 198.665H145.782C145.878 198.666 145.973 198.646 146.061 198.608C146.149 198.569 146.227 198.512 146.291 198.441C146.356 198.37 146.404 198.286 146.433 198.195C146.463 198.104 146.473 198.008 146.462 197.913L146.19 195.682C146.16 195.477 146.058 195.289 145.902 195.152C145.747 195.014 145.548 194.935 145.34 194.93H143.103C143.007 194.929 142.912 194.949 142.824 194.987C142.736 195.026 142.658 195.083 142.593 195.154C142.529 195.225 142.481 195.309 142.451 195.4C142.422 195.491 142.412 195.587 142.423 195.682L142.695 197.913C142.724 198.117 142.824 198.305 142.978 198.443C143.133 198.58 143.331 198.659 143.538 198.665Z" fill="#2489B0"/>
<path d="M144.041 202.733H146.278C146.374 202.734 146.468 202.714 146.555 202.676C146.643 202.638 146.721 202.582 146.785 202.511C146.849 202.441 146.898 202.358 146.928 202.268C146.957 202.178 146.968 202.082 146.958 201.987L146.68 199.75C146.651 199.546 146.55 199.359 146.395 199.223C146.241 199.086 146.043 199.009 145.836 199.004H143.599C143.504 199.004 143.41 199.023 143.322 199.062C143.235 199.1 143.157 199.156 143.093 199.226C143.028 199.297 142.98 199.38 142.95 199.47C142.92 199.56 142.91 199.656 142.919 199.75L143.198 201.987C143.227 202.191 143.328 202.378 143.482 202.515C143.637 202.651 143.835 202.729 144.041 202.733Z" fill="#2489B0"/>
<path d="M144.544 206.802H146.781C146.877 206.802 146.972 206.783 147.06 206.744C147.148 206.705 147.226 206.649 147.291 206.578C147.355 206.506 147.403 206.423 147.433 206.332C147.462 206.241 147.472 206.144 147.461 206.049L147.189 203.819C147.16 203.613 147.059 203.424 146.903 203.287C146.747 203.149 146.548 203.071 146.339 203.066H144.102C144.006 203.066 143.911 203.085 143.823 203.124C143.736 203.162 143.657 203.219 143.593 203.29C143.529 203.361 143.48 203.445 143.451 203.536C143.421 203.627 143.412 203.724 143.422 203.819L143.694 206.049C143.724 206.254 143.826 206.442 143.982 206.58C144.137 206.717 144.336 206.796 144.544 206.802Z" fill="#2489B0"/>
<path opacity="0.5" d="M143.538 198.665H145.782C145.878 198.666 145.973 198.646 146.061 198.608C146.149 198.569 146.227 198.512 146.291 198.441C146.356 198.37 146.404 198.286 146.433 198.195C146.463 198.104 146.473 198.008 146.462 197.913L146.19 195.682C146.16 195.477 146.058 195.289 145.902 195.152C145.747 195.014 145.548 194.935 145.34 194.93H143.103C143.007 194.929 142.912 194.949 142.824 194.987C142.736 195.026 142.658 195.083 142.593 195.154C142.529 195.225 142.481 195.309 142.451 195.4C142.422 195.491 142.412 195.587 142.423 195.682L142.695 197.913C142.724 198.117 142.824 198.305 142.978 198.443C143.133 198.58 143.331 198.659 143.538 198.665Z" fill="white"/>
<path opacity="0.5" d="M144.544 206.802H146.781C146.877 206.802 146.972 206.783 147.06 206.744C147.148 206.705 147.226 206.649 147.291 206.578C147.355 206.506 147.403 206.423 147.433 206.332C147.462 206.241 147.472 206.144 147.461 206.049L147.189 203.819C147.16 203.613 147.059 203.424 146.903 203.287C146.747 203.149 146.548 203.071 146.339 203.066H144.102C144.006 203.066 143.911 203.085 143.823 203.124C143.736 203.162 143.657 203.219 143.593 203.29C143.529 203.361 143.48 203.445 143.451 203.536C143.421 203.627 143.412 203.724 143.422 203.819L143.694 206.049C143.724 206.254 143.826 206.442 143.982 206.58C144.137 206.717 144.336 206.796 144.544 206.802Z" fill="white"/>
<path d="M154.37 85.9482H163.21L161.85 82.6326C161.408 81.5884 162.34 80.5985 163.727 80.5985H172.336C173.696 80.5985 174.831 81.6088 174.573 82.6326L173.757 85.9482H182.597C183.912 85.9697 185.174 86.4717 186.143 87.3591C187.112 88.2464 187.72 89.4573 187.853 90.7623L188.533 98.4988C188.572 98.8526 188.535 99.2105 188.424 99.5488C188.313 99.8872 188.131 100.198 187.891 100.461C187.65 100.724 187.356 100.933 187.029 101.074C186.701 101.215 186.347 101.285 185.99 101.279H153.67C152.912 101.264 152.185 100.974 151.628 100.461C151.07 99.9491 150.72 99.2509 150.644 98.4988L149.964 90.7623C149.896 90.1493 149.96 89.5289 150.152 88.9425C150.343 88.3561 150.658 87.8172 151.075 87.3616C151.492 86.9061 152.001 86.5444 152.57 86.3007C153.138 86.057 153.752 85.9368 154.37 85.9482Z" fill="#2489B0"/>
<path opacity="0.2" d="M173.757 85.9481H163.197L162.374 83.9956H174.24L173.757 85.9481Z" fill="#333333"/>
<path d="M180.87 96.6407C180.911 97.0461 181.1 97.4223 181.401 97.6983C181.701 97.9744 182.093 98.1311 182.502 98.139C182.693 98.14 182.882 98.1008 183.057 98.024C183.232 97.9471 183.389 97.8343 183.517 97.6929C183.646 97.5515 183.743 97.3847 183.802 97.2034C183.861 97.0221 183.882 96.8303 183.862 96.6407C183.82 96.2352 183.631 95.859 183.331 95.583C183.03 95.3069 182.638 95.1502 182.23 95.1424C182.038 95.1413 181.849 95.1805 181.674 95.2573C181.499 95.3342 181.342 95.447 181.214 95.5884C181.085 95.7298 180.988 95.8966 180.929 96.078C180.87 96.2593 180.849 96.451 180.87 96.6407Z" fill="#8A959A"/>
<path d="M154.955 96.6407C154.998 97.0467 155.188 97.423 155.49 97.6989C155.792 97.9749 156.184 98.1314 156.594 98.139C156.785 98.1401 156.974 98.1009 157.15 98.024C157.325 97.9471 157.481 97.8343 157.61 97.6929C157.738 97.5515 157.835 97.3847 157.894 97.2034C157.954 97.0221 157.974 96.8304 157.954 96.6407C157.914 96.2347 157.725 95.8577 157.424 95.5813C157.123 95.305 156.731 95.1488 156.322 95.1424C156.13 95.1404 155.94 95.1789 155.764 95.2553C155.588 95.3318 155.43 95.4444 155.301 95.5859C155.172 95.7274 155.075 95.8946 155.015 96.0764C154.955 96.2582 154.935 96.4505 154.955 96.6407Z" fill="#8A959A"/>
<path d="M212.143 218.905L172.159 226.702C171.715 226.805 171.254 226.812 170.807 226.724C170.36 226.636 169.937 226.454 169.566 226.19C169.194 225.927 168.883 225.588 168.653 225.196C168.422 224.804 168.278 224.368 168.229 223.916L167.549 217.854C167.47 216.895 167.749 215.941 168.331 215.173C168.912 214.405 169.757 213.878 170.704 213.691L210.688 205.893C211.133 205.791 211.594 205.784 212.041 205.872C212.489 205.96 212.912 206.142 213.284 206.405C213.656 206.669 213.968 207.007 214.199 207.4C214.43 207.792 214.576 208.228 214.625 208.68L215.305 214.742C215.383 215.702 215.104 216.657 214.521 217.425C213.938 218.193 213.091 218.72 212.143 218.905ZM170.82 214.701C170.149 214.834 169.55 215.207 169.138 215.751C168.725 216.295 168.528 216.971 168.582 217.651L169.262 223.712C169.297 224.033 169.4 224.342 169.564 224.62C169.727 224.898 169.948 225.138 170.212 225.324C170.475 225.511 170.775 225.639 171.092 225.701C171.409 225.764 171.736 225.758 172.05 225.685L212.028 217.895C212.7 217.762 213.299 217.387 213.712 216.842C214.124 216.297 214.321 215.619 214.265 214.938L213.585 208.877C213.55 208.557 213.448 208.249 213.284 207.972C213.121 207.695 212.901 207.456 212.638 207.27C212.375 207.084 212.076 206.956 211.759 206.894C211.443 206.832 211.118 206.838 210.804 206.911L170.82 214.701Z" fill="#2489B0"/>
<path d="M176.484 220.451L174.444 220.844L174.158 221.834L173.132 222.037L174.594 217.4L175.586 217.203L178.007 221.081L176.946 221.291L176.484 220.451ZM176.083 219.773L175.212 218.274L174.702 220.044L176.083 219.773Z" fill="#2489B0"/>
<path d="M180.904 216.362C181.185 216.417 181.439 216.564 181.628 216.778C181.816 216.993 181.928 217.264 181.945 217.549C181.981 217.843 181.932 218.142 181.802 218.41C181.675 218.688 181.469 218.924 181.21 219.088C180.91 219.277 180.575 219.406 180.224 219.467L179.354 219.637L179.483 220.817L178.477 221.006L178.001 216.749L179.884 216.383C180.219 216.305 180.567 216.298 180.904 216.362ZM180.748 218.335C180.82 218.256 180.873 218.162 180.904 218.06C180.934 217.958 180.941 217.851 180.925 217.745C180.921 217.643 180.892 217.544 180.84 217.456C180.788 217.368 180.714 217.295 180.626 217.244C180.413 217.146 180.173 217.124 179.946 217.183L179.123 217.345L179.293 218.823L180.109 218.661C180.353 218.623 180.577 218.506 180.748 218.328V218.335Z" fill="#2489B0"/>
<path d="M185.385 215.488C185.66 215.548 185.91 215.693 186.099 215.901C186.29 216.116 186.405 216.388 186.425 216.674C186.463 216.969 186.413 217.268 186.283 217.535C186.155 217.813 185.95 218.049 185.691 218.213C185.394 218.404 185.061 218.533 184.712 218.593L183.835 218.762L183.964 219.942L182.957 220.139L182.481 215.874L184.365 215.508C184.7 215.43 185.047 215.423 185.385 215.488ZM185.229 217.461C185.301 217.382 185.354 217.288 185.384 217.186C185.415 217.084 185.422 216.976 185.405 216.871C185.402 216.769 185.373 216.669 185.321 216.581C185.268 216.494 185.195 216.421 185.106 216.369C184.893 216.275 184.653 216.253 184.426 216.308L183.603 216.471L183.773 217.949L184.589 217.786C184.833 217.752 185.058 217.637 185.229 217.461Z" fill="#2489B0"/>
<path d="M190.22 218.708L189.247 217.684H189.193L188.323 217.854L188.452 219.04L187.445 219.237L186.969 214.979L188.853 214.613C189.191 214.535 189.542 214.535 189.88 214.613C190.154 214.672 190.404 214.814 190.594 215.02C190.779 215.237 190.891 215.508 190.913 215.793C190.951 216.089 190.901 216.391 190.771 216.66C190.638 216.937 190.431 217.172 190.172 217.338L191.294 218.518L190.22 218.708ZM189.594 215.494C189.38 215.399 189.141 215.38 188.914 215.44L188.091 215.596L188.261 217.081L189.077 216.925C189.335 216.894 189.575 216.777 189.757 216.593C189.832 216.515 189.886 216.421 189.917 216.319C189.948 216.216 189.954 216.108 189.934 216.003C189.927 215.895 189.892 215.791 189.831 215.701C189.77 215.612 189.686 215.54 189.587 215.494H189.594Z" fill="#2489B0"/>
<path d="M192.865 217.976C192.494 217.862 192.167 217.639 191.924 217.337C191.682 217.034 191.536 216.667 191.505 216.281C191.456 215.876 191.519 215.466 191.689 215.094C191.858 214.717 192.12 214.388 192.45 214.138C192.801 213.874 193.208 213.696 193.64 213.616C194.053 213.529 194.48 213.545 194.885 213.664C195.251 213.777 195.577 213.994 195.823 214.288C196.074 214.592 196.226 214.966 196.258 215.359C196.308 215.764 196.244 216.174 196.075 216.545C195.903 216.921 195.642 217.25 195.313 217.501C194.965 217.764 194.56 217.942 194.13 218.023C193.711 218.113 193.276 218.097 192.865 217.976ZM194.701 216.871C194.89 216.718 195.038 216.519 195.13 216.294C195.226 216.061 195.261 215.806 195.232 215.555C195.209 215.31 195.12 215.076 194.973 214.877C194.837 214.698 194.65 214.564 194.436 214.491C194.204 214.413 193.955 214.399 193.715 214.45C193.466 214.497 193.233 214.604 193.035 214.762C192.842 214.913 192.692 215.112 192.6 215.338C192.506 215.573 192.474 215.827 192.505 216.077C192.526 216.322 192.613 216.556 192.756 216.755C192.895 216.935 193.085 217.07 193.3 217.142C193.52 217.215 193.754 217.229 193.98 217.183C194.244 217.143 194.493 217.036 194.701 216.871Z" fill="#2489B0"/>
<path d="M200.801 212.294L199.4 216.918L198.407 217.115L196.054 213.216L197.142 213.006L198.802 215.793L199.801 212.491L200.801 212.294Z" fill="#2489B0"/>
<path d="M204.915 215.033L205.003 215.826L201.637 216.504L201.161 212.24L204.446 211.602L204.534 212.396L202.249 212.836L202.351 213.765L204.391 213.372L204.48 214.138L202.44 214.531L202.548 215.514L204.915 215.033Z" fill="#2489B0"/>
<path d="M205.33 211.413L207.302 211.026C207.722 210.925 208.16 210.925 208.58 211.026C208.943 211.121 209.268 211.324 209.512 211.609C209.754 211.912 209.901 212.28 209.933 212.667C209.987 213.069 209.925 213.478 209.756 213.846C209.59 214.212 209.327 214.527 208.995 214.755C208.633 215.014 208.217 215.188 207.778 215.263L205.806 215.65L205.33 211.413ZM207.635 214.484C208.025 214.426 208.38 214.228 208.634 213.928C208.75 213.782 208.834 213.614 208.883 213.435C208.932 213.255 208.945 213.068 208.92 212.884C208.91 212.708 208.86 212.537 208.774 212.383C208.688 212.229 208.568 212.097 208.424 211.996C208.262 211.901 208.084 211.838 207.898 211.813C207.712 211.787 207.524 211.799 207.342 211.846L206.424 212.023L206.717 214.667L207.635 214.484Z" fill="#2489B0"/>
</svg>
