<svg width="281" height="220" viewBox="0 0 281 220" fill="none" xmlns="http://www.w3.org/2000/svg">
<path d="M145.83 40.4331H188.674V52.6238H145.83C144.912 52.6238 144.032 52.2589 143.383 51.6095C142.734 50.9601 142.369 50.0794 142.369 49.161V43.8891C142.371 42.9719 142.736 42.0929 143.385 41.4449C144.034 40.797 144.914 40.4331 145.83 40.4331Z" fill="#2489B0"/>
<path d="M188.674 25.2252H148.462C146.852 25.2252 145.307 25.8653 144.168 27.0046C143.03 28.1439 142.39 29.6891 142.39 31.3003C142.39 32.9115 143.03 34.4567 144.168 35.596C145.307 36.7353 146.852 37.3754 148.462 37.3754H188.674V25.2252Z" fill="#2489B0"/>
<path d="M206.952 11.2052H192.331V52.0432H206.952V11.2052Z" fill="#2489B0"/>
<path d="M225.229 11.2052H210.608V52.0432H225.229V11.2052Z" fill="#2489B0"/>
<path d="M243.507 11.2052H228.886V52.0432H243.507V11.2052Z" fill="#2489B0"/>
<path opacity="0.4" d="M145.83 40.4331H188.674V52.6238H145.83C144.912 52.6238 144.032 52.2589 143.383 51.6095C142.734 50.9601 142.369 50.0794 142.369 49.161V43.8891C142.371 42.9719 142.736 42.0929 143.385 41.4449C144.034 40.797 144.914 40.4331 145.83 40.4331Z" fill="white"/>
<path opacity="0.4" d="M188.674 25.2252H148.462C146.852 25.2252 145.307 25.8653 144.168 27.0046C143.03 28.1439 142.39 29.6891 142.39 31.3003C142.39 32.9115 143.03 34.4567 144.168 35.596C145.307 36.7353 146.852 37.3754 148.462 37.3754H188.674V25.2252Z" fill="white"/>
<path opacity="0.4" d="M206.952 11.2052H192.331V52.0432H206.952V11.2052Z" fill="white"/>
<path opacity="0.4" d="M225.229 11.2052H210.608V52.0432H225.229V11.2052Z" fill="white"/>
<path opacity="0.4" d="M243.507 11.2052H228.886V52.0432H243.507V11.2052Z" fill="white"/>
<path d="M252.339 53.1368H137.518V59.9409H146.836V76.8161H152.382V59.9409H234.769V76.8161H240.315V59.9409H252.339V53.1368Z" fill="#2489B0"/>
<path opacity="0.1" d="M252.339 53.1368H137.518V59.9409H146.836V76.8161H152.382V59.9409H234.769V76.8161H240.315V59.9409H252.339V53.1368Z" fill="#333333"/>
<path d="M115.199 73.3871C113.892 73.8117 112.61 74.3097 111.36 74.8788C112.034 74.3726 112.709 73.8596 113.384 73.3263C116.434 70.8826 119.334 68.2566 122.067 65.4625C118.851 68.585 115.415 71.4724 111.785 74.1026C112.282 73.2324 112.722 72.3305 113.101 71.4025C113.775 69.7015 113.903 68.0275 112.277 67.0757C110.253 65.9552 107.858 67.636 108.499 70.5183C108.882 72.1177 109.635 73.6046 110.699 74.8586C108.34 76.4953 105.877 77.9745 103.324 79.2866L103.081 79.4082C103.621 78.4742 104.097 77.5044 104.505 76.5056C105.18 74.8046 105.314 73.0968 103.688 72.1788C101.664 71.0515 99.2624 72.7323 99.9101 75.6214C100.287 77.2006 101.026 78.6704 102.069 79.9144C98.9992 81.4264 95.8282 82.7089 92.6706 84.1062L92.2118 84.3155C92.8284 83.6516 93.4008 82.9481 93.9255 82.2094C94.951 80.7042 95.5043 79.0774 94.1347 77.8084C92.4547 76.2491 89.7019 77.3224 89.6546 80.2789C89.6577 81.9186 90.0387 83.5355 90.7679 85.004C87.8178 86.3716 85.0146 88.0362 82.4016 89.972L82.3206 90.0328C82.6777 89.475 83 88.8956 83.2855 88.298C84.0614 86.651 84.3447 84.923 82.7929 83.924C82.4766 83.704 82.1143 83.559 81.7336 83.5C81.3529 83.4409 80.9638 83.4694 80.5957 83.5833C80.2277 83.6971 79.8903 83.8933 79.6094 84.157C79.3284 84.4207 79.1112 84.745 78.9741 85.1052C78.7718 84.7817 78.491 84.5146 78.1577 84.329C76.5924 83.4244 75.0541 84.4032 73.7385 85.787C73.3944 86.1447 73.0638 86.5295 72.7601 86.921C73.7799 84.0923 75.0606 81.3648 76.5857 78.7736C78.0335 79.4138 79.5975 79.7493 81.1804 79.7591C84.2975 79.7591 85.6132 77.1604 84.0816 75.5471C82.8402 74.2376 81.0859 74.7371 79.4329 75.6888C78.8864 76.0061 78.3534 76.3639 77.8541 76.7284C79.4449 74.3401 81.2517 72.1031 83.2517 70.0458C84.5549 71.0995 86.0688 71.8614 87.6913 72.2801C90.7207 73.0293 92.6233 70.8288 91.5236 68.905C90.633 67.3322 88.8248 67.393 86.9761 67.9195C86.1124 68.181 85.2652 68.4943 84.4392 68.8578C85.2623 68.0545 86.1192 67.2782 86.9828 66.5155C88.1231 65.5435 89.2971 64.6052 90.4913 63.694C91.7795 64.7197 93.2692 65.4626 94.8633 65.8742C97.886 66.6235 99.7886 64.423 98.6956 62.4992C97.805 60.9264 95.9968 60.9939 94.1482 61.5204C93.7231 61.6419 93.2913 61.7904 92.873 61.9457C94.4518 60.8184 96.0576 59.7181 97.6633 58.6179L99.1477 57.6054C100.488 58.7232 102.06 59.5301 103.749 59.9679C106.779 60.7172 108.674 58.5166 107.581 56.5929C106.691 55.0133 104.883 55.0808 103.034 55.6073C102.316 55.8187 101.611 56.0712 100.922 56.3634C101.233 56.1474 101.536 55.9246 101.84 55.6883C102.406 55.2833 102.96 54.8716 103.513 54.4463C104.188 53.9333 104.862 53.3596 105.537 52.8196C105.915 52.5158 106.279 52.1918 106.644 51.861C107.982 52.9992 109.563 53.8165 111.265 54.2506C114.295 54.9998 116.197 52.8061 115.104 50.8755C114.214 49.3028 112.406 49.3635 110.55 49.89C109.536 50.2031 108.542 50.5796 107.575 51.0173C108.809 49.8698 110.004 48.675 111.137 47.4262C111.218 47.3385 111.286 47.2507 111.36 47.163C111.852 46.623 112.331 46.0762 112.797 45.516C113.262 44.9557 113.856 44.1659 114.369 43.4909C116.447 40.7648 118.155 37.7756 119.449 34.6011C118.099 37.7487 116.331 40.7002 114.194 43.3762C112.088 46.0624 109.739 48.548 107.177 50.8013L106.9 51.0375C107.487 50.0271 108.005 48.9785 108.452 47.8987C109.127 46.1977 109.261 44.4899 107.635 43.5719C105.611 42.4514 103.209 44.1254 103.857 47.0145C104.269 48.713 105.092 50.2845 106.252 51.591L105.652 52.104C105.416 52.2998 105.173 52.5023 104.93 52.6913C104.532 53.0153 104.127 53.3258 103.722 53.6296L103.047 54.1291C102.467 54.5543 101.873 54.9796 101.28 55.3913L100.355 55.9583L99.3838 56.6334C99.949 55.6628 100.447 54.6547 100.875 53.6161C101.55 51.915 101.685 50.2073 100.059 49.2893C98.0344 48.162 95.6325 49.8428 96.2735 52.7318C96.6734 54.3761 97.4598 55.9011 98.5674 57.1801L97.8455 57.6459L95.1467 59.3874L94.6272 59.7316C94.1279 60.0556 93.6354 60.4067 93.1428 60.7239C92.9269 60.8657 92.711 61.0074 92.5019 61.1559C91.8272 61.6284 91.1187 62.1077 90.4373 62.6004C91.0102 61.6135 91.5173 60.5897 91.9554 59.5359C92.6301 57.8349 92.765 56.1203 91.139 55.2091C89.1149 54.0818 86.7129 55.7626 87.3539 58.6449C87.7583 60.3152 88.5617 61.8625 89.6951 63.1539C88.5346 64.0045 87.3876 64.882 86.2676 65.7932C85.458 66.4682 84.6551 67.1837 83.8725 67.8993C84.2139 67.2673 84.518 66.616 84.7833 65.9485C85.458 64.2475 85.5929 62.5734 83.9669 61.6217C81.9428 60.5012 79.5409 62.1752 80.1819 65.0642C80.5654 66.6444 81.3063 68.1155 82.3476 69.364C80.1326 71.5654 78.1373 73.9776 76.39 76.5664C76.5899 75.821 76.7409 75.0634 76.8421 74.2983C77.0647 72.4893 76.8016 70.7883 75.0069 70.2955C72.7939 69.688 70.844 71.902 72.1664 74.5481C72.9253 76.001 74.0108 77.258 75.3375 78.2201C73.6184 81.0279 72.1811 83.9989 71.0464 87.0897C71.018 86.443 70.9526 85.7985 70.8507 85.1592C70.5471 83.3637 69.8184 81.7842 67.9563 81.8449C65.6623 81.8854 64.4208 84.545 66.4382 86.7252C67.5154 87.8469 68.8293 88.714 70.284 89.2633C69.5071 91.6561 68.8718 94.0926 68.3813 96.5601C68.3071 96.9516 68.2396 97.3431 68.1722 97.7346C68.0848 97.8041 68.0036 97.8808 67.9293 97.9641C67.8483 97.6266 67.7539 97.2891 67.6459 96.9584C67.0657 95.2304 66.1076 93.8061 64.2724 94.1301C62.0122 94.5283 61.2025 97.3634 63.5235 99.1859C64.7063 100.091 66.0713 100.729 67.5245 101.056C67.5456 101.123 67.5727 101.189 67.6054 101.251C67.3558 103.108 67.1669 104.971 67.0522 106.847C66.9667 108.242 66.9105 109.644 66.8835 111.053C64.9269 111.053 63.51 113.192 64.8999 115.521C65.4652 116.485 66.1908 117.346 67.0454 118.066C67.2141 120.698 67.4705 123.331 67.8213 125.943C67.5447 125.688 67.2062 125.509 66.8393 125.425C66.4724 125.341 66.0899 125.355 65.7297 125.464C64.495 125.795 63.9418 126.814 63.7461 128.009C63.3161 128.463 63.0749 129.064 63.0714 129.69C62.1538 128.34 61.2902 126.929 60.4536 125.511C61.7348 124.526 62.7965 123.285 63.5707 121.866C65.0416 119.119 63.3885 116.729 61.243 117.317C59.4955 117.789 59.1109 119.571 59.1649 121.481C59.1943 122.205 59.2619 122.926 59.3673 123.641L58.5239 122.001C57.7683 120.651 57.1273 119.301 56.4189 117.897C56.2367 117.566 56.0815 117.222 55.9331 116.878C57.3752 116.152 58.6504 115.134 59.6777 113.888C61.6343 111.464 60.4536 108.805 58.2406 108.98C56.4324 109.115 55.7239 110.796 55.4203 112.679C55.2978 113.502 55.2234 114.332 55.1977 115.163L54.523 113.678C53.1524 110.314 52.025 106.856 51.1495 103.33C52.7735 102.759 54.2521 101.837 55.481 100.63C57.6738 98.4096 56.7697 95.6489 54.5432 95.5949C52.735 95.5544 51.8444 97.1541 51.3654 98.9699C51.124 99.9614 50.9437 100.967 50.8256 101.98C50.3466 99.9554 49.935 97.9304 49.5977 95.8581C49.3615 94.5823 49.2131 93.2931 49.0511 92.0038C50.8067 91.6633 52.46 90.9218 53.882 89.837C56.3447 87.9268 55.7982 85.0715 53.5986 84.7272C51.8174 84.4505 50.7379 85.922 50.0092 87.6905C49.5828 88.8125 49.2268 89.96 48.9432 91.1263C48.8015 89.6278 48.6463 88.136 48.5789 86.6375C48.3832 83.5441 48.3967 80.441 48.6193 77.3494C48.3023 80.4391 48.1941 83.5467 48.2955 86.651C48.2955 88.082 48.4169 89.5063 48.5046 90.9373C48.1218 89.964 47.6709 89.0189 47.1552 88.109C46.2242 86.543 44.976 85.3617 43.2555 86.084C41.1302 86.9548 40.948 89.9045 43.6063 91.187C45.1735 91.9051 46.8914 92.2317 48.6126 92.1388C48.734 93.4146 48.842 94.6903 49.0309 95.9526C49.3008 97.9776 49.6449 100.003 50.043 101.967C49.6084 101.204 49.1238 100.472 48.5924 99.7732C47.4589 98.3421 46.0757 97.3296 44.4564 98.2544C42.4323 99.3952 42.6617 102.338 45.4685 103.263C47.059 103.76 48.7444 103.873 50.3871 103.594C51.1609 107.161 52.1868 110.668 53.4569 114.09L53.8618 115.116C53.4974 114.65 53.1061 114.171 52.6945 113.766C51.4261 112.457 49.9485 111.593 48.4304 112.673C46.5615 114.023 47.081 116.918 49.935 117.56C51.5324 117.885 53.1835 117.837 54.7591 117.418C54.9008 117.769 55.0425 118.093 55.2112 118.464C55.8859 119.868 56.5066 121.313 57.2353 122.696C57.4377 123.095 57.6468 123.486 57.856 123.878C57.4984 123.574 57.1273 123.277 56.7427 123.007C55.2584 121.954 53.6391 121.38 52.3504 122.73C50.7716 124.391 51.7972 127.158 54.7524 127.246C56.2741 127.267 57.7821 126.956 59.1717 126.335C60.015 127.867 60.8921 129.379 61.83 130.864C62.1808 131.431 62.5452 131.991 62.9095 132.552C62.3741 132.052 61.8085 131.585 61.216 131.154C59.7249 130.101 58.1056 129.528 56.8237 130.878C55.2382 132.538 56.2637 135.306 59.2189 135.393C60.9087 135.413 62.5788 135.029 64.0902 134.273C64.576 134.948 65.082 135.623 65.6083 136.298C64.5085 137.574 64.8661 139.74 67.0994 140.699C68.195 141.153 69.3623 141.408 70.5471 141.455C70.6821 141.57 70.8237 141.678 70.9654 141.779L71.0396 141.833C71.5592 143.777 72.1259 145.707 72.7196 147.625H62.7071V179.424H87.779V147.604H76.0999C75.0946 144.168 74.2512 141.178 74.0758 141.097L73.725 140.928C75.0409 140.478 76.2641 139.792 77.3346 138.903C79.7096 136.878 79.0349 134.05 76.8286 133.814C75.0271 133.611 74.0151 135.13 73.3741 136.932C73.1893 137.446 73.0316 137.968 72.9018 138.498C72.7736 138.019 72.6454 137.54 72.524 137.061C72.1597 135.643 71.8493 134.212 71.5119 132.788C72.9412 132.33 74.2679 131.599 75.4185 130.635C77.7934 128.61 77.1187 125.788 74.9124 125.545C73.111 125.349 72.1057 126.895 71.458 128.664C71.2718 129.186 71.1119 129.718 70.9789 130.257C70.7698 129.217 70.5741 128.178 70.3919 127.131C70.257 126.348 70.1355 125.572 70.0208 124.796C69.9736 123.689 69.9601 122.575 69.9736 121.468C69.9736 120.854 69.9736 120.246 70.0276 119.632C71.3659 120.065 72.7728 120.246 74.177 120.165C77.2941 119.963 78.4411 117.296 76.8151 115.778C75.4657 114.549 73.7722 115.157 72.1799 116.21C71.4755 116.697 70.7996 117.224 70.1558 117.789C70.347 115.179 70.7441 112.588 71.3433 110.04C71.6984 108.546 72.1353 107.072 72.6522 105.625C74.082 106.12 75.5946 106.331 77.1052 106.246C80.2156 106.051 81.3693 103.378 79.7433 101.866C78.3939 100.63 76.7004 101.245 75.1081 102.298C74.543 102.681 73.998 103.093 73.4753 103.533C74.0749 102.119 74.7738 100.75 75.5669 99.4357C77.1564 96.7897 79.1455 94.4057 81.4638 92.3683C82.6579 93.4628 84.0663 94.2972 85.5997 94.8186C88.5684 95.7906 90.6262 93.7386 89.6479 91.7271C88.8787 90.0935 87.057 90.0193 85.1814 90.377C84.4725 90.5347 83.7722 90.7285 83.0831 90.9576H83.1303C85.6745 88.9664 88.4171 87.2428 91.3144 85.814C92.3399 87.1542 93.6425 88.2571 95.1332 89.0473C97.9062 90.4783 100.268 88.7908 99.6537 86.651C99.1544 84.9095 97.3665 84.5517 95.4571 84.626C94.7086 84.6677 93.963 84.751 93.2238 84.8757C96.3072 83.4177 99.4513 82.0407 102.487 80.4342L102.555 80.4004C103.92 81.573 105.536 82.416 107.278 82.8642C110.307 83.6135 112.21 81.4129 111.11 79.4892C110.226 77.9096 108.411 77.9771 106.563 78.5036C106.05 78.6454 105.544 78.8344 105.045 79.0234C107.069 77.8435 109.033 76.5616 110.928 75.1826L111.09 75.3513C111.086 75.3267 111.086 75.3017 111.09 75.2771C112.453 76.4599 114.068 77.3143 115.813 77.7746C118.842 78.5171 120.745 76.3234 119.652 74.3996C118.829 72.8336 117.007 72.8336 115.199 73.3871ZM67.3963 135.36C66.7823 134.637 66.1885 133.881 65.6151 133.119C65.7567 132.99 65.9052 132.849 66.0536 132.7C66.9072 132.968 67.7914 133.127 68.6849 133.173V133.314L69.1033 133.233C69.3192 134.307 69.5486 135.387 69.778 136.46C69.4968 136.094 69.1302 135.802 68.7103 135.61C68.2905 135.418 67.83 135.332 67.3693 135.36H67.3963ZM69.6295 109.615C69.4204 110.418 69.2382 111.228 69.0695 112.038L68.9683 111.896C68.9683 110.231 68.9931 108.569 69.0425 106.908C69.0898 105.74 69.1775 104.579 69.2787 103.425C69.8358 104 70.4534 104.514 71.1206 104.957C70.5305 106.481 70.0237 108.036 69.6025 109.615H69.6295ZM72.4363 101.953C72.4363 101.65 72.5037 101.339 72.524 101.042C72.524 100.887 72.524 100.732 72.524 100.583C72.7669 100.509 73.0165 100.421 73.2662 100.32C72.9558 100.86 72.6927 101.4 72.4093 101.953H72.4363ZM75.992 96.1686C75.8734 95.899 75.7017 95.6561 75.4873 95.4543C75.2728 95.2525 75.02 95.096 74.7438 94.9941C73.057 94.3191 71.6874 95.5476 70.6011 97.1136L70.5471 97.1946L70.4392 97.1609L70.0883 97.1136C70.0883 97.0191 70.1221 96.9246 70.1356 96.8301C70.5695 94.3624 71.153 91.9234 71.883 89.5265C73.4524 89.7224 75.0452 89.5984 76.5655 89.162C77.4955 88.9256 78.3097 88.3626 78.8594 87.5758C79.1652 88.952 79.7383 90.2547 80.5462 91.4098C78.8607 92.8354 77.3256 94.43 75.965 96.1686H75.992Z" fill="#2489B0"/>
<path d="M129.138 84.4841H249.08C250.511 84.4841 251.884 85.0531 252.897 86.0658C253.909 87.0785 254.478 88.452 254.478 89.8842V174.085H123.761V89.864C123.766 88.4388 124.335 87.0735 125.342 86.0657C126.349 85.058 127.714 84.4895 129.138 84.4841Z" fill="#004B67" stroke="#004B67" stroke-linecap="round" stroke-linejoin="round"/>
<path d="M274.064 213.688H104.155L123.761 174.078H254.458L274.064 213.688Z" fill="white" stroke="#004B67" stroke-linecap="round" stroke-linejoin="round"/>
<path d="M246.543 91.5785H131.675V166.984H246.543V91.5785Z" fill="#2489B0" stroke="#004B67" stroke-linecap="round" stroke-linejoin="round"/>
<path d="M183.654 186.613L183.883 181.787H176.975L176.516 186.613H183.654Z" fill="#004B67" stroke="white" stroke-linecap="round" stroke-linejoin="round"/>
<path d="M197.931 186.613L197.695 181.787H190.786L190.793 186.613H197.931Z" fill="#004B67" stroke="white" stroke-linecap="round" stroke-linejoin="round"/>
<path d="M235.1 191.777H242.481L240.747 186.613H233.616L235.1 191.777Z" fill="#004B67" stroke="white" stroke-linecap="round" stroke-linejoin="round"/>
<path d="M176.516 186.613L176.975 181.787H170.072L169.384 186.613H176.516Z" fill="#004B67" stroke="white" stroke-linecap="round" stroke-linejoin="round"/>
<path d="M162.246 186.613L163.164 181.787H156.262L155.108 186.613H162.246Z" fill="#004B67" stroke="white" stroke-linecap="round" stroke-linejoin="round"/>
<path d="M226.477 186.613L225.317 181.787H218.415L219.339 186.613H226.477Z" fill="#004B67" stroke="white" stroke-linecap="round" stroke-linejoin="round"/>
<path d="M233.616 186.613L232.226 181.787H225.317L226.478 186.613H233.616Z" fill="#004B67" stroke="white" stroke-linecap="round" stroke-linejoin="round"/>
<path d="M155.108 186.613L156.261 181.787H149.352L147.969 186.613H155.108Z" fill="#004B67" stroke="white" stroke-linecap="round" stroke-linejoin="round"/>
<path d="M205.062 186.613L204.597 181.787H197.695L197.931 186.613H205.062Z" fill="#004B67" stroke="white" stroke-linecap="round" stroke-linejoin="round"/>
<path d="M240.748 186.613L239.128 181.787H232.226L233.616 186.613H240.748Z" fill="#004B67" stroke="white" stroke-linecap="round" stroke-linejoin="round"/>
<path d="M219.339 186.613L218.415 181.787H211.506L212.201 186.613H219.339Z" fill="#004B67" stroke="white" stroke-linecap="round" stroke-linejoin="round"/>
<path d="M212.201 186.613L211.506 181.787H204.597L205.062 186.613H212.201Z" fill="#004B67" stroke="white" stroke-linecap="round" stroke-linejoin="round"/>
<path d="M190.793 186.613L190.786 181.787H183.884L183.654 186.613H190.793Z" fill="#004B67" stroke="white" stroke-linecap="round" stroke-linejoin="round"/>
<path d="M140.838 186.613H133.699L131.729 191.777H139.111L140.838 186.613Z" fill="#004B67" stroke="white" stroke-linecap="round" stroke-linejoin="round"/>
<path d="M142.444 181.787H135.541L133.699 186.613H140.838L142.444 181.787Z" fill="#004B67" stroke="white" stroke-linecap="round" stroke-linejoin="round"/>
<path d="M147.969 186.613L149.353 181.787H142.444L140.838 186.613H147.969Z" fill="#004B67" stroke="white" stroke-linecap="round" stroke-linejoin="round"/>
<path d="M129.617 197.305L127.344 203.245H135.278L137.262 197.305H129.617Z" fill="#004B67" stroke="white" stroke-linecap="round" stroke-linejoin="round"/>
<path d="M139.11 191.777H131.729L129.617 197.305H137.262L139.11 191.777Z" fill="#004B67" stroke="white" stroke-linecap="round" stroke-linejoin="round"/>
<path d="M137.262 197.305L135.278 203.245H143.213L144.913 197.305H137.262Z" fill="#004B67" stroke="white" stroke-linecap="round" stroke-linejoin="round"/>
<path d="M169.384 186.613L170.072 181.787H163.163L162.246 186.613H169.384Z" fill="#004B67" stroke="white" stroke-linecap="round" stroke-linejoin="round"/>
<path d="M168.642 191.777L169.384 186.613H162.246L161.261 191.777H168.642Z" fill="#004B67" stroke="white" stroke-linecap="round" stroke-linejoin="round"/>
<path d="M161.261 191.777L162.246 186.613H155.108L153.88 191.777H161.261Z" fill="#004B67" stroke="white" stroke-linecap="round" stroke-linejoin="round"/>
<path d="M176.03 191.777L176.516 186.613H169.384L168.642 191.777H176.03Z" fill="#004B67" stroke="white" stroke-linecap="round" stroke-linejoin="round"/>
<path d="M147.969 186.613H140.837L139.11 191.777H146.491L147.969 186.613Z" fill="#004B67" stroke="white" stroke-linecap="round" stroke-linejoin="round"/>
<path d="M236.693 197.305H244.344L242.481 191.777H235.1L236.693 197.305Z" fill="#004B67" stroke="white" stroke-linecap="round" stroke-linejoin="round"/>
<path d="M153.88 191.777L155.108 186.613H147.969L146.492 191.777H153.88Z" fill="#004B67" stroke="white" stroke-linecap="round" stroke-linejoin="round"/>
<path d="M139.11 191.777L137.262 197.305H144.913L146.492 191.777H139.11Z" fill="#004B67" stroke="white" stroke-linecap="round" stroke-linejoin="round"/>
<path d="M220.331 191.777L219.339 186.613H212.201L212.949 191.777H220.331Z" fill="#004B67" stroke="white" stroke-linecap="round" stroke-linejoin="round"/>
<path d="M212.949 191.777L212.2 186.613H205.062L205.561 191.777H212.949Z" fill="#004B67" stroke="white" stroke-linecap="round" stroke-linejoin="round"/>
<path d="M235.1 191.777L233.616 186.613H226.478L227.712 191.777H235.1Z" fill="#004B67" stroke="white" stroke-linecap="round" stroke-linejoin="round"/>
<path d="M190.8 191.777L190.793 186.613H183.655L183.412 191.777H190.8Z" fill="#004B67" stroke="white" stroke-linecap="round" stroke-linejoin="round"/>
<path d="M205.562 191.777L205.062 186.613H197.931L198.18 191.777H205.562Z" fill="#004B67" stroke="white" stroke-linecap="round" stroke-linejoin="round"/>
<path d="M198.181 191.777L197.931 186.613H190.793L190.799 191.777H198.181Z" fill="#004B67" stroke="white" stroke-linecap="round" stroke-linejoin="round"/>
<path d="M183.411 191.777L183.654 186.613H176.516L176.03 191.777H183.411Z" fill="#004B67" stroke="white" stroke-linecap="round" stroke-linejoin="round"/>
<path d="M205.562 191.777L206.101 197.305H213.746L212.95 191.777H205.562Z" fill="#004B67" stroke="white" stroke-linecap="round" stroke-linejoin="round"/>
<path d="M212.95 191.777L213.746 197.305H221.397L220.331 191.777H212.95Z" fill="#004B67" stroke="white" stroke-linecap="round" stroke-linejoin="round"/>
<path d="M146.492 191.777L144.913 197.305H152.564L153.879 191.777H146.492Z" fill="#004B67" stroke="white" stroke-linecap="round" stroke-linejoin="round"/>
<path d="M220.331 191.777L221.397 197.305H229.042L227.713 191.777H220.331Z" fill="#004B67" stroke="white" stroke-linecap="round" stroke-linejoin="round"/>
<path d="M190.8 191.777V197.305H198.451L198.181 191.777H190.8Z" fill="#004B67" stroke="white" stroke-linecap="round" stroke-linejoin="round"/>
<path d="M227.712 191.777L229.041 197.305H236.692L235.1 191.777H227.712Z" fill="#004B67" stroke="white" stroke-linecap="round" stroke-linejoin="round"/>
<path d="M198.181 191.777L198.45 197.305H206.102L205.562 191.777H198.181Z" fill="#004B67" stroke="white" stroke-linecap="round" stroke-linejoin="round"/>
<path d="M161.261 191.777L160.208 197.305H167.859L168.642 191.777H161.261Z" fill="#004B67" stroke="white" stroke-linecap="round" stroke-linejoin="round"/>
<path d="M153.879 191.777L152.564 197.305H160.208L161.261 191.777H153.879Z" fill="#004B67" stroke="white" stroke-linecap="round" stroke-linejoin="round"/>
<path d="M183.412 191.777L183.155 197.305H190.8V191.777H183.412Z" fill="#004B67" stroke="white" stroke-linecap="round" stroke-linejoin="round"/>
<path d="M176.03 191.777L175.504 197.305H183.155L183.411 191.777H176.03Z" fill="#004B67" stroke="white" stroke-linecap="round" stroke-linejoin="round"/>
<path d="M168.642 191.777L167.859 197.305H175.504L176.03 191.777H168.642Z" fill="#004B67" stroke="white" stroke-linecap="round" stroke-linejoin="round"/>
<path d="M227.712 191.777L226.477 186.613H219.339L220.331 191.777H227.712Z" fill="#004B67" stroke="white" stroke-linecap="round" stroke-linejoin="round"/>
<path d="M142.443 181.787L144.096 176.846H137.424L135.541 181.787H142.443Z" fill="#004B67" stroke="white" stroke-linecap="round" stroke-linejoin="round"/>
<path d="M135.541 181.787H129.165L127.107 186.613H133.699L135.541 181.787Z" fill="#004B67" stroke="white" stroke-linecap="round" stroke-linejoin="round"/>
<path d="M137.424 176.846H131.27L129.165 181.787H135.541L137.424 176.846Z" fill="#004B67" stroke="white" stroke-linecap="round" stroke-linejoin="round"/>
<path d="M133.699 186.613H127.108L124.915 191.777H131.729L133.699 186.613Z" fill="#004B67" stroke="white" stroke-linecap="round" stroke-linejoin="round"/>
<path d="M131.729 191.777H124.915L122.553 197.305H129.617L131.729 191.777Z" fill="#004B67" stroke="white" stroke-linecap="round" stroke-linejoin="round"/>
<path d="M129.617 197.305H122.553L120.023 203.245H127.344L129.617 197.305Z" fill="#004B67" stroke="white" stroke-linecap="round" stroke-linejoin="round"/>
<path d="M247.885 186.613L249.869 191.777H256.4L254.201 186.613H247.885Z" fill="#004B67" stroke="white" stroke-linecap="round" stroke-linejoin="round"/>
<path d="M251.988 197.305H258.755L256.4 191.777H249.869L251.988 197.305Z" fill="#004B67" stroke="white" stroke-linecap="round" stroke-linejoin="round"/>
<path d="M254.269 203.245H261.285L258.755 197.305H251.988L254.269 203.245Z" fill="#004B67" stroke="white" stroke-linecap="round" stroke-linejoin="round"/>
<path d="M197.695 181.787L197.452 176.846H190.786V181.787H197.695Z" fill="#004B67" stroke="white" stroke-linecap="round" stroke-linejoin="round"/>
<path d="M247.886 186.613H254.201L252.143 181.787H246.037L247.886 186.613Z" fill="#004B67" stroke="white" stroke-linecap="round" stroke-linejoin="round"/>
<path d="M244.344 197.305H251.988L249.869 191.777H242.481L244.344 197.305Z" fill="#004B67" stroke="white" stroke-linecap="round" stroke-linejoin="round"/>
<path d="M149.352 181.787L150.762 176.846H144.096L142.443 181.787H149.352Z" fill="#004B67" stroke="white" stroke-linecap="round" stroke-linejoin="round"/>
<path d="M239.128 181.787L240.747 186.613H247.886L246.037 181.787H239.128Z" fill="#004B67" stroke="white" stroke-linecap="round" stroke-linejoin="round"/>
<path d="M252.143 181.787L250.038 176.846H244.141L246.037 181.787H252.143Z" fill="#004B67" stroke="white" stroke-linecap="round" stroke-linejoin="round"/>
<path d="M246.037 181.787L244.141 176.846H237.469L239.128 181.787H246.037Z" fill="#004B67" stroke="white" stroke-linecap="round" stroke-linejoin="round"/>
<path d="M221.397 197.305L222.537 203.245H230.472L229.042 197.305H221.397Z" fill="#004B67" stroke="white" stroke-linecap="round" stroke-linejoin="round"/>
<path d="M246.334 203.245H254.268L251.988 197.305H244.344L246.334 203.245Z" fill="#004B67" stroke="white" stroke-linecap="round" stroke-linejoin="round"/>
<path d="M239.128 181.787L237.469 176.846H230.802L232.226 181.787H239.128Z" fill="#004B67" stroke="white" stroke-linecap="round" stroke-linejoin="round"/>
<path d="M236.693 197.305L238.406 203.245H246.334L244.344 197.305H236.693Z" fill="#004B67" stroke="white" stroke-linecap="round" stroke-linejoin="round"/>
<path d="M229.041 197.305L230.472 203.245H238.406L236.692 197.305H229.041Z" fill="#004B67" stroke="white" stroke-linecap="round" stroke-linejoin="round"/>
<path d="M242.481 191.777H249.869L247.886 186.613H240.747L242.481 191.777Z" fill="#004B67" stroke="white" stroke-linecap="round" stroke-linejoin="round"/>
<path d="M176.975 181.787L177.447 176.846H170.774L170.073 181.787H176.975Z" fill="#004B67" stroke="white" stroke-linecap="round" stroke-linejoin="round"/>
<path d="M232.226 181.787L230.802 176.846H224.13L225.317 181.787H232.226Z" fill="#004B67" stroke="white" stroke-linecap="round" stroke-linejoin="round"/>
<path d="M170.073 181.787L170.774 176.846H164.108L163.164 181.787H170.073Z" fill="#004B67" stroke="white" stroke-linecap="round" stroke-linejoin="round"/>
<path d="M190.786 181.787V176.846H184.113L183.884 181.787H190.786Z" fill="#004B67" stroke="white" stroke-linecap="round" stroke-linejoin="round"/>
<path d="M163.164 181.787L164.108 176.846H157.435L156.261 181.787H163.164Z" fill="#004B67" stroke="white" stroke-linecap="round" stroke-linejoin="round"/>
<path d="M156.261 181.787L157.435 176.846H150.762L149.352 181.787H156.261Z" fill="#004B67" stroke="white" stroke-linecap="round" stroke-linejoin="round"/>
<path d="M183.883 181.787L184.113 176.846H177.447L176.974 181.787H183.883Z" fill="#004B67" stroke="white" stroke-linecap="round" stroke-linejoin="round"/>
<path d="M225.317 181.787L224.13 176.846H217.464L218.415 181.787H225.317Z" fill="#004B67" stroke="white" stroke-linecap="round" stroke-linejoin="round"/>
<path d="M218.415 181.787L217.463 176.846H210.791L211.506 181.787H218.415Z" fill="#004B67" stroke="white" stroke-linecap="round" stroke-linejoin="round"/>
<path d="M204.597 181.787L204.125 176.846H197.452L197.695 181.787H204.597Z" fill="#004B67" stroke="white" stroke-linecap="round" stroke-linejoin="round"/>
<path d="M221.397 197.305H213.746H206.102H198.451H190.799H183.155H175.504H167.86H160.208H152.564H144.913L143.213 203.245H151.147H159.075H167.009H174.944H182.878H190.806H198.741H206.675H214.603H222.537L221.397 197.305Z" fill="#004B67" stroke="white" stroke-linecap="round" stroke-linejoin="round"/>
<path d="M211.506 181.787L210.791 176.846H204.125L204.597 181.787H211.506Z" fill="#004B67" stroke="white" stroke-linecap="round" stroke-linejoin="round"/>
<path d="M274.139 213.681H104.155V216.091H274.139V213.681Z" fill="#004B67" stroke="#004B67" stroke-linecap="round" stroke-linejoin="round"/>
<path opacity="0.15" d="M234.56 108.778V173.639L215.716 198.216L212.545 199.404L115.874 213.674V216.847L80.4653 218.75V183.947H140.838V108.467L234.56 108.778Z" fill="#333333"/>
<path d="M58.7537 176.987C54.4018 177.203 49.6857 180.524 49.6857 180.524L0.5 218.75H80.4655C80.4655 218.75 130.953 180.632 132.465 179.539C134.86 177.811 139.61 176.933 139.61 176.933L137.363 176.987H58.7537Z" fill="white" stroke="#004B67" stroke-linecap="round" stroke-linejoin="round"/>
<path d="M242.718 108.838H135.703" stroke="#004B67" stroke-linecap="round" stroke-linejoin="round"/>
<path d="M226.579 85.7665C225.53 85.7656 224.491 85.9718 223.522 86.3732C222.552 86.7746 221.672 87.3633 220.93 88.1057C220.189 88.8481 219.601 89.7296 219.201 90.6996C218.8 91.6696 218.595 92.7091 218.597 93.7586V191.912C218.594 193.206 218.282 194.481 217.685 195.63C217.089 196.779 216.226 197.768 215.169 198.514C214.111 199.26 212.891 199.742 211.609 199.919C210.327 200.097 209.022 199.964 207.802 199.532L147.261 178.02C144.085 176.888 140.651 176.696 137.37 177.466V93.7586C137.37 91.6407 138.211 89.6096 139.708 88.1121C141.204 86.6145 143.235 85.7732 145.351 85.7732L226.579 85.7665Z" fill="white"/>
<mask id="mask0_883_1688" style="mask-type:luminance" maskUnits="userSpaceOnUse" x="137" y="85" width="90" height="115">
<path d="M226.579 85.7665C225.53 85.7656 224.491 85.9718 223.522 86.3732C222.552 86.7746 221.672 87.3633 220.93 88.1057C220.189 88.8481 219.601 89.7296 219.201 90.6996C218.8 91.6696 218.595 92.7091 218.597 93.7586V191.912C218.594 193.206 218.282 194.481 217.685 195.63C217.089 196.779 216.226 197.768 215.169 198.514C214.111 199.26 212.891 199.742 211.609 199.919C210.327 200.097 209.022 199.964 207.802 199.532L147.261 178.02C144.085 176.888 140.651 176.696 137.37 177.466V93.7586C137.37 91.6407 138.211 89.6096 139.708 88.1121C141.204 86.6145 143.235 85.7732 145.351 85.7732L226.579 85.7665Z" fill="white"/>
</mask>
<g mask="url(#mask0_883_1688)">
<path d="M154.696 180.666L207.795 199.533C209.015 199.964 210.32 200.097 211.602 199.92C212.884 199.742 214.104 199.26 215.161 198.514C216.219 197.768 217.082 196.779 217.678 195.63C218.275 194.481 218.587 193.206 218.59 191.912V180.666H154.696Z" fill="#2489B0"/>
<path opacity="0.6" d="M154.696 180.666L207.795 199.533C209.015 199.964 210.32 200.097 211.602 199.92C212.884 199.742 214.104 199.26 215.161 198.514C216.219 197.768 217.082 196.779 217.678 195.63C218.275 194.481 218.587 193.206 218.59 191.912V180.666H154.696Z" fill="white"/>
<path d="M154.696 193.592L207.795 212.493C209.015 212.924 210.321 213.057 211.603 212.879C212.886 212.702 214.107 212.219 215.164 211.472C216.221 210.725 217.084 209.735 217.68 208.586C218.277 207.436 218.588 206.16 218.59 204.865V193.592H154.696Z" fill="#2489B0"/>
</g>
<path d="M226.579 85.7665C225.53 85.7656 224.491 85.9718 223.522 86.3732C222.552 86.7746 221.672 87.3633 220.93 88.1057C220.189 88.8481 219.601 89.7296 219.201 90.6996C218.8 91.6696 218.595 92.7091 218.597 93.7586V191.912C218.594 193.206 218.282 194.481 217.685 195.63C217.089 196.779 216.226 197.768 215.169 198.514C214.111 199.26 212.891 199.742 211.609 199.919C210.327 200.097 209.022 199.964 207.802 199.532L147.261 178.02C144.085 176.888 140.651 176.696 137.37 177.466V93.7586C137.37 91.6407 138.211 89.6096 139.708 88.1121C141.204 86.6145 143.235 85.7732 145.351 85.7732L226.579 85.7665Z" stroke="#004B67" stroke-linecap="round" stroke-linejoin="round"/>
<path d="M140.804 176.987H137.363" stroke="#004B67" stroke-linecap="round" stroke-linejoin="round"/>
<path d="M210.514 200.012H129.28C128.36 200.008 127.447 199.846 126.581 199.533L112.554 194.598L129.995 181.166C132.35 179.18 135.183 177.845 138.213 177.293C141.243 176.741 144.364 176.992 147.268 178.02L207.808 199.533C208.676 199.846 209.591 200.008 210.514 200.012Z" fill="white"/>
<mask id="mask1_883_1688" style="mask-type:luminance" maskUnits="userSpaceOnUse" x="112" y="177" width="99" height="24">
<path d="M210.514 200.012H129.28C128.36 200.008 127.447 199.846 126.581 199.533L112.554 194.598L129.995 181.166C132.35 179.18 135.183 177.845 138.213 177.293C141.243 176.741 144.364 176.992 147.268 178.02L207.808 199.533C208.676 199.846 209.591 200.008 210.514 200.012Z" fill="white"/>
</mask>
<g mask="url(#mask1_883_1688)">
<path d="M210.514 200.012H129.28C128.359 200.008 127.447 199.846 126.581 199.533L111.684 194.335L129.981 181.166C132.336 179.18 135.169 177.845 138.199 177.293C141.229 176.741 144.351 176.992 147.254 178.02L207.795 199.533C208.667 199.848 209.587 200.01 210.514 200.012Z" fill="#2489B0"/>
<path opacity="0.2" d="M210.514 200.012H129.28C128.359 200.008 127.447 199.846 126.581 199.533L111.684 194.335L129.981 181.166C132.336 179.18 135.169 177.845 138.199 177.293C141.229 176.741 144.351 176.992 147.254 178.02L207.795 199.533C208.667 199.848 209.587 200.01 210.514 200.012Z" fill="#333333"/>
</g>
<path d="M210.514 200.012H129.28C128.36 200.008 127.447 199.846 126.581 199.533L112.554 194.598L129.995 181.166C132.35 179.18 135.183 177.845 138.213 177.293C141.243 176.741 144.364 176.992 147.268 178.02L207.808 199.533C208.676 199.846 209.591 200.008 210.514 200.012Z" stroke="#004B67" stroke-linecap="round" stroke-linejoin="round"/>
<path d="M129.28 200.012H129.105" stroke="#004B67" stroke-linecap="round" stroke-linejoin="round"/>
<path d="M210.669 200.012H210.514" stroke="#004B67" stroke-linecap="round" stroke-linejoin="round"/>
<path d="M232.22 88.1088C231.481 87.3644 230.602 86.774 229.634 86.3719C228.666 85.9699 227.627 85.7641 226.579 85.7665C218.267 85.7665 218.597 93.7519 218.597 93.7519V108.778H234.561V93.7586C234.563 92.7088 234.358 91.6688 233.956 90.6991C233.554 89.7293 232.964 88.8488 232.22 88.1088Z" fill="white"/>
<mask id="mask2_883_1688" style="mask-type:luminance" maskUnits="userSpaceOnUse" x="218" y="85" width="17" height="24">
<path d="M232.22 88.1088C231.481 87.3644 230.602 86.774 229.634 86.3719C228.666 85.9699 227.627 85.7641 226.579 85.7665C218.267 85.7665 218.597 93.7519 218.597 93.7519V108.778H234.561V93.7586C234.563 92.7088 234.358 91.6688 233.956 90.6991C233.554 89.7293 232.964 88.8488 232.22 88.1088Z" fill="white"/>
</mask>
<g mask="url(#mask2_883_1688)">
<path d="M232.22 88.1088C231.481 87.3644 230.602 86.774 229.634 86.3719C228.666 85.9699 227.627 85.7641 226.579 85.7665C218.267 85.7665 218.597 93.7519 218.597 93.7519V108.778H234.561V93.7586C234.563 92.7088 234.358 91.6688 233.956 90.6991C233.554 89.7293 232.964 88.8488 232.22 88.1088Z" fill="#2489B0"/>
<path opacity="0.2" d="M232.22 88.1088C231.481 87.3644 230.602 86.774 229.634 86.3719C228.666 85.9699 227.627 85.7641 226.579 85.7665C218.267 85.7665 218.597 93.7519 218.597 93.7519V108.778H234.561V93.7586C234.563 92.7088 234.358 91.6688 233.956 90.6991C233.554 89.7293 232.964 88.8488 232.22 88.1088Z" fill="#333333"/>
</g>
<path d="M232.22 88.1088C231.481 87.3644 230.602 86.774 229.634 86.3719C228.666 85.9699 227.627 85.7641 226.579 85.7665C218.267 85.7665 218.597 93.7519 218.597 93.7519V108.778H234.561V93.7586C234.563 92.7088 234.358 91.6689 233.956 90.6991C233.554 89.7293 232.964 88.8488 232.22 88.1088Z" stroke="#004B67" stroke-linecap="round" stroke-linejoin="round"/>
<g opacity="0.15">
<path d="M144.818 99.5232V99.6649V103.074V103.215V106.624V106.766V110.168V110.31V113.719V113.86V117.269V117.411V120.813V120.955V124.363V124.505V127.914V128.056V131.458V131.6V135.008V135.15V138.701H152.53V135.15V135.008V131.6V131.458V128.056V127.914V124.505V124.363V120.955V120.813V117.411V117.269V113.86V113.719V110.31V110.168V106.766V106.624V103.215V103.074V99.6649V99.5232V95.9794H144.818V99.5232Z" fill="#333333"/>
<path d="M205.623 95.9794H205.461H198.079H197.911H190.53H190.361H182.986H182.818H175.436H175.268H167.893H167.725H160.343H160.175H152.632V99.6649H160.175H160.343H167.725H167.893H175.268H175.436H182.818H182.986H190.361H190.53H197.911H198.079H205.461H205.623H213.172V95.9794H205.623Z" fill="#333333"/>
</g>
<path d="M152.53 95.9794H144.818V99.6717H152.53V95.9794Z" stroke="#004B67" stroke-width="0.25" stroke-linecap="round" stroke-linejoin="round"/>
<path d="M152.53 99.5233H144.818V103.216H152.53V99.5233Z" stroke="#004B67" stroke-width="0.25" stroke-linecap="round" stroke-linejoin="round"/>
<path d="M152.53 103.074H144.818V106.766H152.53V103.074Z" stroke="#004B67" stroke-width="0.25" stroke-linecap="round" stroke-linejoin="round"/>
<path d="M152.53 106.624H144.818V110.317H152.53V106.624Z" stroke="#004B67" stroke-width="0.25" stroke-linecap="round" stroke-linejoin="round"/>
<path d="M152.53 110.168H144.818V113.86H152.53V110.168Z" stroke="#004B67" stroke-width="0.25" stroke-linecap="round" stroke-linejoin="round"/>
<path d="M152.53 113.719H144.818V117.411H152.53V113.719Z" stroke="#004B67" stroke-width="0.25" stroke-linecap="round" stroke-linejoin="round"/>
<path d="M152.53 117.269H144.818V120.962H152.53V117.269Z" stroke="#004B67" stroke-width="0.25" stroke-linecap="round" stroke-linejoin="round"/>
<path d="M152.53 120.813H144.818V124.505H152.53V120.813Z" stroke="#004B67" stroke-width="0.25" stroke-linecap="round" stroke-linejoin="round"/>
<path d="M152.53 124.364H144.818V128.056H152.53V124.364Z" stroke="#004B67" stroke-width="0.25" stroke-linecap="round" stroke-linejoin="round"/>
<path d="M152.53 127.914H144.818V131.606H152.53V127.914Z" stroke="#004B67" stroke-width="0.25" stroke-linecap="round" stroke-linejoin="round"/>
<path d="M152.53 131.458H144.818V135.15H152.53V131.458Z" stroke="#004B67" stroke-width="0.25" stroke-linecap="round" stroke-linejoin="round"/>
<path d="M152.53 135.008H144.818V138.701H152.53V135.008Z" stroke="#004B67" stroke-width="0.25" stroke-linecap="round" stroke-linejoin="round"/>
<path d="M160.343 95.9794H152.632V99.6717H160.343V95.9794Z" stroke="#004B67" stroke-width="0.25" stroke-linecap="round" stroke-linejoin="round"/>
<path d="M167.887 95.9794H160.175V99.6717H167.887V95.9794Z" stroke="#004B67" stroke-width="0.25" stroke-linecap="round" stroke-linejoin="round"/>
<path d="M175.436 95.9794H167.724V99.6717H175.436V95.9794Z" stroke="#004B67" stroke-width="0.25" stroke-linecap="round" stroke-linejoin="round"/>
<path d="M182.98 95.9794H175.268V99.6717H182.98V95.9794Z" stroke="#004B67" stroke-width="0.25" stroke-linecap="round" stroke-linejoin="round"/>
<path d="M190.529 95.9794H182.818V99.6717H190.529V95.9794Z" stroke="#004B67" stroke-width="0.25" stroke-linecap="round" stroke-linejoin="round"/>
<path d="M198.073 95.9794H190.361V99.6717H198.073V95.9794Z" stroke="#004B67" stroke-width="0.25" stroke-linecap="round" stroke-linejoin="round"/>
<path d="M205.622 95.9794H197.911V99.6717H205.622V95.9794Z" stroke="#004B67" stroke-width="0.25" stroke-linecap="round" stroke-linejoin="round"/>
<path d="M213.172 95.9794H205.46V99.6717H213.172V95.9794Z" stroke="#004B67" stroke-width="0.25" stroke-linecap="round" stroke-linejoin="round"/>
<path d="M213.166 99.665H152.53V138.694H213.166V99.665Z" stroke="#004B67" stroke-width="0.25" stroke-linecap="round" stroke-linejoin="round"/>
<path d="M160.242 99.665V138.687" stroke="#004B67" stroke-width="0.25" stroke-linecap="round" stroke-linejoin="round"/>
<path d="M167.792 99.665V138.687" stroke="#004B67" stroke-width="0.25" stroke-linecap="round" stroke-linejoin="round"/>
<path d="M175.342 99.665V138.687" stroke="#004B67" stroke-width="0.25" stroke-linecap="round" stroke-linejoin="round"/>
<path d="M182.892 99.665V138.687" stroke="#004B67" stroke-width="0.25" stroke-linecap="round" stroke-linejoin="round"/>
<path d="M190.435 99.665V138.687" stroke="#004B67" stroke-width="0.25" stroke-linecap="round" stroke-linejoin="round"/>
<path d="M197.985 99.665V138.687" stroke="#004B67" stroke-width="0.25" stroke-linecap="round" stroke-linejoin="round"/>
<path d="M205.535 99.665V138.687" stroke="#004B67" stroke-width="0.25" stroke-linecap="round" stroke-linejoin="round"/>
<path d="M152.53 103.215H213.125" stroke="#004B67" stroke-width="0.25" stroke-linecap="round" stroke-linejoin="round"/>
<path d="M152.53 106.753H213.125" stroke="#004B67" stroke-width="0.25" stroke-linecap="round" stroke-linejoin="round"/>
<path d="M152.53 110.29H213.125" stroke="#004B67" stroke-width="0.25" stroke-linecap="round" stroke-linejoin="round"/>
<path d="M152.53 113.827H213.125" stroke="#004B67" stroke-width="0.25" stroke-linecap="round" stroke-linejoin="round"/>
<path d="M152.53 117.364H213.125" stroke="#004B67" stroke-width="0.25" stroke-linecap="round" stroke-linejoin="round"/>
<path d="M152.53 120.894H213.125" stroke="#004B67" stroke-width="0.25" stroke-linecap="round" stroke-linejoin="round"/>
<path d="M152.53 124.431H213.125" stroke="#004B67" stroke-width="0.25" stroke-linecap="round" stroke-linejoin="round"/>
<path d="M152.53 127.968H213.125" stroke="#004B67" stroke-width="0.25" stroke-linecap="round" stroke-linejoin="round"/>
<path d="M152.53 131.505H213.125" stroke="#004B67" stroke-width="0.25" stroke-linecap="round" stroke-linejoin="round"/>
<path d="M152.53 135.042H213.125" stroke="#004B67" stroke-width="0.25" stroke-linecap="round" stroke-linejoin="round"/>
<path d="M113.877 186.492H48.8691L53.3559 183.083H118.363L113.877 186.492Z" fill="#2489B0"/>
<path d="M14.4663 213.856H12.874L53.3561 183.083H54.9551L14.4663 213.856Z" fill="#2489B0"/>
<path d="M99.5526 197.359H34.5519L39.6324 193.552H104.633L99.5526 197.359Z" fill="#004B67"/>
<path d="M77.6723 214.012H12.6649L53.3561 183.083H118.364L77.6723 214.012Z" stroke="#004B67" stroke-width="0.25" stroke-linecap="round" stroke-linejoin="round"/>
<path d="M60.0559 183.197L19.5402 213.991" stroke="#004B67" stroke-width="0.25" stroke-linecap="round" stroke-linejoin="round"/>
<path d="M66.5869 183.197L26.0712 213.991" stroke="#004B67" stroke-width="0.25" stroke-linecap="round" stroke-linejoin="round"/>
<path d="M73.1115 183.197L32.5957 213.991" stroke="#004B67" stroke-width="0.25" stroke-linecap="round" stroke-linejoin="round"/>
<path d="M79.6421 183.197L39.1263 213.991" stroke="#004B67" stroke-width="0.25" stroke-linecap="round" stroke-linejoin="round"/>
<path d="M86.1735 183.197L45.6577 213.991" stroke="#004B67" stroke-width="0.25" stroke-linecap="round" stroke-linejoin="round"/>
<path d="M92.7048 183.197L52.1823 213.991" stroke="#004B67" stroke-width="0.25" stroke-linecap="round" stroke-linejoin="round"/>
<path d="M99.2287 183.197L58.7129 213.991" stroke="#004B67" stroke-width="0.25" stroke-linecap="round" stroke-linejoin="round"/>
<path d="M105.76 183.197L65.2445 213.991" stroke="#004B67" stroke-width="0.25" stroke-linecap="round" stroke-linejoin="round"/>
<path d="M112.291 183.197L71.7684 213.991" stroke="#004B67" stroke-width="0.25" stroke-linecap="round" stroke-linejoin="round"/>
<path d="M44.8888 189.603H109.701" stroke="#004B67" stroke-width="0.25" stroke-linecap="round" stroke-linejoin="round"/>
<path d="M39.7135 193.539H104.525" stroke="#004B67" stroke-width="0.25" stroke-linecap="round" stroke-linejoin="round"/>
<path d="M34.5387 197.474H99.3505" stroke="#004B67" stroke-width="0.25" stroke-linecap="round" stroke-linejoin="round"/>
<path d="M29.3634 201.402H94.1752" stroke="#004B67" stroke-width="0.25" stroke-linecap="round" stroke-linejoin="round"/>
<path d="M24.1886 205.338H89.0004" stroke="#004B67" stroke-width="0.25" stroke-linecap="round" stroke-linejoin="round"/>
<path d="M19.0138 209.273H83.8256" stroke="#004B67" stroke-width="0.25" stroke-linecap="round" stroke-linejoin="round"/>
<path d="M213.274 141.678H144.758V144.195H213.274V141.678Z" fill="#2489B0"/>
<path d="M146.438 141.678H144.758V174.105H146.438V141.678Z" fill="#2489B0"/>
<path d="M213.274 141.678H144.758V174.274H213.274V141.678Z" stroke="#004B67" stroke-width="0.25" stroke-linecap="round" stroke-linejoin="round"/>
<path d="M151.977 141.799V174.253" stroke="#004B67" stroke-width="0.25" stroke-linecap="round" stroke-linejoin="round"/>
<path d="M158.859 141.799V174.253" stroke="#004B67" stroke-width="0.25" stroke-linecap="round" stroke-linejoin="round"/>
<path d="M165.741 141.799V174.253" stroke="#004B67" stroke-width="0.25" stroke-linecap="round" stroke-linejoin="round"/>
<path d="M172.623 141.799V174.253" stroke="#004B67" stroke-width="0.25" stroke-linecap="round" stroke-linejoin="round"/>
<path d="M179.505 141.799V174.253" stroke="#004B67" stroke-width="0.25" stroke-linecap="round" stroke-linejoin="round"/>
<path d="M186.387 141.799V174.253" stroke="#004B67" stroke-width="0.25" stroke-linecap="round" stroke-linejoin="round"/>
<path d="M193.269 141.799V174.253" stroke="#004B67" stroke-width="0.25" stroke-linecap="round" stroke-linejoin="round"/>
<path d="M200.144 141.799V174.253" stroke="#004B67" stroke-width="0.25" stroke-linecap="round" stroke-linejoin="round"/>
<path d="M207.026 141.799V174.253" stroke="#004B67" stroke-width="0.25" stroke-linecap="round" stroke-linejoin="round"/>
<path d="M144.872 148.549H213.186" stroke="#004B67" stroke-width="0.25" stroke-linecap="round" stroke-linejoin="round"/>
<path d="M144.872 152.701H213.186" stroke="#004B67" stroke-width="0.25" stroke-linecap="round" stroke-linejoin="round"/>
<path d="M144.872 156.845H213.186" stroke="#004B67" stroke-width="0.25" stroke-linecap="round" stroke-linejoin="round"/>
<path d="M144.872 160.99H213.186" stroke="#004B67" stroke-width="0.25" stroke-linecap="round" stroke-linejoin="round"/>
<path d="M144.872 165.134H213.186" stroke="#004B67" stroke-width="0.25" stroke-linecap="round" stroke-linejoin="round"/>
<path d="M144.872 169.279H213.186" stroke="#004B67" stroke-width="0.25" stroke-linecap="round" stroke-linejoin="round"/>
<path d="M190.59 162.481H187.736V169.15H190.59V162.481Z" fill="#004B67" stroke="#004B67" stroke-width="0.5" stroke-miterlimit="10"/>
<path d="M195.165 158.485H192.311V169.157H195.165V158.485Z" fill="#2489B0" stroke="#004B67" stroke-width="0.5" stroke-miterlimit="10"/>
<path d="M199.733 151.816H196.879V169.157H199.733V151.816Z" fill="#004B67" stroke="#004B67" stroke-width="0.5" stroke-miterlimit="10"/>
<path d="M204.307 158.289H201.453V169.15H204.307V158.289Z" fill="#2489B0" stroke="#004B67" stroke-width="0.5" stroke-miterlimit="10"/>
<path d="M208.874 151.816H206.021V169.157H208.874V151.816Z" fill="#004B67" stroke="#004B67" stroke-width="0.5" stroke-miterlimit="10"/>
<path d="M161.207 161.138V169.063C159.106 169.063 157.092 168.228 155.606 166.742C154.121 165.255 153.286 163.24 153.286 161.138C153.286 159.036 154.121 157.021 155.606 155.535C157.092 154.048 159.106 153.213 161.207 153.213V161.138Z" fill="#2489B0" stroke="#004B67" stroke-width="0.5" stroke-miterlimit="10"/>
<path d="M161.207 161.138L168.737 158.688C169.061 159.678 169.186 160.722 169.106 161.761C169.026 162.8 168.742 163.813 168.27 164.741C167.798 165.67 167.148 166.496 166.356 167.173C165.564 167.85 164.647 168.363 163.656 168.685C162.867 168.949 162.039 169.081 161.207 169.076V161.138Z" fill="white" stroke="#004B67" stroke-width="0.5" stroke-miterlimit="10"/>
<path d="M161.207 161.138V153.213C162.884 153.194 164.522 153.716 165.878 154.702C167.235 155.689 168.237 157.086 168.737 158.688L161.207 161.138Z" fill="#004B67" stroke="#004B67" stroke-width="0.5" stroke-miterlimit="10"/>
</svg>
